<svg width="96" height="77" viewBox="0 0 96 77" fill="none" xmlns="http://www.w3.org/2000/svg">
<path fill-rule="evenodd" clip-rule="evenodd" d="M82.5379 60.9971C82.5362 61.9046 82.4024 62.593 83.2515 62.8428C84.1404 63.1042 84.3082 62.4191 84.6039 61.8562C84.7501 61.5782 84.8756 61.1864 85.3089 61.2386C85.7574 61.292 85.9049 61.628 85.9691 62.0335C86.0085 62.2816 85.9749 62.6113 86.2897 62.6974C86.6554 62.7972 86.8004 62.4709 86.9851 62.2406C88.5471 60.2951 89.7843 58.1491 90.7937 55.8784C91.4179 54.4735 91.9746 53.025 92.1419 51.4763C92.3735 49.3307 90.7482 48.1391 88.7662 48.9898C87.5948 49.4927 86.6529 50.3099 85.9554 51.3533C83.9495 54.3538 83.0105 57.7357 82.5379 60.9971M79.1389 61.8997C79.457 56.3311 80.9067 51.1031 83.8861 46.3431C84.6751 45.0827 85.791 44.1288 86.9909 43.2784C87.7315 42.7532 88.5864 43.0266 89.3991 42.9819C89.6485 42.9682 90.3762 43.6806 90.2122 42.6099C90.2022 42.5432 90.6239 42.602 90.8244 42.6936C92.154 43.3024 93.2487 44.1453 93.9156 45.5101C95.8184 49.4049 95.6146 53.2872 93.9176 57.1691C92.429 60.5738 90.5319 63.6874 87.6918 66.1763C86.2557 67.4346 84.4606 67.6972 82.7508 68.0671C81.3056 68.3798 79.8497 67.0134 79.4744 65.3864C79.211 64.2445 79.1679 63.0777 79.1389 61.8997" fill="black"/>
<path fill-rule="evenodd" clip-rule="evenodd" d="M10.07 66.9885C10.9167 64.2179 10.8255 61.6996 9.53366 59.3001C8.57726 57.5236 7.29697 57.4416 5.99348 59.0093C5.04081 60.155 4.47874 61.5095 4.03555 62.9169C3.36993 65.0302 4.12709 66.4861 6.19312 67.2449C7.02401 67.5502 7.50407 67.3534 7.66312 66.5159C7.80064 65.791 8.07194 65.1171 8.86928 65.1511C9.76064 65.1896 9.69312 66.0727 9.86543 66.7006C9.87454 66.7342 9.90726 66.7619 10.07 66.9885M13.4967 61.2526C13.5609 65.7028 12.3709 69.2811 10.0502 72.4945C9.54152 73.1999 8.96993 73.8572 8.2165 74.312C7.15863 74.9511 5.99182 74.604 5.66833 73.4459C5.48691 72.7948 5.1688 72.6568 4.59928 72.5591C2.03537 72.1192 0.0923532 70.2524 0.0119982 67.6989C-0.154925 62.4074 1.49111 57.6276 5.1046 53.7477C7.72939 50.9299 10.6073 51.6005 12.2579 55.1221C13.237 57.2117 13.4947 59.4467 13.4967 61.2526" fill="black"/>
<path fill-rule="evenodd" clip-rule="evenodd" d="M38.993 52.1947C38.9404 51.2943 38.7353 50.2554 37.7798 49.7986C36.9025 49.379 36.21 50.1477 35.6508 50.726C33.3491 53.1047 31.918 55.9735 31.1182 59.1637C30.9103 59.9917 31.4259 60.3976 32.1508 60.6415C32.8367 60.8727 33.2861 60.7488 33.5657 60.0111C33.7446 59.5393 33.9981 58.9682 34.66 59.0618C35.2366 59.1434 35.1194 59.7489 35.2846 60.1321C35.3687 60.3263 35.3008 60.6221 35.5853 60.6689C35.8376 60.7103 36.0157 60.4945 36.1114 60.3093C37.4232 57.7719 38.7126 55.2242 38.993 52.1947M27.3987 60.8201C27.5888 56.7576 29.1259 53.0894 30.7939 49.4635C31.783 47.3142 33.0359 45.4093 35.2225 44.2354C37.1465 43.2024 38.9333 43.5508 39.9995 45.5033C41.6766 48.5759 42.3343 51.8335 41.298 55.283C40.3938 58.2934 39.0124 61.0512 36.9232 63.4328C36.6034 63.7969 36.1967 64.1701 35.7978 64.0595C34.9305 63.8193 34.5995 64.4352 34.2947 64.9169C33.4692 66.2237 32.2692 66.5364 30.89 66.2999C29.3661 66.0386 28.1438 65.3009 27.6236 63.7207C27.3117 62.7738 27.2587 61.8071 27.3987 60.8201" fill="black"/>
<path fill-rule="evenodd" clip-rule="evenodd" d="M12.3607 39.5113C12.6962 39.1778 12.7119 38.8295 12.7761 38.5014C12.849 38.1299 13.1158 37.9199 13.4182 38.0988C14.1633 38.5408 14.5232 38.0077 14.9333 37.5885C16.0401 36.4582 17.0379 35.2119 17.7789 33.8359C18.5824 32.3448 19.4332 30.8048 19.2157 28.9748C19.0807 27.837 18.9755 26.5874 17.7143 26.2109C16.4219 25.8252 15.4453 26.6706 14.5982 27.5736C14.5473 27.6278 14.5141 27.6983 14.4661 27.7558C12.6192 29.9863 11.7945 32.6906 11.133 35.4136C10.7764 36.8827 11.1707 38.3635 12.3607 39.5113M7.47562 38.3362C7.55514 34.8304 8.71781 31.6241 10.0271 28.4198C10.9305 26.2084 12.1399 24.2529 13.6841 22.4661C15.036 20.9025 17.8054 20.2778 19.7066 21.3945C20.4186 21.8129 20.5449 22.7382 21.3224 23.053C20.4186 24.0351 21.783 24.4451 21.8641 25.1923C22.1951 28.2239 22.1006 31.1382 20.6779 33.9838C19.2853 36.7701 17.4632 39.1161 14.9838 40.9676C14.708 41.1739 14.6359 41.4017 14.6053 41.7223C14.5626 42.1655 14.5042 42.6285 14.3356 43.0345C13.3668 45.3701 11.746 45.7508 9.8552 44.0737C8.14289 42.5548 7.41349 40.6019 7.47562 38.3362" fill="black"/>
<path fill-rule="evenodd" clip-rule="evenodd" d="M72.2318 36.1782C72.1862 35.6025 72.2786 34.9418 71.6917 34.654C71.1449 34.386 70.7071 34.8718 70.2991 35.1846C69.7279 35.6228 69.2591 36.1712 68.8784 36.7784C67.3649 39.1936 66.3675 41.8043 65.9301 44.6292C65.8195 45.3457 65.805 46.2338 66.51 46.3688C67.2547 46.5113 68.3238 46.6853 68.7794 45.5702C68.9062 45.2596 69.0648 44.9502 69.2665 44.6834C71.1689 42.1601 71.6059 39.1381 72.2318 36.1782M63.0092 45.149C63.2565 41.2534 64.4046 37.3339 66.5121 33.6976C66.7755 33.244 67.0949 32.8232 67.3591 32.3701C68.4282 30.5381 70.1156 29.8136 72.1353 29.7639C72.8328 29.7469 73.2217 30.2995 73.5365 30.881C74.6756 32.9856 74.9659 35.2322 74.5008 37.541C73.5788 42.1154 71.8636 46.3792 69.2769 50.281C68.8146 50.9789 68.2207 51.5513 67.6122 52.0993C66.9246 52.7181 66.3394 52.4841 66.1066 51.5745C66.0271 51.2626 66.0498 50.9006 65.6149 50.7813C63.8802 50.305 63.6487 48.7343 63.2184 47.355C63.0332 46.7602 63.0891 46.0905 63.0092 45.149" fill="black"/>
<path fill-rule="evenodd" clip-rule="evenodd" d="M55.7091 18.0276C54.7854 18.8486 54.4698 19.8414 53.976 20.7502C53.0689 22.4219 52.6585 24.1971 52.4087 26.0395C52.3673 26.346 52.3843 26.6741 52.7475 26.7822C53.1025 26.8878 53.2872 26.5925 53.4454 26.3564C53.5888 26.1418 53.5995 25.7508 53.7789 25.6638C54.3849 25.3689 53.974 23.8803 55.27 24.4117C55.4357 24.4792 55.5898 24.1802 55.3926 24.0339C54.5319 23.3973 55.0807 22.6998 55.3156 22.0565C55.7757 20.7945 56.1063 19.5361 55.7091 18.0276M56.6046 12.971C55.3686 13.5488 55.8756 14.1482 56.5913 14.4207C58.227 15.0445 58.3293 16.5502 58.6292 17.8561C58.8209 18.6912 58.6594 19.6683 58.4403 20.5265C57.4491 24.4109 55.6639 27.951 53.5163 31.311C53.163 31.8644 52.5408 32.2252 52.1867 32.8175C52.0334 33.0731 51.7369 33.2383 51.4038 33.1257C51.075 33.0142 50.9789 32.7819 51.0153 32.4207C51.0828 31.7472 50.7896 31.239 50.2942 30.7515C48.9298 29.4103 49.0574 27.6081 49.2015 25.9629C49.5689 21.7616 50.9855 17.8677 53.2789 14.3284C53.9773 13.2502 54.9515 12.4226 56.6046 12.971" fill="black"/>
<path fill-rule="evenodd" clip-rule="evenodd" d="M59.1626 68.2277C59.2508 68.5342 59.3391 68.8411 59.4675 69.2884C60.45 68.0446 61.1114 66.7552 61.5124 65.3515C61.7779 64.4216 61.053 63.6172 60.0813 63.6686C59.1021 63.7199 58.3777 64.2634 57.8529 65.0354C56.4687 67.0725 55.8519 69.4206 55.4965 71.7939C55.3909 72.5014 55.4754 73.4586 55.9153 74.2394C56.2955 74.9133 55.5263 76.6119 54.7323 76.8675C53.7382 77.1877 53.2665 76.469 52.9281 75.7442C52.2608 74.3164 52.494 72.7669 52.6307 71.2973C52.9405 67.9742 53.9404 64.8329 55.6556 61.9467C56.419 60.6619 57.295 59.481 58.9211 59.2474C61.6917 58.8502 62.8279 59.1413 63.5478 61.9248C64.4967 65.5925 62.4849 70.681 59.3577 72.8808C59.0114 73.1248 58.6614 73.3306 58.2112 73.1563C57.6976 72.9578 57.7721 72.4861 57.7548 72.1C57.6901 70.6628 58.3338 69.4376 58.8785 68.1867C58.9733 68.2003 59.0678 68.214 59.1626 68.2277" fill="black"/>
<path fill-rule="evenodd" clip-rule="evenodd" d="M39.9965 0.0102673C40.8833 -0.06636 41.5319 0.281569 41.5713 1.1282C41.64 2.62388 41.9731 4.01808 41.5373 5.65541C40.8042 8.41027 39.678 10.8888 38.1293 13.193C37.4454 14.2099 37.7242 15.3403 37.2926 16.3567C36.9331 17.2033 36.5098 17.9758 35.8441 18.6087C35.4129 19.0188 34.954 19.3261 34.3393 18.9728C33.7624 18.6415 33.5213 18.277 33.4853 17.4788C33.2599 12.4852 35.1503 8.03334 36.8341 3.51855C37.2069 2.52033 37.8016 1.66086 38.4217 0.805948C38.838 0.232694 39.3412 -0.0589043 39.9965 0.0102673" fill="black"/>
</svg>
