<svg width="120" height="104" viewBox="0 0 120 104" fill="none" xmlns="http://www.w3.org/2000/svg">
<path fill-rule="evenodd" clip-rule="evenodd" d="M107.952 82.4133C107.182 83.0168 106.82 83.8912 106.665 84.8741C106.58 85.4162 106.085 85.4904 105.713 85.5857C105.39 85.6685 105.093 85.6793 104.832 85.9452C104.725 86.0554 104.388 86.0794 104.247 85.9932C103.795 85.7178 103.311 85.5165 102.894 85.1491C101.426 83.8568 100.349 82.2584 99.3413 80.6277C98.3133 78.9638 97.2372 77.3178 96.4498 75.5131C96.205 74.9515 96.195 74.956 96.8114 74.5199C97.3125 75.4729 97.7798 76.4405 98.3207 77.365C98.7498 78.0986 99.2688 78.7787 99.7915 79.5462C99.9146 79.2372 99.9117 79.0392 99.7207 78.7638C98.6811 77.2619 97.694 75.726 96.9112 73.9673C97.0363 73.8857 97.1875 73.7867 97.3378 73.689C97.3726 73.7188 97.4501 73.7859 97.5826 73.9006V73.2743C97.9541 73.2002 98.2909 73.1335 98.7291 73.0465C99.0708 73.206 99.2332 73.8107 99.7957 73.8857C99.7775 74.4975 100.312 74.8023 100.581 75.2493C100.914 75.8035 101.366 76.286 101.686 76.6957C102.047 76.6476 102.317 76.5971 102.59 76.578C103.547 76.5109 103.523 76.5412 104.12 77.0668C104.782 77.6508 105.235 78.468 106.089 78.8391C106.144 78.8628 106.205 78.9464 106.208 79.0048C106.235 79.6195 106.579 79.8428 107.156 79.9919C107.64 80.1174 107.778 80.6277 107.801 81.1297C107.818 81.5145 107.889 81.8968 107.952 82.4133" fill="black"/>
<path fill-rule="evenodd" clip-rule="evenodd" d="M22.5369 11.0212C23.222 11.3642 23.222 11.3642 23.5906 10.6463C24.0591 10.4856 24.6253 10.8091 25.049 10.3788C25.5258 10.4976 25.9963 10.6592 26.4801 10.7259C27.2613 10.8332 27.6647 11.4375 28.1058 11.9461C28.4053 12.2916 28.7188 12.6382 28.9926 13.0135C29.3128 13.4526 29.6955 13.8452 30.0169 14.283C30.3081 14.6798 30.5571 15.1085 30.8155 15.5285C30.8872 15.6453 30.9791 15.7874 30.9688 15.91C30.941 16.2364 31.0541 16.4563 31.2861 16.6904C31.7322 17.1402 31.6974 17.8004 31.8523 18.3621C31.996 18.8856 31.9136 19.4825 31.8672 20.0421C31.8498 20.2558 31.8216 20.7118 31.3511 20.3755C31.318 20.3515 31.1535 20.5267 31.0404 20.593C30.9211 20.6626 30.7174 20.7955 30.6751 20.7587C30.1789 20.3229 30.058 20.6344 29.831 21.0652C29.4971 21.6993 29.2933 21.6525 28.397 21.4926C27.8515 21.3949 27.2733 21.3779 26.9539 20.9045C26.0903 19.6246 25.2056 18.3534 25.0859 16.7173C25.0382 16.0616 24.8552 15.3774 24.3142 14.906C23.8482 14.4997 23.5388 13.919 22.9026 13.6924C22.7109 13.624 22.5704 13.3954 22.4213 13.2268C22.1045 12.8673 21.9342 12.4676 21.9259 11.9618C21.9172 11.4366 22.3323 11.319 22.5369 11.0212" fill="black"/>
<path fill-rule="evenodd" clip-rule="evenodd" d="M95.7508 53.8002C95.1916 53.2411 94.7223 52.6935 94.1752 52.2395C92.6058 50.9373 91.8606 49.0949 90.922 47.3801C90.5004 46.6101 90.6209 45.7453 90.6391 44.9123C90.6425 44.7677 90.8421 44.6273 90.9589 44.4757C91.1184 44.7914 91.2679 45.0871 91.4862 45.5187V43.9766C91.8146 43.8138 92.139 43.7252 92.3601 43.5239C92.6348 43.2741 92.945 43.3234 93.1968 43.3868C93.4901 43.4605 93.7403 43.7053 94.0352 43.8925C93.8625 44.7019 94.181 45.3795 94.5757 46.0857C94.929 45.9901 95.3461 46.2411 95.6999 45.8782C95.7748 45.8012 96.0209 45.795 96.1269 45.8587C96.9934 46.3802 98.0567 46.6569 98.4949 47.7272C98.5736 47.9202 98.661 48.1696 98.8192 48.2553C99.0578 48.3845 98.8436 48.788 99.2533 48.8037C99.5904 48.8166 99.3751 49.1603 99.4355 49.3476C99.5105 49.5795 99.6128 49.8065 99.6534 50.0443C99.6907 50.2621 99.6613 50.4916 99.6613 50.7177C98.7939 51.4616 98.2364 52.4093 97.809 53.4651C97.1152 53.5778 96.411 53.6925 95.7508 53.8002" fill="black"/>
<path fill-rule="evenodd" clip-rule="evenodd" d="M1.6715 1.1362C1.87736 0.855789 2.03766 0.62218 2.21535 0.401825C2.28038 0.321884 2.38062 0.265553 2.47381 0.213363C2.73931 0.0646652 2.92902 0.485079 3.226 0.302002C3.45878 0.158689 3.73133 0.0298723 3.99683 0.0041918C4.21718 -0.0169325 4.54399 0.24857 4.66245 0.163245C4.9263 -0.0268733 5.08411 -0.084033 5.31357 0.173186C5.35624 0.220405 5.51239 0.184784 5.60973 0.161174C6.32961 -0.0123762 6.3292 -0.0144473 6.7144 0.685139C6.76701 0.533541 6.81257 0.402653 6.89541 0.163659C7.00931 0.471825 7.12115 0.690937 7.16837 0.92289C7.22635 1.2062 7.24044 1.49987 7.25369 1.78981C7.26736 2.08141 7.25659 2.37425 7.4202 2.67455L7.52955 1.58851C7.56807 1.58685 7.60701 1.5852 7.64594 1.58396C7.66706 1.77614 7.70434 1.96833 7.70559 2.16094C7.7118 3.13762 7.66582 4.1168 7.72132 5.09017C7.77061 5.94881 7.62357 6.72626 7.13854 7.4362C6.95671 7.26224 6.7844 6.99839 6.5773 7.41922C6.35073 7.87898 5.98789 7.84419 5.51902 7.63336C5.44115 8.1333 5.40594 8.72271 4.57795 8.53425V7.28212C4.52286 7.27135 4.46736 7.26017 4.41227 7.24898C4.28097 7.67603 4.15008 8.10307 4.01505 8.54253C3.64517 8.29484 3.34198 8.03141 3.40204 7.51035C3.4186 7.36413 3.24795 7.20425 3.19286 7.04106C2.9547 6.33111 2.95843 6.32946 2.36902 6.31248C2.25635 6.30916 2.14369 6.31206 2.03103 6.31206H1.72162C1.43582 6.02626 1.17819 5.75165 0.902745 5.4965C0.315822 4.95431 0.129017 4.2365 0.0349938 3.49052C-0.0113968 3.12064 0.0685441 2.73419 0.0159405 2.36597C-0.0420477 1.96005 0.167124 1.66017 0.351858 1.37437C0.720083 0.804843 0.92097 0.788275 1.6715 1.1362" fill="black"/>
<path fill-rule="evenodd" clip-rule="evenodd" d="M67.5463 10.0765C67.0645 10.4037 66.6006 10.7318 66.1173 11.0271C66.0705 11.0557 65.9023 10.8855 65.7209 10.7587C65.6099 10.9579 65.5345 11.1406 65.4169 11.2897C65.2785 11.4658 65.1008 11.6107 64.9438 11.7727C64.6257 12.1003 64.3192 12.4652 63.8491 11.9674C63.8131 11.9297 63.7037 11.9669 63.6296 11.9591C63.1015 11.9019 62.5982 12.0336 62.0668 11.6087C61.6389 11.2665 61.0943 11.03 60.6921 10.61C60.3151 10.2157 59.925 9.8454 59.6619 9.34505C59.2585 8.57671 58.8601 7.81706 59.0038 6.91534C59.0398 6.68919 59.1951 6.48168 59.3356 6.1789C59.6197 6.41168 59.8119 6.56907 60.0364 6.75339C60.2203 6.14327 60.1826 5.43416 60.748 4.89653C60.9696 5.06221 61.1837 5.22209 61.4509 5.42174V4.59789C62.1931 4.47114 62.8674 4.216 63.6114 4.26073C64.038 4.28641 64.4066 4.42144 64.6767 4.68032C65.0238 5.0125 65.4488 5.25026 65.7321 5.67606C65.988 6.06126 66.338 6.38351 66.6069 6.78032C67.048 7.43268 67.1971 8.19523 67.5198 8.88943C67.6738 9.22037 67.5463 9.68262 67.5463 10.0765" fill="black"/>
<path fill-rule="evenodd" clip-rule="evenodd" d="M19.7064 31.6716V34.0955C19.9314 33.4829 19.8924 32.8641 19.9115 32.2486C19.9189 32.0009 19.8017 31.6927 20.102 31.5449C20.4122 31.3916 20.7399 31.24 21.0746 31.1907C21.1897 31.1737 21.4088 31.4463 21.4743 31.6248C21.5447 31.8166 21.4904 32.0539 21.4904 32.2958C21.6776 32.2175 21.789 32.1268 21.8889 32.138C22.0951 32.1612 22.3785 32.3521 22.4841 32.2751C23.071 31.8431 23.7143 32.1268 24.3211 32.0929C24.5957 32.0775 25.0111 32.261 25.1428 32.4839C25.4659 33.0327 26.1179 33.2004 26.4596 33.8462C26.4708 34.122 26.5072 34.4629 26.7938 34.8299C27.1695 35.3108 27.4901 35.9081 27.3737 36.6118C27.3195 36.939 27.3642 37.2824 27.3642 37.6813C26.5942 38.1381 25.7931 38.5821 25.0252 39.0775C24.2217 39.5961 23.4906 39.2478 22.8067 38.8895C22.3076 38.6277 21.6379 38.5051 21.4693 37.808C20.3534 37.306 20.155 36.1301 19.5594 35.2416C19.1589 34.6443 19.1713 33.9493 19.0578 33.3172C18.9642 32.7949 19.3328 32.1898 19.4969 31.6215C19.5669 31.6381 19.6369 31.655 19.7064 31.6716" fill="black"/>
<path fill-rule="evenodd" clip-rule="evenodd" d="M41.5634 43.8944C41.0879 43.4189 40.5838 42.9148 40.0164 42.3474C40.0164 41.9717 39.9775 41.5239 40.0363 41.0894C40.0586 40.9279 40.2918 40.7647 40.4654 40.6698C40.5312 40.6334 40.7006 40.7866 40.8241 40.8542C40.9881 40.5294 41.0842 40.09 41.6388 40.1968C41.7419 40.2171 41.8882 40.2233 41.9586 40.1666C42.2348 39.9429 42.5356 39.7147 42.8889 39.8129C43.5222 39.9893 44.228 40.0924 44.7217 40.5294C45.6976 41.3939 46.6254 42.3333 47.1112 43.5817C47.4008 44.326 47.6621 45.0948 47.8021 45.8768C47.863 46.2189 47.7706 46.6886 47.3809 46.9611C46.7393 47.4106 46.1217 47.896 45.466 48.3235C45.2428 48.4688 44.928 48.5695 44.6675 48.5467C43.026 48.4046 41.8563 47.6322 41.3712 45.7782C41.3004 45.5081 41.131 45.2269 41.1675 44.9742C41.2205 44.6085 41.4201 44.2635 41.5634 43.8944" fill="black"/>
<path fill-rule="evenodd" clip-rule="evenodd" d="M44.3797 84.7054C44.335 84.4788 44.2903 84.2526 44.2455 84.0261C44.2426 84.9249 43.2937 85.2612 43.087 86.0254C43.0133 86.2988 42.609 86.4206 42.4417 86.2685C42.1687 86.0217 41.9828 86.2019 41.8287 86.3021C41.419 86.5688 41.0711 86.5432 40.6528 86.2988C39.447 85.5938 38.2032 84.946 37.4924 83.6537C36.6358 83.1902 36.3853 82.2487 35.853 81.533C35.5941 81.1851 35.5117 80.7058 35.3311 80.2386C35.6459 79.7801 36.1032 79.9014 36.6561 80.1773C36.6027 79.9168 36.6172 79.677 36.5079 79.5291C36.3567 79.3257 36.5182 79.2458 36.6039 79.2097C36.9933 79.047 37.3959 78.9277 37.7165 78.6203C37.7948 78.5449 38.0164 78.5748 38.1539 78.6162C38.3995 78.6907 38.6099 78.8477 38.8829 78.6257C38.9603 78.5632 39.2122 78.6883 39.3704 78.7578C40.7302 79.3551 41.9608 80.104 42.766 81.4294C42.8745 81.6084 43.1189 81.7981 43.3016 81.9683C43.8255 82.455 43.9237 83.1641 44.3292 83.6889C44.5984 84.0381 44.5396 84.3446 44.3797 84.7054" fill="black"/>
<path fill-rule="evenodd" clip-rule="evenodd" d="M112.947 32.0399C112.976 31.8316 113.006 31.6228 113.039 31.3934C113.121 31.453 113.194 31.4766 113.213 31.5226C113.503 32.2309 113.864 32.9097 114.034 33.6673C114.141 34.1436 114.277 34.5997 113.816 34.9708C113.502 35.2235 113.821 35.9492 113.114 35.9086C112.781 36.4433 112.248 36.3899 111.738 36.3534C111.622 36.7113 111.551 37.06 111.4 37.3711C111.231 37.7215 110.69 37.8205 110.109 37.6548C109.977 37.6171 109.849 37.4883 109.727 37.4991C108.787 37.5811 108.789 37.5881 108.393 36.8467C108.196 36.4768 107.957 36.1235 107.804 35.7363C107.617 35.2641 107.328 34.9692 106.851 34.7654C106.143 34.4626 105.683 33.8487 105.561 33.1185C105.45 32.4574 105.76 31.851 106.35 31.3747C106.642 31.7566 106.934 32.1373 107.343 32.6707C107.343 32.1248 107.337 31.7574 107.345 31.3905C107.352 31.0255 107.392 31.1001 107.969 30.84C108.382 30.654 108.979 30.8793 109.217 30.3069C109.624 30.2912 110.031 30.2763 110.439 30.2605C111.192 30.2307 111.859 30.3127 112.21 31.1494C112.349 31.4807 112.683 31.7309 112.947 32.0399" fill="black"/>
<path fill-rule="evenodd" clip-rule="evenodd" d="M1.5815 37.5283C0.690137 37.3352 0.377001 36.7032 0.295817 36.1477C0.191853 35.4374 -0.0487983 34.7411 0.00877567 33.9901C0.0833319 33.018 0.0779473 32.0318 0.00504786 31.0597C-0.0301592 30.5879 0.272622 30.2387 0.26558 29.7976C0.263924 29.6829 0.423391 29.4609 0.498776 29.4654C1.08031 29.4985 1.35659 28.869 1.96629 28.8652C2.37014 28.8632 2.77191 28.4846 3.22505 28.2477C3.67156 28.6942 4.62132 28.142 4.98333 29.1266C4.74641 29.8183 5.33665 30.4259 5.5367 31.1346C5.56446 31.2336 5.66842 31.3219 5.66925 31.4155C5.67878 32.5317 5.67505 33.6476 5.67505 34.86C5.49446 34.6997 5.41617 34.6305 5.22191 34.4578C5.2828 34.72 5.2712 34.9209 5.36067 34.9888C5.45594 35.0617 5.65682 34.9809 5.79185 35.0261C5.85315 35.0464 5.88588 35.2083 5.8925 35.3085C5.89582 35.3545 5.79599 35.456 5.75954 35.4485C5.48617 35.3951 5.21653 35.3206 4.9212 35.2468C4.71949 35.6834 4.5041 36.1494 4.34339 36.4977C4.03564 36.4749 3.85173 36.4609 3.66824 36.4472C3.99008 36.7719 3.6202 36.8887 3.48641 37.0884C3.35014 37.2909 3.25031 37.5179 3.14221 37.7196C2.43144 37.6426 2.16635 37.1845 1.97623 36.5777C1.84162 36.9024 1.72025 37.1936 1.5815 37.5283" fill="black"/>
<path fill-rule="evenodd" clip-rule="evenodd" d="M84.7326 89.4749C84.1482 89.4583 83.5952 89.3005 83.3127 89.9483C82.8356 89.3196 82.7792 88.8735 83.2651 88.374C83.6006 88.0294 83.8218 87.599 84.2492 87.3012C84.6232 87.0402 84.7608 86.4633 85.083 86.0959C85.3307 85.8134 85.7027 85.6394 86.0195 85.4178C86.1185 85.5143 86.2254 85.6195 86.394 85.7848C86.215 85.912 86.0394 86.037 85.8634 86.1617C85.8828 86.2069 85.9027 86.252 85.9222 86.2972C86.1798 86.2566 86.437 86.216 86.7266 86.1704C86.8036 86.286 86.8931 86.5825 87.0848 86.6824C88.2367 87.2821 88.9719 88.2833 89.6719 89.3109C89.9018 89.6481 89.9809 90.0842 90.1657 90.4574C90.6217 91.3798 90.7393 91.5501 90.6006 92.3884C90.5003 92.9944 90.3898 93.6405 89.9138 94.1343C89.7258 94.3289 89.5253 94.6102 89.5154 94.8595C89.4905 95.4891 89.1447 95.5898 88.636 95.5575C88.494 95.5483 88.3436 95.5666 88.2053 95.6039C87.318 95.8424 87.2265 95.8176 86.7841 95.1375C86.1289 94.1305 85.8157 92.9791 85.4347 91.8599C85.1654 91.0692 84.96 90.2561 84.7326 89.4749" fill="black"/>
<path fill-rule="evenodd" clip-rule="evenodd" d="M70.3682 77.0821C69.7407 76.7258 69.1053 76.414 68.5938 75.8983C67.6407 74.9357 66.6176 74.034 65.7383 73.0084C64.8138 71.9302 63.835 70.8674 63.2771 69.6032C63.3359 69.1041 63.9862 69.6343 63.9986 69.0453C64.0024 68.8771 64.4145 68.7148 64.6431 68.5553C65.2106 68.1593 65.5275 68.0931 65.9408 68.5329C66.3488 68.9674 66.8206 69.1232 67.3545 69.2363C68.1792 69.4111 68.7483 70.0444 69.4541 70.4341C70.2092 70.8508 70.7472 71.5218 71.3606 72.1046C71.6783 72.4061 72.0731 72.6377 72.346 72.9715C72.6206 73.3074 72.8729 73.7113 72.9702 74.1242C73.029 74.3757 72.8402 74.7551 72.648 74.9792C72.4106 75.2554 72.2984 75.6543 71.883 75.7881C71.6427 75.8651 71.6767 76.1335 71.6299 76.3547C71.576 76.6086 71.5052 76.9176 71.0645 76.5987C70.7563 76.3763 70.497 76.6919 70.3682 77.0821" fill="black"/>
<path fill-rule="evenodd" clip-rule="evenodd" d="M115.845 70.5487C114.558 70.0185 114.004 69.0327 113.454 68.0746C112.971 67.2326 112.53 66.3557 112.171 65.454C111.812 64.5535 111.187 63.7003 111.466 62.567C112.28 63.1345 112.213 64.2192 112.995 64.9445C112.852 63.7972 112.256 62.9108 111.959 61.7021C112.37 61.9275 112.519 62.0091 112.702 62.1089C112.737 61.9121 112.774 61.7059 112.81 61.5004C113.151 61.4358 113.487 61.372 113.883 61.2966C113.989 61.4648 114.127 61.7133 114.291 61.9436C114.93 62.8395 114.934 62.8354 116.095 63.2484C116.225 63.2948 116.346 63.3701 116.464 63.4447C117.363 64.013 118.182 64.6533 118.677 65.6412C118.86 66.0065 119.11 66.6775 119.099 67.0665C119.096 67.1576 119.172 67.2645 119.239 67.3415C119.408 67.5374 119.331 67.7043 119.157 67.8033C118.649 68.0895 118.429 68.6529 117.979 68.99C117.786 69.1337 117.752 69.3251 117.717 69.5624C117.669 69.8855 117.035 70.3043 116.741 70.2364C116.558 70.1941 116.44 69.8586 116.191 70.1059C116.06 70.2359 115.961 70.3975 115.845 70.5487" fill="black"/>
<path fill-rule="evenodd" clip-rule="evenodd" d="M79.2643 44.2239C79.0671 44.2566 78.8604 44.2905 78.575 44.3378C78.6877 44.549 78.7681 44.6989 78.8521 44.8563C78.3157 45.3927 77.7574 45.9511 77.1817 46.5272C77.0889 46.5272 76.9754 46.5102 76.8685 46.5297C75.6015 46.7642 74.7578 46.0451 74.054 45.1782C73.5044 44.501 73.0318 43.755 72.664 42.9411C72.4345 42.4328 72.2295 41.9648 72.3935 41.2743C72.7779 42.1193 73.1204 42.8715 73.463 43.6241C73.5239 43.6042 73.5847 43.5847 73.646 43.5649C73.6183 43.4215 73.6141 43.2679 73.5586 43.1362C73.3296 42.5919 73.0691 42.0601 72.8533 41.5113C72.7576 41.2681 72.5526 40.9653 73.0749 40.8523C73.236 40.8175 73.3304 40.4699 73.4534 40.2641C73.5611 40.0835 73.6655 39.9008 73.7508 39.755C74.2789 39.7066 74.2839 40.1684 74.6132 40.3589C74.5366 40.0682 74.4599 39.7774 74.3589 39.3947C74.5279 39.2609 74.7536 39.082 74.9794 38.9026C75.1218 39.0443 75.3107 39.27 75.4859 38.8537C75.676 38.4039 75.9569 38.2287 76.4121 38.524C76.4535 38.551 76.5392 38.5717 76.5666 38.5493C77.0939 38.1148 77.4045 38.5476 77.6485 38.8798C78.2308 39.6739 78.505 40.6273 78.8538 41.5344C78.9358 41.7473 79.1143 42.2473 78.5137 42.2713C78.4798 42.2726 78.4537 42.4594 78.4243 42.5596C78.5494 42.5898 78.7415 42.6868 78.7892 42.6387C79.1259 42.3011 79.3073 42.7418 79.2742 42.8193C79.0717 43.2952 79.541 43.755 79.2643 44.2239" fill="black"/>
<path fill-rule="evenodd" clip-rule="evenodd" d="M75.1738 20.1193C75.3064 20.2518 75.4393 20.3848 75.641 20.5861C75.6779 20.2667 75.7086 20.0033 75.7421 19.7159C76.2068 19.6185 76.6861 19.4959 77.1728 19.4238C77.4668 19.3804 77.7775 19.3816 78.0707 19.4267C78.2944 19.4615 78.1188 19.8782 78.5359 19.9147C78.8055 19.9383 79.0126 20.3964 79.2044 20.7153C79.3602 20.9742 79.127 21.5346 79.7184 21.5011C79.7387 21.8676 79.759 22.2346 79.7802 22.6012C79.7818 22.6368 79.7901 22.672 79.7955 22.7076L81.4738 24.386C81.6536 24.386 81.8441 24.3628 82.026 24.3914C82.3064 24.4365 82.6083 24.7144 82.4646 24.8867C82.1448 25.2699 82.7181 25.5346 82.4907 25.8473C81.6171 26.1091 81.3417 26.138 80.6309 26.0138C80.809 26.3986 80.9639 26.7341 81.1586 27.1557C81.0451 27.2647 80.8956 27.5302 80.7481 27.5294C79.8174 27.5223 78.8378 27.7584 78.0082 27.0978C77.7833 26.9184 77.5116 26.778 77.3368 26.5589C76.9379 26.0594 76.5809 25.5263 76.2168 24.9994C76.0374 24.7397 75.8842 24.4614 75.7119 24.1963C75.4451 23.7858 75.5242 23.1943 75.0351 22.9007C75.1092 22.4028 74.8284 22.0263 74.649 21.5967C74.4051 21.0131 74.5563 20.4548 75.1738 20.1193" fill="black"/>
<path fill-rule="evenodd" clip-rule="evenodd" d="M40.3118 3.37488C40.752 3.37488 41.0532 3.37446 41.3539 3.37488C41.7569 3.37571 42.1931 3.30819 42.2854 3.89056C42.2954 3.95517 42.4461 4.05417 42.5182 4.04381C42.9954 3.97298 43.1192 4.42405 43.4112 4.62245C44.2036 5.16091 44.3204 6.04772 44.5184 6.86784C44.6315 7.33547 44.4803 7.67097 43.948 7.98949C43.3507 8.34695 42.6031 8.56896 42.1931 9.21843C41.831 9.22547 41.5349 9.79168 41.112 9.33855C41.0507 9.2731 40.9148 9.25115 40.8142 9.25281C39.3885 9.28014 38.4963 8.46168 37.7512 7.37026C37.373 6.81689 36.8996 6.32233 36.7513 5.64097C36.6904 5.36139 36.6548 5.07476 36.6349 4.78937C36.6278 4.69576 36.6829 4.5334 36.7484 4.50979C37.322 4.30476 37.7391 3.81559 38.2954 3.61636C38.9813 3.37115 39.7149 3.29742 40.3118 3.37488" fill="black"/>
<path fill-rule="evenodd" clip-rule="evenodd" d="M38.5008 58.1681C38.6661 58.4278 38.7874 58.6192 39.0235 58.9907C39.0766 58.5973 39.0969 58.4626 39.1122 58.3276C39.1619 57.8799 39.1611 57.8807 39.7269 57.8231C39.7977 57.8157 39.9066 57.8252 39.9319 57.785C40.1899 57.3783 40.593 57.2644 40.9997 57.387C41.4607 57.5257 41.9557 57.6997 42.3144 58.0021C43.714 59.1817 44.5374 60.7627 45.1769 62.4402C45.2854 62.7264 45.1922 63.0893 45.1922 63.4123C45.0245 63.3937 44.8928 63.3792 44.7606 63.3643C44.7892 63.7694 44.6977 64.0697 44.2238 64.1654C44.0818 64.1944 43.8875 64.4064 43.8734 64.5493C43.8258 65.0373 43.3246 64.7995 43.1498 65.0534C42.8706 64.609 42.3902 65.147 42.0762 64.8293C41.7755 64.5253 41.3638 64.2909 41.165 63.9338C40.7272 63.1473 40.308 62.3288 40.0516 61.4722C39.9207 61.034 39.7264 60.7428 39.3889 60.544C38.8409 60.2222 38.4151 59.8142 38.1475 59.2343C37.9243 58.7501 37.9147 58.7547 38.5008 58.1681" fill="black"/>
<path fill-rule="evenodd" clip-rule="evenodd" d="M59.672 45.03C59.672 44.9178 59.6451 44.7616 59.6815 44.6216C59.706 44.528 59.8663 44.4642 59.8804 44.3743C59.8957 44.2762 59.7805 44.1635 59.7793 44.0566C59.7785 43.9618 59.9118 43.8454 59.8857 43.7754C59.8381 43.6466 59.7312 43.5273 59.6215 43.4378C59.5486 43.3782 59.4272 43.3773 59.2773 43.3368C59.3477 43.5816 59.4044 43.7787 59.4616 43.9763C59.0627 43.7331 58.6195 43.5393 58.8146 42.9532C58.9795 43.0236 59.1414 43.0936 59.3423 43.1798C59.4069 42.4744 58.7529 42.8414 58.5011 42.5075C58.8697 42.551 59.1153 42.2971 59.486 42.3464C59.6579 42.3692 59.8816 42.0039 60.145 41.7545C60.5108 42.0531 60.9208 42.3874 61.4005 42.7788C61.4473 42.4926 61.4808 42.2888 61.5214 42.0407C62.0636 41.9359 62.6195 41.8287 63.1815 41.7201C63.4702 42.0888 63.696 42.4251 63.971 42.7146C64.2096 42.9648 64.5376 43.1317 64.7675 43.3881C65.4162 44.1121 65.7102 45.0263 65.977 45.9305C66.0727 46.254 66.1779 46.7659 65.5595 46.8525C65.5624 47.4465 64.9361 47.5351 64.6536 47.9116C64.2995 48.383 63.6732 48.4642 62.9972 48.1912C61.9849 47.7824 61.3197 46.9921 60.6731 46.2225C60.3496 45.8369 59.9864 45.4732 59.672 45.03" fill="black"/>
<path fill-rule="evenodd" clip-rule="evenodd" d="M78.2878 59.6789C78.47 59.7411 78.6461 59.8007 78.8478 59.8695C78.8888 58.9193 77.9067 58.653 77.77 57.7782C77.9689 57.866 78.1308 57.9033 78.248 57.9965C78.4361 58.1464 78.5943 58.3328 78.8287 58.5672C78.7488 58.0909 78.6958 57.9815 78.4241 57.6556C79.018 56.9373 79.018 56.9373 79.7193 56.9349C80.1049 57.3694 80.4342 57.9418 80.9283 58.2433C81.4738 58.5768 81.6345 59.1459 82.0367 59.5539C82.4211 59.9444 82.6762 60.4763 82.931 60.9754C83.071 61.2488 83.1899 61.5979 83.1443 61.8854C83.0863 62.2486 82.9314 62.7826 82.6746 62.8857C82.2521 63.0559 82.3465 63.3546 82.2136 63.6114C82.0313 63.9622 81.782 64.3035 81.3247 64.3789C81.0575 64.4228 80.7394 64.6266 80.5435 64.5384C80.0668 64.3234 79.5743 64.0496 79.2218 63.6739C78.5566 62.9648 77.9618 62.1849 77.3927 61.3946C77.2498 61.1966 77.3157 60.8486 77.2734 60.4572C77.4631 60.6105 77.5385 60.671 77.6984 60.7998C77.6155 60.2236 78.1192 60.026 78.2878 59.6789" fill="black"/>
<path fill-rule="evenodd" clip-rule="evenodd" d="M72.3491 101.108C72.0405 100.939 71.8918 100.857 71.7476 100.777C71.4937 101.695 71.4308 101.743 70.6807 101.412C70.8786 101.873 71.0373 102.242 71.21 102.643C71.0141 102.756 70.8136 102.873 70.6111 102.991C70.2449 102.625 69.8734 102.253 69.4675 101.847C69.2231 102.397 69.8957 102.652 69.8295 103.183C69.226 103.267 68.876 102.857 68.5285 102.479C68.3388 102.273 68.236 101.985 68.0405 101.786C67.1691 100.901 66.3862 99.9449 65.6564 98.9425C65.5909 98.8526 65.5002 98.7806 65.4191 98.7027C64.9792 98.2831 64.5182 97.8776 64.4854 97.1938C64.9245 96.9249 65.1577 97.3391 65.4563 97.5955C65.7599 97.0931 65.0575 97.026 65.0889 96.6557C65.1159 96.2092 65.9654 96.7787 65.7496 96.0489H66.9727C67.3227 96.2954 67.6777 96.5393 68.0256 96.7924C68.3748 97.0463 68.6055 97.4112 69.033 97.6179C69.448 97.8192 69.723 98.2939 70.0883 98.6157C70.3265 98.8257 70.4777 99.1144 70.8583 99.2089C71.1338 99.2768 71.2808 99.6947 71.6992 99.6409C71.8156 99.6255 72.0256 99.836 72.0848 99.9855C72.1979 100.27 72.2327 100.586 72.3491 101.108" fill="black"/>
<path fill-rule="evenodd" clip-rule="evenodd" d="M64.5874 25.5581C64.9759 25.5838 65.2443 25.3829 65.5997 25.6393C65.4191 25.7014 65.2883 25.7465 65.1454 25.7958C65.2787 26.2486 65.427 26.6984 65.5359 27.1573C65.5637 27.2749 65.502 27.5073 65.4204 27.5417C64.9672 27.7331 64.8301 28.2206 64.4772 28.4877C64.3211 28.6062 64.0871 28.6447 63.8829 28.6679C63.7806 28.6791 63.66 28.5246 63.5577 28.5354C63.433 28.5486 63.3187 28.6576 63.1874 28.7321C62.9936 28.047 63.0035 28.0193 62.2401 27.7592C61.7833 27.6034 61.6884 27.1544 61.3645 26.8719C61.292 27.0264 61.222 27.1755 61.1438 27.3429C61.0298 27.2236 60.8381 27.1151 60.8385 27.0074C60.8443 25.6616 60.843 25.6314 60.2288 24.8249C59.8825 25.4334 60.5461 25.7855 60.5821 26.3807C60.4177 26.355 60.172 26.3741 60.1435 26.3041C59.8548 25.6024 59.4149 24.9397 59.8659 24.098C60.0059 23.8367 60.0312 23.6996 60.3456 23.6942C60.5394 23.6913 60.7478 23.5774 60.9205 23.468C61.3683 23.1851 61.7994 22.877 62.2778 22.551C62.3872 22.7142 62.4883 22.8654 62.4638 22.8285C62.8411 23.0915 63.2346 22.3832 63.2976 23.1218C63.3158 23.3313 63.7843 22.8314 63.7843 23.3802C63.7843 23.5923 64.174 23.8048 64.37 24.0007C64.3 24.1821 64.2337 24.3552 64.167 24.5284C64.2225 24.5669 64.278 24.6054 64.3339 24.6439C64.4321 24.4571 64.5303 24.2703 64.6541 24.0355C64.8558 24.3784 64.973 24.5768 65.1267 24.8374C64.9598 25.0602 64.7738 25.3092 64.5874 25.5581" fill="black"/>
<path fill-rule="evenodd" clip-rule="evenodd" d="M26.6178 59.2989C26.3577 58.9709 26.1518 58.7112 25.9232 58.422C25.8068 58.6602 25.7327 58.8114 25.6361 59.0086C25.2017 58.8048 24.9092 58.4684 24.6603 58.1176C24.1102 57.3418 23.6848 56.4861 23.1273 55.709C22.7844 55.2315 22.7641 54.6313 22.8995 54.01C23.4144 53.9056 23.5258 54.5107 23.9549 54.6636V53.5639C24.7659 53.4496 25.5475 53.3394 26.2641 53.2387C27.0159 53.9139 27.5108 54.6433 27.8617 55.4858C28.0621 55.9658 28.4751 56.3262 28.6006 56.8754C28.6503 57.0925 28.3719 57.3845 28.7145 57.546C28.7203 57.5485 28.6126 57.8128 28.6093 57.8115C28.0501 57.6098 27.8621 58.4208 27.324 58.2907C27.2892 58.282 27.194 58.49 27.1405 58.6039C27.0813 58.729 27.0548 58.8723 26.9819 58.9874C26.928 59.0736 26.8237 59.1274 26.6178 59.2989" fill="black"/>
<path fill-rule="evenodd" clip-rule="evenodd" d="M51.6375 72.9607C51.7991 73.3343 51.9167 73.6064 52.0849 73.9945C52.1917 73.7116 52.241 73.582 52.2932 73.4445C52.3438 73.4755 52.4266 73.4971 52.4374 73.5377C52.5393 73.9249 52.7232 74.2559 53.0028 74.55C53.1701 74.726 53.291 74.9526 53.4049 75.1709C53.6058 75.5573 53.8908 75.8212 54.3522 75.9032C54.4247 75.7565 54.4993 75.6049 54.5341 75.5345C54.7478 75.6944 54.9801 75.8688 55.1533 75.9984C55.1533 76.1393 55.1682 76.1997 55.1512 76.2109C54.9466 76.3439 54.7374 76.4694 54.5465 76.5862C54.602 76.8948 54.6517 77.1743 54.7267 77.5931C54.3883 77.4287 54.2031 77.3384 53.9364 77.2083C53.7885 77.5057 53.6402 77.8048 53.4807 78.1262C53.3291 78.1432 53.1514 78.1639 52.934 78.1883V78.6903C52.3665 79.1153 51.9022 79.0581 51.4101 78.6096C50.8742 78.1208 50.2699 77.7078 49.7231 77.1259C49.953 76.9739 50.175 76.8272 50.4186 76.6665C50.2943 76.2109 50.071 75.8042 49.7492 75.4065C49.4274 75.0085 49.2509 74.4924 49.0194 74.0442C49.3503 73.6362 49.6117 73.9382 49.9153 74.0658C49.9281 73.9519 49.9807 73.8305 49.9447 73.7485C49.7181 73.239 49.8163 72.9872 50.2964 72.9652C50.747 72.9441 51.1993 72.9607 51.6375 72.9607" fill="black"/>
<path fill-rule="evenodd" clip-rule="evenodd" d="M19.488 77.4273C19.6773 77.7073 19.8318 77.9363 20.0248 78.2217C20.075 78.0656 20.1437 77.9649 20.128 77.8808C20.0509 77.4729 19.9511 77.0694 19.8467 76.6092H20.5032C20.56 76.7273 20.6296 76.8719 20.7671 77.1581V76.2352C20.8955 76.1901 21.0048 76.1764 21.0815 76.1197C21.2567 75.9892 21.5342 75.693 21.5628 75.7162C21.8498 75.9523 22.2044 75.8098 22.4827 75.9167C22.8977 76.0758 23.2921 76.3533 23.2867 76.8826C23.285 77.0408 23.0754 77.2169 23.1069 77.3498C23.1326 77.4579 23.4225 77.482 23.5091 77.6042C23.5799 77.704 23.5857 77.9716 23.5128 78.03C23.22 78.2636 23.2846 78.5659 23.3045 78.8492C23.3298 79.203 23.1748 79.4179 22.8609 79.507C22.5254 79.6023 22.4471 79.8172 22.3767 80.1382C22.2769 80.5918 21.9658 80.8933 21.4398 80.871C21.2579 80.8635 21.0695 80.8677 20.893 80.9062C20.444 81.0043 19.8782 80.8966 19.7382 80.5674C19.3965 79.7638 18.9019 79.0046 18.9939 78.059C19.0299 77.6903 19.2519 77.5855 19.488 77.4273" fill="black"/>
<path fill-rule="evenodd" clip-rule="evenodd" d="M55.713 57.1049C55.9939 57.1874 56.2871 57.2731 56.6475 57.3787C56.8003 57.0146 56.8455 56.6651 56.5232 56.3399C56.9192 55.98 57.1826 56.5226 57.5707 56.4637C57.6068 56.2678 57.6453 56.0616 57.6826 55.8594C57.9866 55.5339 58.2608 56.1345 58.6282 55.8511C59.0039 55.5612 59.0987 56.1871 59.4181 56.2587C59.5974 56.2989 59.7652 56.4857 59.8932 56.6431C60.3173 57.1633 60.3836 57.8994 60.9548 58.3537C61.0914 58.4623 61.0185 58.8355 61.0492 59.1672C60.4159 58.8562 60.3774 59.861 59.7672 59.6229C59.5796 59.9265 59.7569 60.4769 59.0706 60.5428C58.9981 60.4194 58.8846 60.2259 58.723 59.9501C58.5855 60.2371 58.5188 60.3763 58.4505 60.5196C58.0661 60.6107 57.8901 60.2794 57.7637 60.0685C57.3442 59.3665 56.8007 58.8293 56.0978 58.4093C55.6654 58.1508 55.4281 57.7295 55.713 57.1049" fill="black"/>
<path fill-rule="evenodd" clip-rule="evenodd" d="M50.217 27.0934C49.6839 27.5109 49.2908 27.819 48.7834 28.2171H47.8345C47.465 27.6828 47.3449 26.9799 46.8002 26.5387C46.7431 25.7948 46.2286 25.3338 45.7817 24.8153C45.6396 24.65 45.6703 24.336 45.6098 24.0287C45.773 23.9831 45.9345 23.9864 46.019 23.9073C46.886 23.0967 47.7028 23.5524 48.3936 24.1053C48.9835 24.5771 49.4813 25.2013 49.8993 25.8367C50.1362 26.1966 50.13 26.7164 50.217 27.0934" fill="black"/>
</svg>
