<svg width="104" height="101" viewBox="0 0 104 101" fill="none" xmlns="http://www.w3.org/2000/svg">
<path fill-rule="evenodd" clip-rule="evenodd" d="M59.3066 84.0185C59.0134 83.8636 58.5507 83.6192 58.057 83.3582C58.1551 83.2029 58.2226 83.0956 58.3328 82.9212C58.2077 82.7792 58.0329 82.6383 57.9368 82.4565C57.8416 82.2755 57.8246 82.0535 57.7745 81.8526C57.6378 81.8062 57.5073 81.7619 57.3876 81.7213V81.2313C57.5392 81.1592 57.6929 81.0855 57.8863 80.9931C57.7844 80.7885 57.6921 80.6025 57.5827 80.3843C57.791 80.2521 57.9948 80.0127 58.1891 80.021C58.8431 80.0475 59.5212 79.8193 60.1537 80.1631C60.2427 80.212 60.3608 80.2211 60.466 80.2236C61.2302 80.2434 61.9803 80.2513 62.7486 80.4199C63.7034 80.6286 64.7111 80.5901 65.6936 80.6846C66.0428 80.7181 66.3824 80.8353 66.7295 80.9016C67.0414 80.9608 67.4092 80.7616 67.6615 81.1145C67.688 81.1518 67.8031 81.1311 67.8764 81.1286C68.7856 81.0992 69.638 81.3866 70.5153 81.5531C71.3176 81.7051 72.1257 81.8336 72.9168 82.0369C74.5459 82.4549 76.1948 82.7858 77.8015 83.3106C78.4224 83.5136 79.0686 83.726 79.7263 83.8524C79.9015 83.8859 80.049 84.0611 80.3994 84.3022H79.3146C79.3109 84.3482 79.3071 84.3946 79.303 84.4414C79.6799 84.5809 80.056 84.7209 80.4835 84.88C80.3957 85.0349 80.3124 85.1824 80.2383 85.3133C80.3157 85.4288 80.394 85.5448 80.5079 85.7142C80.1074 86.0004 79.7458 86.2593 79.3805 86.5202C79.327 86.3877 79.2748 86.2585 79.197 86.065C79.04 86.1359 78.8888 86.2034 78.7343 86.273C78.6059 86.2228 78.4485 86.1611 78.2911 86.0998C78.1321 86.0385 77.9722 85.9772 77.881 85.9424C77.6114 86.0137 77.3803 86.075 77.1823 86.1276C77.0005 85.9453 76.8671 85.8128 76.7345 85.6798C76.0668 86.1905 75.4617 85.5734 74.8218 85.5672C74.6917 85.5655 74.5633 85.4309 74.4332 85.4292C73.638 85.4185 72.8957 85.1753 72.1332 84.9906C71.4352 84.8208 70.6951 84.8307 69.9756 84.7404C69.5527 84.6874 69.1339 84.5983 68.7152 84.5172C68.2952 84.436 67.816 84.718 67.4448 84.3076C67.41 84.2691 67.3028 84.2972 67.2286 84.2922C66.0564 84.2173 64.883 84.1547 63.7125 84.0607C63.2515 84.0234 62.7992 83.8851 62.3381 83.8495C61.8523 83.8114 61.3598 83.8205 60.8723 83.8466C60.4117 83.8714 59.9536 83.9447 59.3066 84.0185" fill="black"/>
<path fill-rule="evenodd" clip-rule="evenodd" d="M22.4609 82.1234C22.038 81.8678 21.7373 81.6856 21.4453 81.5091C21.794 80.5627 21.794 80.5627 20.6608 80.0118C20.5278 80.1452 20.3949 80.2777 20.1886 80.4844C20.0962 80.3419 20.0038 80.199 19.8717 79.9952C20.2263 79.6602 20.2163 79.2331 19.8112 78.8359C20.1422 78.5426 20.4205 78.2962 20.7813 77.976C20.8969 77.9706 21.1499 77.9578 21.4146 77.9449C21.442 77.8174 21.4639 77.7142 21.4867 77.6074C21.543 77.5784 21.6051 77.5187 21.6669 77.5196C21.9962 77.5241 22.3022 77.3506 22.5918 77.3191C23.9218 77.1754 25.205 76.6717 26.5768 76.8204C26.9094 76.8564 27.3733 76.5147 27.585 76.6493C27.9486 76.88 28.1553 76.5628 28.4386 76.5992C28.8085 76.6468 29.1921 76.6402 29.5636 76.5992C29.7595 76.5777 29.9418 76.4348 30.1149 76.3536C30.2296 76.4588 30.3104 76.5333 30.3253 76.5466C31.0821 76.2939 31.7721 76.2977 32.6088 76.5843C32.6378 76.5661 32.7861 76.3958 32.9319 76.3979C34.0067 76.4136 35.0799 76.487 36.1544 76.4952C36.8225 76.5006 37.4906 76.4107 38.1595 76.3938C38.3559 76.3888 38.5547 76.4874 38.8049 76.5516C38.8222 76.5358 38.9014 76.4642 38.9767 76.3962C39.0621 76.4716 39.1441 76.5445 39.2377 76.6278C39.9191 76.2397 40.634 76.4049 41.3443 76.417C41.3443 76.5756 41.3443 76.6506 41.3443 76.726C41.1571 76.822 40.9703 76.9181 40.7603 77.0254C40.7131 76.984 40.6348 76.9148 40.5503 76.8399C39.7393 77.2677 38.8322 76.9604 37.9731 77.2271C38.2022 77.2478 38.4594 77.3435 38.6537 77.2706C38.932 77.1667 39.0931 77.6364 39.4088 77.3444C39.5243 77.2379 39.8569 77.3667 40.2363 77.4019C40.2247 77.4081 40.3689 77.3241 40.4981 77.2483C40.6232 77.3626 40.704 77.4367 40.7847 77.51C41.0258 77.1526 41.3841 77.3216 41.6956 77.3C41.8074 77.4123 41.9138 77.5187 42.0638 77.6683C41.8016 77.7196 41.573 77.7648 41.3443 77.8091C41.3464 77.8501 41.348 77.8903 41.3501 77.9309C41.6322 77.9516 41.9147 77.9719 42.3107 78.0004C42.1943 78.3765 42.0944 78.6984 41.9689 79.1039C40.9794 79.0053 39.9758 78.9046 39.1205 78.8193C38.792 79.1329 38.5795 79.3362 38.3869 79.5197C37.8659 79.3905 37.6695 78.9738 37.4251 78.6081C37.2591 78.7771 37.1278 78.9109 37.0271 79.014C36.6701 78.9515 36.3404 78.8935 36.0744 78.8471C35.8947 79.1349 35.7638 79.3445 35.6412 79.5409H34.8965C34.7875 79.6697 34.6674 79.8122 34.5378 79.9654H33.508C33.4733 79.8668 33.4277 79.736 33.3453 79.5011C32.8954 79.6336 32.439 79.7683 32.014 79.8938C31.7034 79.854 31.3985 79.7989 31.0912 79.7786C30.7917 79.7587 30.4165 79.6622 30.2065 79.8006C29.8904 80.0085 29.5893 79.9812 29.2679 80.001C28.939 80.0209 28.555 79.9517 28.2982 80.1C28.0576 80.2392 27.8554 79.9348 27.6003 80.1961C27.4417 80.3577 26.9831 80.226 26.6522 80.3867C26.8804 80.431 27.1091 80.4757 27.3882 80.5304C26.8083 80.9678 26.368 80.4612 25.8855 80.4235C25.3354 80.3809 24.9482 80.8125 24.4163 80.7909C24.5563 80.8593 24.6963 80.9272 24.8247 80.9897C24.7829 81.0361 24.7361 81.1264 24.6996 81.1223C24.5249 81.1028 24.3534 81.0535 24.1794 81.0229C23.9603 80.9839 23.7391 80.9533 23.5014 81.0316C23.6472 81.1016 23.7925 81.1712 24.0808 81.3095H22.9811C22.8018 81.5903 22.6518 81.8244 22.4609 82.1234" fill="black"/>
<path fill-rule="evenodd" clip-rule="evenodd" d="M23.2214 21.0886C23.4289 21.2207 23.6989 21.393 24.0233 21.6001C23.8257 21.6672 23.6948 21.712 23.5498 21.7612C23.5631 21.8122 23.5614 21.8971 23.5921 21.9108C23.8447 22.0263 24.1036 22.1278 24.3608 22.2338C24.073 22.6286 24.6321 22.9927 24.348 23.3319C24.167 23.5626 23.986 23.7929 23.7934 24.0381C22.7562 23.5564 21.6888 23.6521 20.6951 23.7933C19.9297 23.9027 19.1725 23.906 18.4146 23.9818C18.0314 24.0207 17.6814 24.3015 17.2668 24.1926C17.1065 24.1508 16.9553 24.0737 16.8 24.0133C16.554 24.6739 16.0105 24.6838 15.342 24.618C15.2521 24.3624 15.1598 24.1011 15.0922 23.9097C14.8151 23.6533 14.5716 23.4276 14.2696 23.1488C14.2286 23.2279 14.1321 23.4143 14.1139 23.4495C13.1397 23.643 12.3009 23.2913 11.5003 23.7718C11.4054 23.7022 11.292 23.6194 11.1693 23.5303C10.8169 23.616 10.4395 23.708 10.068 23.7991C9.96941 23.5941 9.89982 23.4479 9.80828 23.2569C9.74284 23.4371 9.69562 23.5672 9.61609 23.785C9.32864 23.7018 9.03497 23.6169 8.70361 23.5208C8.63982 23.6512 8.56692 23.8008 8.46544 24.0083C8.31343 23.9325 8.16225 23.8579 8.00319 23.7788C7.54385 24.1727 6.96272 23.8708 6.5216 23.9698C6.29959 23.8579 6.14923 23.7813 5.9732 23.6923C5.90402 23.8857 5.85722 24.0162 5.82201 24.1135C4.94805 24.2212 4.08941 24.3268 3.24651 24.4308C3.18686 24.594 3.13965 24.7244 3.07337 24.9063C2.98142 24.7174 2.91183 24.5737 2.83562 24.4167C2.34231 24.4038 2.24207 24.9386 1.82207 25.1258C1.5516 24.9717 1.24799 24.7986 0.936509 24.6213C0.917456 24.4179 0.900473 24.2398 0.881834 24.0456C0.568698 23.8882 0.00911243 24.0683 0 23.452C0.229882 23.2967 0.459349 23.1414 0.744319 22.9488C0.554201 22.8858 0.427041 22.8431 0.291183 22.7984C0.313136 22.3254 0.678462 22.1427 1.08935 21.9365C1.39254 21.9365 1.87343 22.0789 2.11657 21.8988C2.39201 21.695 2.6368 21.9456 2.90107 21.7389C3.14669 21.5471 3.60893 21.8453 3.93822 21.5272C4.03805 21.4303 4.35325 21.415 4.4655 21.4999C4.77491 21.7343 5.02882 21.4974 5.30509 21.4879C5.68077 21.475 6.05686 21.4846 6.43296 21.4846C6.77136 21.4846 7.19012 21.6109 7.43036 21.4572C7.87189 21.1752 8.31426 21.4324 8.75663 21.2899C9.19941 21.1478 9.73166 21.3123 10.2105 21.2435C10.6843 21.1756 11.1076 21.4431 11.6142 21.2899C12.0967 21.1445 12.6596 21.2878 13.1832 21.2505C13.6815 21.2145 14.1764 21.1196 14.6689 21.0294C15.1622 20.9395 15.6966 21.2447 16.17 20.8235C16.2959 20.7121 16.6062 20.8069 16.8319 20.8069C18.3359 20.8069 19.8402 20.7817 21.3434 20.8194C21.9498 20.8347 22.5533 20.9883 23.2214 21.0886" fill="black"/>
<path fill-rule="evenodd" clip-rule="evenodd" d="M57.3088 94.3124C56.9443 94.5348 56.7335 94.6632 56.5255 94.7896C56.8035 94.9088 57.1046 95.0385 57.4533 95.1884C57.3709 95.3922 57.3191 95.521 57.2384 95.7203C57.8307 96.2927 56.9488 96.605 56.8726 97.1787C56.3093 96.89 55.7655 96.6112 55.2001 96.3213C55.1761 96.3917 55.1334 96.5164 55.0609 96.7297C53.3109 96.3465 51.5187 96.185 49.7036 96.1092C49.9319 96.0645 50.1605 96.0201 50.3883 95.9754C50.3867 95.9402 50.3846 95.9054 50.3825 95.8702H48.6383C48.594 95.9928 48.5468 96.1229 48.4946 96.267H48.0386C47.2495 96.267 46.4575 96.2281 45.6714 96.2782C44.9511 96.3238 44.237 96.4646 43.3643 96.5855C42.9493 96.7786 42.4754 97.2855 41.6412 97.1339C41.5261 96.9948 41.3397 96.7699 41.1115 96.494C41.1417 96.4335 41.2051 96.3097 41.2693 96.1838C40.9396 95.6917 40.5925 95.1735 40.2793 94.7063C40.4549 94.1587 40.6099 93.6749 40.8054 93.064C41.3289 92.6162 42.1209 92.4671 42.883 92.4464C45.024 92.388 47.1675 92.4149 49.3097 92.4365C49.6925 92.4398 50.0739 92.5794 50.4567 92.651C50.8406 92.7227 51.2689 92.4924 51.6206 92.8523C51.6951 92.929 51.9064 92.8722 52.0542 92.878C53.2422 92.9232 55.5294 93.5681 56.8026 94.2101C56.8929 94.2552 57.0068 94.2532 57.3088 94.3124" fill="black"/>
<path fill-rule="evenodd" clip-rule="evenodd" d="M74.8252 20.9341C74.6545 20.9933 74.5237 21.0385 74.2896 21.1196C74.563 21.3234 74.7871 21.4908 75.0501 21.6867C74.9743 21.8056 74.8989 21.9232 74.8115 22.0599C74.9387 22.1204 75.0841 22.1904 75.2307 22.2608V22.5097C75.0882 22.5764 74.9354 22.6481 74.7825 22.7197C74.8604 22.8075 74.9296 22.8862 74.9987 22.9649C74.8016 23.0668 74.6152 23.1637 74.348 23.3021C72.7583 23.201 71.0618 23.5146 69.3714 23.1799C69.516 23.2495 69.6605 23.3191 69.8096 23.3911C69.1361 23.8658 68.5028 23.0722 67.843 23.3394C67.8264 23.3696 67.7933 23.4031 67.8003 23.421C67.8128 23.4533 67.8529 23.4731 67.8753 23.503C67.9122 23.5531 67.9441 23.6069 68.0621 23.7896C67.527 23.7026 67.0983 23.633 66.6033 23.5523C66.728 23.6964 66.7951 23.7738 66.863 23.8525C66.4919 24.2622 66.1671 23.6782 65.7128 23.7623C65.8134 23.8981 65.8652 23.9685 65.9563 24.0915C65.3777 24.2792 64.8193 24.5646 64.2386 24.6209C63.5751 24.6859 63.2756 25.3789 62.6783 25.3478C62.5566 25.8076 62.4489 26.2147 62.3341 26.6472H61.5322C61.4473 26.5627 61.2427 26.4488 61.2502 26.3506C61.3032 25.6141 60.4926 25.2575 60.5253 24.4875C60.5808 23.1733 61.1102 22.1543 62.3598 21.4908C63.23 21.0285 64.1458 20.7067 65.1395 20.5538C65.7119 20.466 66.2831 20.4085 66.8522 20.3285C67.4238 20.2482 67.9813 20.0999 68.5691 20.1243C69.1324 20.1475 69.6978 20.1293 70.2624 20.1293C70.8642 20.1293 71.4739 20.0696 72.0666 20.1438C72.8739 20.244 73.6704 20.4366 74.4657 20.6152C74.5912 20.6433 74.6864 20.8061 74.8252 20.9341" fill="black"/>
<path fill-rule="evenodd" clip-rule="evenodd" d="M49.426 65.7362H48.6569C48.5351 65.2192 48.4216 64.7379 48.299 64.2173H47.7763C47.3985 63.5902 48.1246 63.0832 47.8753 62.5468C48.2791 61.9582 48.8718 61.841 49.4712 61.6915C50.674 61.392 51.9125 61.3775 53.1182 61.1932C54.6462 60.9604 56.1585 60.9911 57.6624 61.0565C59.4775 61.1356 61.2987 61.3684 63.0483 61.9325C63.2115 61.9852 63.3436 62.1355 63.5371 62.2743C63.3623 62.3318 63.2351 62.3741 63.0939 62.4209C63.1026 62.471 63.0922 62.5501 63.1229 62.5717C63.3834 62.7593 63.651 62.937 63.9384 63.1325C63.8614 63.2265 63.7992 63.3027 63.7396 63.3756C63.8204 63.5177 63.9036 63.6639 63.9956 63.8271C63.7918 63.9224 63.6394 63.9936 63.4878 64.0649C63.5656 64.1547 63.6331 64.2322 63.7052 64.315C63.2123 64.53 62.8259 64.7578 62.1984 64.4588C61.5812 64.1643 60.7793 64.2202 60.0557 64.1945C59.0028 64.1572 57.9474 64.1962 56.8933 64.1796C56.4658 64.173 56.0284 64.2881 55.6159 63.9795C55.4672 63.8681 55.1441 63.9895 54.8537 64.0077C54.9813 64.156 55.0484 64.2334 55.2013 64.4111C54.6678 64.4111 54.2237 64.4422 53.7863 64.4012C53.4181 64.3668 53.0573 64.2492 52.5301 64.132C52.7189 64.3585 52.7827 64.4352 52.8755 64.5466C52.3424 64.7835 51.85 64.5818 51.2042 64.3072C51.3682 64.5789 51.4275 64.6762 51.5579 64.8928C51.1168 64.7996 50.7668 64.7263 50.3062 64.6294C50.4603 64.8121 50.5249 64.8887 50.6484 65.0353C50.365 65.0627 50.1281 65.0859 49.8369 65.114C49.7118 65.3037 49.5602 65.5332 49.426 65.7362" fill="black"/>
<path fill-rule="evenodd" clip-rule="evenodd" d="M36.4497 63.6951C36.3022 63.5476 36.1958 63.4412 36.002 63.2473C35.9361 63.4615 35.8698 63.6765 35.8578 63.7158C35.1379 63.6073 34.6587 63.5352 34.0092 63.4379C34.1882 63.6694 34.2445 63.7427 34.3447 63.8732C34.2201 63.9126 34.112 63.9473 34.0026 63.9821C33.9123 63.7991 33.8378 63.6487 33.7118 63.3936C33.5594 63.6019 33.4509 63.7506 33.3345 63.9101C32.5889 63.8355 31.8078 63.7576 31.0763 63.6852C31.0005 63.8082 30.9653 63.8417 30.9719 63.86C30.9839 63.8923 31.0245 63.9121 31.0469 63.942C31.085 63.9921 31.1181 64.0463 31.2345 64.2191C30.5602 64.1159 29.9865 64.0281 29.2641 63.9171C29.4489 64.135 29.5147 64.212 29.5806 64.2899C29.142 64.6705 28.734 64.2385 28.1984 64.1441C28.3227 64.3524 28.3802 64.4485 28.454 64.5728C27.9205 64.8478 27.4375 64.1031 26.8991 64.5223C27.0424 64.5918 27.1836 64.661 27.3961 64.765C26.9732 64.8573 26.6091 64.9365 26.0777 65.052C25.562 64.8143 25.1503 64.3094 25.0219 63.5302C24.8533 63.5174 24.6756 63.5042 24.4018 63.4839C24.4395 63.22 24.4768 62.962 24.5278 62.6103C24.5315 62.6153 24.447 62.5043 24.3774 62.4127C24.43 62.3017 24.4462 62.2259 24.4913 62.1779C25.1283 61.5052 25.8536 61.1034 26.8249 60.9738C27.4346 60.8922 28.0688 60.9282 28.6495 60.775C29.9699 60.4266 31.2987 60.6134 32.6221 60.5782C33.9372 60.543 35.2547 60.5372 36.5694 60.5807C37.5763 60.6147 38.5116 60.9315 39.3296 61.5599C39.234 61.6643 39.1598 61.745 39.0786 61.8337C39.0815 62.2537 39.4154 62.3349 39.7542 62.4604C39.6904 62.542 39.6328 62.6157 39.5276 62.7499C39.6917 62.8609 39.8698 62.9814 40.006 63.0738C39.8814 63.3041 39.7989 63.4553 39.685 63.6657C39.538 63.7402 39.3205 63.8513 39.1051 63.961C38.2656 63.4818 37.3543 63.8703 36.4497 63.6951" fill="black"/>
<path fill-rule="evenodd" clip-rule="evenodd" d="M53.836 1.95079C53.7868 2.28298 53.7557 2.49091 53.7234 2.71044C53.3042 2.38694 52.9426 3.01032 52.4402 2.53937C52.465 2.61766 52.4245 2.48967 52.3714 2.3215H51.6201C51.5091 2.45736 51.3753 2.62097 51.1847 2.85375C51.0949 2.59777 51.0489 2.4673 50.9818 2.27718C50.7958 2.28712 50.5916 2.29789 50.3245 2.31239C50.462 2.46481 50.5328 2.54434 50.6579 2.68351C50.329 2.71209 50.0473 2.73653 49.7806 2.76014C49.7524 2.80902 49.7185 2.84257 49.7251 2.86079C49.7375 2.89268 49.7781 2.91257 49.8001 2.9428C49.8378 2.99292 49.8701 3.04677 49.916 3.11635C48.9485 3.42949 48.048 2.69055 47.01 3.03558C47.0672 3.1176 47.1289 3.20623 47.2473 3.37647C46.9388 3.37647 46.578 3.48541 46.4144 3.35245C46.129 3.1205 45.8155 3.12091 45.5781 3.20251C44.601 3.53925 43.5311 3.39718 42.571 3.84038C42.3295 3.95221 41.9638 3.79481 41.6055 3.75547C41.3934 4.11002 41.154 4.2376 40.4122 4.2757C40.5978 4.06032 40.7386 3.89629 40.9312 3.67263H40.2892C40.2457 3.43446 40.208 3.22777 40.167 3.0041C39.962 2.97221 39.7549 2.94032 39.5449 2.9076C39.6422 2.49008 39.73 2.11357 39.8327 1.67245C40.3662 1.28268 41.0753 1.09132 41.7497 0.808424C42.1958 0.62162 42.7396 0.949667 43.0776 0.473336C43.836 0.397951 44.5998 0.355702 45.3524 0.241383C47.9457 -0.153765 50.556 0.112566 53.1551 0.000731975C53.5879 -0.0179071 54.0088 0.328365 54.4354 0.021442C54.8156 0.489489 55.4055 0.0993119 55.8685 0.386353C56.2355 0.61375 56.7321 0.633217 57.2689 0.769489C57.0084 0.891679 56.8556 0.963336 56.6696 1.05032C56.805 1.52292 57.3352 1.45831 57.5808 1.74908C57.4487 1.80292 57.3199 1.85552 57.1915 1.90771C57.2714 2.05186 57.3505 2.19476 57.4317 2.34055C57.0258 2.60399 56.6369 2.69428 56.2045 2.76511C55.7869 2.83345 55.422 2.38736 55.0273 2.71913C54.6748 2.49215 54.3223 2.26434 53.836 1.95079" fill="black"/>
<path fill-rule="evenodd" clip-rule="evenodd" d="M45.0073 13.5509C44.84 13.8209 44.7663 13.9394 44.688 14.0657C44.956 14.2467 45.1846 14.4012 45.417 14.5582C45.3549 14.6332 45.3114 14.6862 45.2335 14.781C45.2857 14.8962 45.3652 15.0312 45.4062 15.1774C45.4352 15.2806 45.412 15.3982 45.412 15.5751C45.0918 15.7474 44.7534 15.9292 44.5592 16.034C43.9888 16.1293 43.7672 15.455 43.3004 15.8016C42.9032 15.3767 42.5321 15.8186 42.1485 15.8277C41.096 15.8534 40.0415 15.8613 38.9902 15.8232C38.6108 15.8095 38.2368 15.6447 37.8384 15.5432C37.7729 15.7341 37.7282 15.8654 37.683 15.9963C37.3819 16.3194 37.1135 15.7341 36.732 15.9922C36.4715 16.1678 36.008 16.0879 35.6423 16.051C35.3072 16.0174 34.9808 15.889 34.5131 15.766C34.649 16.0075 34.7049 16.1073 34.8329 16.3343C33.9772 16.1413 33.1918 16.5045 32.3916 16.0895C32.0739 15.9247 31.5997 16.0622 31.1888 16.227C31.5615 16.266 31.9343 16.3049 32.3071 16.3438C32.3055 16.3799 32.3042 16.4163 32.303 16.4523H30.7646C30.6706 16.3496 30.4805 16.1417 30.3281 15.9752C30.4051 15.7867 30.4668 15.6355 30.5443 15.4446C30.3624 15.4073 30.2593 15.3862 30.1048 15.3543C30.0746 15.1779 30.0389 14.9712 30.0042 14.769C29.8637 14.7193 29.7333 14.6734 29.6032 14.6278V14.0653C30.3467 14.0425 31.1047 14.0189 31.8627 13.9953C31.8631 13.9427 31.8631 13.8905 31.8631 13.8383H29.9458C29.6591 13.4183 30.0592 13.1495 30.1471 13.1644C30.6184 13.2456 30.9692 12.9047 31.4079 12.8923C33.4834 12.8331 35.5578 12.7448 37.6325 12.6765C38.1962 12.6579 38.762 12.65 39.3245 12.6786C40.4975 12.7374 41.6768 12.766 42.8386 12.9209C43.5527 13.0157 44.2394 13.3197 45.0073 13.5509" fill="black"/>
<path fill-rule="evenodd" clip-rule="evenodd" d="M14.4331 3.9409C13.9427 4.16996 13.5703 4.34434 13.1959 4.51913C13.063 4.38576 12.93 4.2528 12.7457 4.06848C12.6964 4.21055 12.657 4.32321 12.5986 4.49138H11.5776C11.5474 4.37623 11.5209 4.27434 11.4741 4.09664C11.2603 4.16209 11.1684 4.3696 10.9762 4.51167H10.2331C10.1913 4.39363 10.1445 4.26274 10.0583 4.02043C9.98792 4.20889 9.94816 4.31368 9.90011 4.4425C9.33266 4.68564 8.71053 4.80865 8.04408 4.78008C7.73923 4.76765 7.42775 4.90931 7.11378 4.98262C7.04337 4.918 6.96384 4.84552 6.88846 4.77635C6.80189 4.85256 6.71988 4.92587 6.60556 5.02735C6.33301 4.88694 6.05425 4.74321 5.84053 4.63303C5.49798 4.69516 5.1923 4.75067 4.84272 4.81363C4.79301 4.65209 4.75325 4.52368 4.7052 4.36712C4.0723 4.3257 3.63656 3.89368 3.15319 3.53374C3.24928 3.43765 3.32881 3.35812 3.48828 3.19824H4.48029C4.48567 3.15599 4.49106 3.11374 4.49603 3.07108C4.1278 2.96339 3.75917 2.85528 3.30644 2.72274C3.49242 2.52392 3.58934 2.4212 3.72106 2.28079C4.66171 2.28079 5.63508 2.2957 6.60804 2.27457C7.10922 2.26339 7.6336 2.40836 8.09999 2.06084C8.34313 1.87942 8.60408 2.39221 8.83562 2.12629C9.09863 1.82434 9.27633 2.44812 9.57579 2.13209C9.69881 2.00203 10.1089 2.16647 10.3868 2.15611C10.7542 2.14327 11.1199 2.06084 11.4865 2.0596C13.9332 2.05049 16.3815 2.10268 18.8261 2.03392C19.9979 2.00161 21.1639 1.75434 22.3464 1.82889C22.841 1.48179 23.3832 1.64084 23.9403 1.5957C23.7394 2.26712 23.1628 1.94073 22.5772 2.22321C23.2461 2.26008 23.6744 2.2841 24.2919 2.31848C24.0119 2.4709 23.8637 2.55209 23.652 2.66765C23.773 2.82753 23.886 2.96049 23.9792 3.10629C24.0654 3.24132 24.13 3.3896 24.2882 3.69487C23.9722 3.53333 23.8334 3.46209 23.6176 3.35108C23.5451 3.52712 23.4843 3.67499 23.4196 3.83155C23.3061 3.76611 23.1935 3.7015 23.0332 3.60871C22.9375 3.67457 22.8219 3.75451 22.6977 3.84025C22.6347 3.78351 22.556 3.71144 22.4769 3.63978C22.3456 3.77108 22.2122 3.90404 22.0631 4.05315C21.8324 3.93428 21.5955 3.81209 21.3362 3.67871C21.2811 3.79303 21.2111 3.93676 21.1424 4.07842C21.0608 4.08215 20.987 4.08546 20.8802 4.09002C20.8383 3.96948 20.7936 3.84108 20.736 3.67457H20.1793C20.1487 3.7628 20.1031 3.8941 20.0282 4.11197C19.7121 4.03824 19.3866 3.96244 19.0577 3.8854C19.0043 4.01919 18.9529 4.14883 18.8709 4.35386C18.7002 4.09457 18.5553 3.87422 18.4148 3.66049C18.2757 3.87794 18.1274 4.10948 18.0093 4.2938C17.4166 4.41185 17.2058 4.10493 17.0886 3.57475C16.9113 3.82203 16.7783 4.00718 16.5895 4.27061H15.6629C15.6376 4.19481 15.5941 4.06558 15.5399 3.90528H15.1041C15.2156 4.037 15.2802 4.11445 15.3469 4.19274C15.1803 4.44457 14.9057 4.35925 14.4331 3.9409" fill="black"/>
<path fill-rule="evenodd" clip-rule="evenodd" d="M69.2159 76.5758C69.0966 76.8226 68.9777 77.0687 68.8087 77.4199C68.7313 77.19 68.6977 77.091 68.6314 76.8955C68.4119 76.7663 67.9165 76.8951 67.7964 76.4909C67.7355 76.2858 67.8594 76.0257 67.9058 75.7548C67.709 75.6654 67.424 75.5357 67.0612 75.3709C67.1179 74.7943 67.1768 74.1904 67.2455 73.4896C67.2613 73.5074 67.1884 73.4249 67.0235 73.2385C67.301 73.2895 67.4742 73.3218 67.7198 73.3665C67.743 73.1681 67.7745 72.9059 67.82 72.5203C68.3622 72.2867 68.9578 71.993 69.58 71.7719C70.2153 71.5465 70.9514 71.5693 71.5371 71.3183C72.211 71.0288 72.9636 71.5267 73.5434 70.972C73.618 71.0408 73.6988 71.1154 73.7791 71.1895C74.5843 70.7728 75.443 71.04 76.4747 70.9323C76.29 71.1402 76.2171 71.2222 76.1455 71.303C76.2155 71.3817 76.285 71.46 76.4408 71.6356C75.7437 71.5913 75.1282 71.8166 74.5512 71.4094C73.9055 71.7346 73.2311 71.928 72.4872 71.8725C71.6153 71.8071 70.8122 72.0854 69.8865 72.4569C70.1901 72.6852 70.3959 72.8401 70.625 73.0124C70.6726 72.8732 70.7174 72.7419 70.7617 72.611C70.8275 72.5887 70.8921 72.5572 70.9601 72.546C71.4546 72.4623 71.9508 72.6537 72.4653 72.3488C72.8327 72.1314 73.415 72.4851 73.8239 72.0949C73.8433 72.0763 73.8968 72.0949 73.9345 72.0925C74.9948 72.0171 76.0543 71.9255 77.1159 71.8762C77.4274 71.8622 77.7903 71.73 78.0537 72.0709C78.0976 72.1277 78.2844 72.1277 78.3743 72.0862C79.4102 71.6161 80.5008 71.9819 81.5582 71.8684C81.6701 71.8559 81.784 71.8667 81.9012 71.8667C82.0308 71.9984 82.1626 72.1322 82.3316 72.3041H83.6616C83.8305 72.4545 83.9407 72.553 84.0778 72.6756C83.9163 72.7316 83.7854 72.7771 83.5862 72.8463C83.8252 73.0012 84.0343 73.1375 84.3371 73.3346C83.9254 73.6325 83.563 73.8942 83.2237 74.1398C82.6095 73.9501 82.1079 73.2883 81.4303 73.8872C81.2571 73.4759 81.0952 73.0468 80.4701 73.2758C80.4561 73.362 80.4399 73.4643 80.4229 73.5699C80.5816 73.6469 80.7269 73.7169 80.8901 73.7952C80.7974 73.84 80.7369 73.8764 80.6714 73.8988C80.2659 74.038 79.9487 73.364 79.4616 73.8193C79.1588 74.1013 78.6555 73.9125 78.2239 74.0756C77.6747 74.2827 76.9888 74.1258 76.1028 74.1258C76.5129 73.9344 76.6632 73.864 76.9594 73.7256H75.7313C75.7992 73.9042 75.8638 74.0752 75.9545 74.3151H74.5943C74.3056 74.4625 74.1548 74.54 73.9021 74.6692C74.0351 74.4725 74.4775 74.0392 74.5491 74.0003C74.1155 73.6714 73.8313 74.1502 73.42 74.1887C73.5016 74.2914 73.56 74.366 73.6814 74.5201C73.1827 74.6187 72.7196 74.723 72.252 74.8001C71.8759 74.8614 71.5942 75.0316 71.3647 75.4085C71.1618 75.3493 70.9489 75.2872 70.6991 75.2147C70.1826 75.6123 69.669 76.0083 69.1554 76.4043C69.1753 76.4619 69.1956 76.5186 69.2159 76.5758" fill="black"/>
<path fill-rule="evenodd" clip-rule="evenodd" d="M20.4291 47.8143C20.5571 47.8777 20.6847 47.9415 20.8123 48.0052C20.7945 48.0512 20.7771 48.098 20.7593 48.1444C20.3923 48.1444 19.9367 48.009 19.679 48.1767C19.3183 48.4124 19.1058 48.0893 18.8291 48.1436C18.4791 48.2115 18.137 48.079 17.7588 48.2977C17.4121 48.4981 16.906 48.4849 16.5845 48.1871C16.2308 48.2538 15.9177 48.3006 15.6107 48.3735C15.3336 48.4393 15.0677 48.8411 14.7861 48.3826C14.5653 48.7533 14.3226 48.5611 14.0815 48.4095C13.8239 48.7491 13.4581 48.557 13.1421 48.5893C12.8443 48.6199 12.5374 48.5681 12.2404 48.6025C11.8171 48.6518 11.376 48.6862 10.9841 48.8365C10.4324 49.0478 9.86329 49.0515 9.28796 49.1265C9.91755 49.3539 10.6072 49.392 11.1792 49.2126C11.586 49.0851 11.9604 49.0996 12.3485 49.0499C12.9197 48.9774 13.459 48.7723 14.0616 48.7968C14.5902 48.8183 15.1783 49.0445 15.6729 48.6257C15.916 48.8316 16.0891 48.8626 16.4015 48.6311C16.6011 48.4828 17.0671 48.5715 17.35 48.697C17.5815 48.7993 17.828 48.5168 18.0342 48.808C18.0976 48.897 18.4203 48.8838 18.5744 48.8117C19.3866 48.4302 20.2026 48.5648 21.0306 48.7164C21.1619 48.7404 21.3205 48.5909 21.4589 48.6038C22.3771 48.6899 23.3103 48.4062 24.2228 48.7371C24.3699 48.7902 24.5857 48.6112 24.7725 48.6029C25.2608 48.5822 25.7525 48.6232 26.2396 48.5897C26.9396 48.5412 27.601 48.6584 28.3971 49.0051C27.8873 49.0325 27.5302 49.0519 27.1728 49.0714L27.1363 49.1795C27.2328 49.211 27.3273 49.2507 27.4258 49.2719C27.529 49.2934 27.6354 49.2971 27.7713 49.312C27.6553 49.5461 27.5555 49.7474 27.4552 49.9487C27.3625 49.8658 27.2809 49.7925 27.1628 49.6873C27.0236 49.7619 26.877 49.8406 26.6368 49.9694C26.691 49.6434 26.7341 49.3862 26.7884 49.0635C26.7631 49.0383 26.6567 48.9318 26.5655 48.8407C26.0685 48.9405 25.5847 49.0383 25.0748 49.1406C25.1809 49.2549 25.2761 49.3572 25.3656 49.4533C25.5441 49.3825 25.716 49.3137 25.8755 49.2503C26.2023 49.7979 25.6236 49.6703 25.489 49.8617C25.5752 50.0402 25.646 50.1864 25.7661 50.4345C25.5698 50.3803 25.3515 50.3637 25.342 50.3103C25.2505 49.7954 24.9568 49.6413 24.4767 49.7615C24.4258 49.8932 24.3757 50.0224 24.2671 50.3012C24.1052 49.9275 23.9909 49.6637 23.8492 49.3373C24.1818 49.2889 24.3893 49.2586 24.5964 49.2288C24.5985 49.1828 24.6006 49.1364 24.6031 49.0909C24.2692 49.0718 23.9349 49.0528 23.5241 49.03C23.5651 49.1538 23.5899 49.2296 23.6438 49.3928C23.5907 49.5154 23.5017 49.72 23.3977 49.9603C22.8531 49.8923 22.2761 50.0854 21.6237 49.7291C21.7293 49.993 21.7985 50.1649 21.8801 50.3695H21.2919C21.1793 50.0415 21.0546 49.6786 20.9229 49.2947H20.5882C20.6739 49.4955 20.7464 49.6658 20.8222 49.8439C20.3968 49.9507 20.0253 50.0444 19.5635 50.1603C19.4425 50.0568 19.2582 49.8994 19.0718 49.7395C18.9326 50.0348 18.7993 50.3186 18.6506 50.635C18.5715 50.4731 18.5019 50.3306 18.4306 50.1852C18.1063 50.8069 17.5993 50.9473 16.942 50.8028C17.0505 50.6184 17.1354 50.4739 17.2808 50.2262C16.8989 50.2047 16.6214 50.1881 16.3008 50.1699V50.8272C15.3821 50.9419 14.4928 51.0525 13.5973 51.1644C13.5588 51.2778 13.5136 51.4091 13.4474 51.603C12.8004 51.1221 12.0801 51.3731 11.3904 51.2944C11.3225 51.1544 11.2525 51.0115 11.1614 50.8251C11.0951 51.0053 11.0471 51.1358 10.9986 51.2671C10.8524 51.1946 10.7066 51.1221 10.4726 51.0057C10.4283 51.2654 10.3939 51.4638 10.3806 51.5421C10.0045 51.9633 9.69222 52.3129 9.35507 52.6907C9.28796 52.5113 9.23909 52.3809 9.18359 52.2318C9.03116 52.4558 8.88329 52.6737 8.72962 52.9003C8.38708 52.4248 8.11702 51.9687 8.64015 51.4883C8.49187 51.3325 8.38998 51.2252 8.28187 51.1122C8.16879 51.1772 8.05654 51.2418 7.87554 51.3466C7.76288 51.2497 7.62992 51.1354 7.45057 50.9813C7.50731 50.2974 7.29566 49.5577 7.7314 48.8995C8.59708 48.32 9.63424 48.3983 10.5786 48.1299C11.5984 47.84 12.6239 47.946 13.6499 47.9199C13.908 47.9133 14.1349 47.9195 14.3648 47.7124C14.4895 47.5997 14.8105 47.6494 15.0201 47.7074C15.1618 47.7464 15.252 48.0144 15.4235 47.7451C15.9247 47.9158 16.3994 47.6134 16.9097 47.6755C17.5032 47.7476 18.1121 47.6921 18.7139 47.6921H20.4076C20.4147 47.7331 20.4221 47.7733 20.4291 47.8143" fill="black"/>
<path fill-rule="evenodd" clip-rule="evenodd" d="M40.4184 32.8958V32.3784C40.1918 32.3436 39.9847 32.3122 39.6848 32.2662C39.8265 32.0255 39.9296 31.8503 39.9615 31.7965C40.6234 31.2568 41.2232 32.4451 41.6539 31.7169C42.1191 31.7816 42.4649 31.8694 42.8108 31.871C45.6692 31.8822 48.5276 31.8507 51.3856 31.8905C52.5188 31.9066 53.6504 32.0711 54.8591 32.1746L55.1035 32.419C55.0604 32.4642 55.0177 32.5491 54.9742 32.5495C54.0717 32.5574 53.1691 32.5536 52.2662 32.5565C52.0914 32.5574 51.9162 32.5752 51.7406 32.6535C52.1626 32.8336 52.6025 32.7678 53.0337 32.7785C53.4848 32.7897 53.9404 32.7429 54.3865 32.7922C54.7907 32.8374 55.1838 32.9778 55.7061 33.107C55.439 33.2023 55.3081 33.2491 55.0678 33.3348C55.277 33.4226 55.4091 33.4785 55.5645 33.544C55.5707 33.679 55.5773 33.8244 55.5844 33.9826C55.3847 34.1085 55.1979 34.2821 54.9784 34.3492C54.7721 34.4122 54.5298 34.3807 54.3061 34.3587C53.8509 34.3144 53.3605 34.5124 52.9467 34.1703C52.5288 34.5563 52.0226 34.3165 51.5587 34.3542C51.0733 34.3931 50.5816 34.3624 50.0187 34.3624C49.9177 34.4995 49.7851 34.6797 49.6385 34.879C49.351 34.7936 49.1195 34.7245 48.7513 34.6147C48.7277 34.63 48.5769 34.8069 48.4369 34.7986C48.009 34.7733 47.5803 34.9146 47.1454 34.6545C46.7022 34.3898 46.182 34.7033 45.6651 34.6251C44.7899 34.4921 43.8799 34.5886 43.0046 34.5886C42.9392 34.7737 42.8932 34.9046 42.8386 35.0595C42.7197 35.0272 42.5925 35.0297 42.5254 34.9676C42.2558 34.717 42.0217 34.3914 41.567 34.698C41.7268 34.7737 41.8739 34.8437 42.059 34.932C41.4771 35.1966 40.9891 34.9804 40.4681 34.746C40.4536 34.5861 40.4378 34.408 40.4221 34.2303C40.2891 34.0969 40.1562 33.964 40.0054 33.8136C40.0663 33.7395 40.128 33.6637 40.2254 33.5448C39.9967 33.3994 39.7681 33.2536 39.486 33.0743C39.6036 32.9011 39.7217 32.7272 39.8323 32.5644C40.0042 32.6617 40.1508 32.7446 40.4184 32.8958" fill="black"/>
<path fill-rule="evenodd" clip-rule="evenodd" d="M21.8764 36.0961C21.7468 36.1454 21.6167 36.1947 21.4229 36.2684C21.5579 36.415 21.6664 36.5322 21.7745 36.6499C21.8884 36.536 21.9414 36.483 22.0206 36.4038C22.1444 36.6424 22.2637 36.8723 22.3743 37.0848C22.2674 37.294 22.1726 37.4795 22.0661 37.6887C21.7675 37.7777 21.432 37.9633 21.0977 37.9608C20.22 37.9546 19.3995 38.1232 18.5678 38.4036C18.1113 38.5577 17.5517 38.3556 17.0903 38.6554C16.1994 38.5101 15.3614 38.9483 14.475 38.8903C14.258 38.8762 13.9884 39.0779 13.8231 39.0034C13.5124 38.8625 13.3459 39.1972 13.0593 39.1243C12.8344 39.0667 12.5291 39.0063 12.3514 39.295C11.4054 39.2602 10.5509 39.703 9.62351 39.8123C8.83736 39.9047 8.07895 40.2352 7.40629 40.4319C7.19008 40.7347 7.03144 40.9576 6.85789 41.2007C6.71085 41.1133 6.58741 41.0818 6.53854 41.004C6.33599 40.6801 6.15665 40.3429 5.96528 40.0045H5.42475C5.46286 39.7274 5.49807 39.4698 5.54694 39.1123C5.55398 39.121 5.46617 39.015 5.40238 38.9379C5.63268 38.1928 6.29954 38.0979 6.8028 38.0126C7.68132 37.8631 8.51842 37.557 9.42718 37.4841C10.4159 37.4037 11.4083 37.1867 12.3953 37.0247C12.9719 36.9303 13.541 36.8462 14.1147 36.8636C14.4357 36.8735 14.6569 36.6855 14.9269 36.6362C15.2546 36.5761 15.6017 36.6225 15.9401 36.6217C16.24 36.6205 16.7246 36.7265 16.8041 36.5927C17.017 36.2353 17.3384 36.7721 17.49 36.4328C17.512 36.3835 17.695 36.4059 17.8036 36.396C18.3404 36.3475 18.866 36.4432 19.4169 36.2025C19.8849 35.9979 20.4859 36.2792 21.014 35.9652C21.2294 35.8372 21.5844 35.9441 21.876 35.9441C21.8764 35.9946 21.8764 36.0451 21.8764 36.0961" fill="black"/>
<path fill-rule="evenodd" clip-rule="evenodd" d="M74.2431 61.2228H73.469V60.4802C73.3294 60.3484 73.2316 60.2287 73.1078 60.1475C73.0254 60.0933 72.9065 60.0949 72.7777 60.0655V58.6626C73.1492 57.7775 73.9461 57.2249 74.7919 56.732C75.8796 56.0983 77.0394 55.5826 78.236 55.2426C79.1116 54.9941 80.0163 54.7725 80.9445 54.6499C81.7087 54.5492 82.4861 54.5931 83.2222 54.4382C83.8716 54.3011 84.4896 54.2257 85.1544 54.2617V54.7049H83.8414C83.8397 54.758 83.8385 54.811 83.8368 54.864H85.328C85.2576 55.1767 85.2576 55.1767 85.1718 55.2699C85.328 55.3445 85.4821 55.4178 85.7165 55.53C85.4837 55.8063 85.277 56.0515 85.1697 56.1787C84.3186 56.44 83.5556 56.4081 82.8436 56.6819C82.3755 56.8625 81.8048 56.5345 81.3757 56.9553C79.7445 57.1583 78.3135 57.9096 76.865 58.608C76.4868 58.7898 76.1464 59.0512 75.7699 59.2371C75.0438 59.595 74.5844 60.1277 74.4987 60.9565C74.4896 61.0439 74.3483 61.1172 74.2431 61.2228" fill="black"/>
<path fill-rule="evenodd" clip-rule="evenodd" d="M92.5999 93.3299C92.6172 93.4919 92.6247 93.5635 92.6404 93.7155C92.0548 93.8845 91.4186 93.6998 90.8279 93.9607C91.1071 93.9765 91.3862 93.9984 91.6658 94.0059C91.962 94.0133 92.2581 94.0075 92.5241 94.0075C92.6545 94.1455 92.7527 94.249 92.8707 94.3741C92.7162 94.4292 92.5854 94.4764 92.3472 94.5617C92.5555 94.65 92.6881 94.7059 92.9035 94.7974C92.826 95.0468 92.7461 95.3044 92.6641 95.5678C91.7197 95.6842 90.8606 95.7899 89.9539 95.9017C89.9444 95.9485 89.9233 96.0516 89.8839 96.2446C89.4283 96.1788 88.9532 96.0806 88.4736 96.0487C87.9488 96.0139 87.4203 96.0409 86.8814 96.0409C86.7265 96.1879 86.5658 96.3416 86.4059 96.494C86.0136 96.5205 85.6607 96.3084 85.2225 96.4555C84.9226 96.5561 84.5047 96.3051 84.0677 96.3904C84.2057 96.4621 84.344 96.5346 84.6182 96.6779H83.0844C82.8529 96.8933 82.6702 97.0639 82.4329 97.2847C82.1943 96.9943 82.0091 96.7682 81.8493 96.5739C81.7499 96.2948 81.6558 96.0317 81.561 95.7671C81.6272 95.6598 81.6944 95.5509 81.7933 95.3906H81.0093C80.7222 94.9909 80.9161 94.737 81.187 94.4951C81.4583 94.4644 81.7358 94.4338 82.0133 94.4031L82.0116 94.2743C81.73 94.2519 81.4483 94.2291 81.1281 94.203C81.1281 94.0788 81.0846 93.938 81.1352 93.8812C81.491 93.4823 81.935 93.3196 82.483 93.322C85.8314 93.3378 89.1798 93.3299 92.5999 93.3299" fill="black"/>
<path fill-rule="evenodd" clip-rule="evenodd" d="M41.3026 51.0219C41.3652 50.5737 41.4144 50.2237 41.4869 49.7068C41.5321 49.6729 41.733 49.5204 42.0573 49.2744C43.6996 48.8366 45.5602 49.1178 47.4042 49.052C47.7973 49.0383 48.1676 49.0822 48.564 49.24C48.9533 49.3949 49.4628 49.216 49.9006 49.2914C50.2668 49.3552 50.5965 49.6029 50.9589 49.718C51.3275 49.8348 51.7438 49.8278 52.088 49.9868C52.4608 50.1591 52.7743 50.4603 53.1239 50.7121C53.0154 50.8206 52.9624 50.8736 52.9334 50.9026C53.1376 51.3102 53.336 51.7049 53.5381 52.1084C53.3592 52.2823 53.172 52.465 52.9255 52.7056C52.0341 52.4459 51.038 52.3647 50.1715 51.7733C49.7846 51.9153 49.3783 52.2148 48.9107 51.7898C48.8208 51.7087 48.5064 51.8296 48.3192 51.9116C48.0102 52.0479 47.753 52.0553 47.5492 51.7186C47.0389 51.9476 46.5911 52.0392 46.0046 51.8458C45.3999 51.6465 44.6783 51.8019 43.9875 51.8019C43.5911 52.0897 43.1603 52.4033 42.703 52.7359C42.3447 52.4049 41.9376 52.2119 42.0034 51.6445C42.0233 51.4775 41.8278 51.2696 41.6965 51.1089C41.6452 51.0463 41.4994 51.0613 41.3026 51.0219" fill="black"/>
<path fill-rule="evenodd" clip-rule="evenodd" d="M75.4417 43.0469C75.3522 43.177 75.2727 43.2921 75.138 43.488C75.3501 43.5754 75.4972 43.6359 75.6653 43.7051V44.7025C75.4251 44.8516 75.1844 45.0015 74.9318 45.1589C74.3635 44.9734 73.7824 44.7845 73.1097 44.5654C72.9047 44.6341 72.6185 44.9941 72.2448 44.6072C72.1653 44.5248 71.9731 44.5376 71.8319 44.5314C69.4622 44.432 67.0926 44.3363 64.6418 44.2365C64.2557 43.633 64.0917 42.793 63.1473 42.1531C63.8436 42.0773 64.2168 42.0371 64.59 41.9965C64.5933 41.9596 64.5966 41.9228 64.6003 41.8855C64.3088 41.8433 64.0167 41.8006 63.6365 41.7451C63.7748 41.5127 63.8788 41.3375 64.0114 41.1151C64.3908 41.2435 64.8124 40.954 65.1603 41.3313C65.215 41.3909 65.3703 41.3615 65.4793 41.3657C66.3901 41.3992 67.2968 41.4473 68.2072 41.5363C69.1831 41.6312 70.1846 41.6941 71.1435 41.8544C72.6098 42.0992 74.1237 42.2823 75.4417 43.0469" fill="black"/>
<path fill-rule="evenodd" clip-rule="evenodd" d="M37.1703 41.7817C37.0361 41.9577 36.9011 42.135 36.7996 42.2675H35.1651C34.3446 41.7688 34.4424 40.7565 33.7105 40.0238H34.746C34.7538 39.9716 34.7617 39.9194 34.7692 39.8668C34.5915 39.8316 34.4138 39.7964 34.1537 39.745C34.1408 39.5872 34.1247 39.3843 34.1023 39.1072C35.3872 39.1072 36.6372 38.9717 37.8388 39.1544C38.6436 39.277 39.4405 39.2331 40.2279 39.3478C41.0605 39.4692 41.8769 39.7049 42.699 39.897C43.4044 40.0623 44.1053 40.2433 44.8098 40.5888C44.705 40.7685 44.635 40.8886 44.5625 41.0129C44.7572 41.1463 44.9763 41.2966 45.1992 41.4491C45.1076 41.5514 45.0368 41.6313 44.9772 41.6976C45.0621 41.8136 45.1441 41.927 45.2725 42.1027C45.0082 42.3015 44.7734 42.4779 44.4101 42.7517C44.1483 42.6701 43.7163 42.5351 43.2843 42.4005C42.3321 42.1147 41.2456 42.5877 40.3861 41.8881C40.1712 41.9436 39.9695 42.0525 39.7835 42.0306C39.5043 41.997 39.2413 41.577 38.9605 42.0318C38.714 41.6404 38.4924 41.9838 38.2381 42.0144C37.9109 42.0534 37.5576 41.8765 37.1703 41.7817" fill="black"/>
<path fill-rule="evenodd" clip-rule="evenodd" d="M14.2462 67.4884C14.0963 67.5415 13.9654 67.5878 13.7521 67.6636C14.5909 67.8687 14.4662 68.601 14.7234 69.1092C14.5068 69.4393 14.315 69.7318 14.0922 70.0702C13.6966 70.013 13.4087 69.7641 13.2103 69.395C13.1287 69.4671 13.0467 69.5404 12.997 69.5851C12.589 69.4878 12.2117 69.3975 11.7465 69.2869C11.6662 69.1498 11.5403 68.9344 11.3738 68.6503C10.8726 68.8164 10.3416 68.9812 9.81843 69.1693C9.32843 69.3449 8.84754 69.5449 8.3621 69.7347V69.9583C8.51453 70.0316 8.66695 70.1049 8.84589 70.1907C8.79618 70.3054 8.73778 70.4877 8.71583 70.4831C8.30287 70.4015 8.43873 70.8422 8.2453 70.964C8.19393 70.9102 8.14216 70.8563 8.06305 70.7735C7.93216 70.8402 7.79382 70.9114 7.5776 71.022C7.50512 70.8464 7.44423 70.6989 7.37092 70.5208C7.28932 70.5858 7.21476 70.6451 7.05405 70.7726C6.9182 70.445 6.84322 70.0996 6.65062 69.8436C6.44766 69.5739 6.18133 69.3673 6.35074 68.9903C6.05997 68.9386 5.85287 68.9017 5.63956 68.864C5.90133 68.1073 5.90133 68.1073 5.60435 67.4445C6.03967 67.1906 6.4721 66.7541 6.93683 66.7164C7.48275 66.672 8.01086 66.2044 8.66157 66.5635C8.54352 66.7512 8.45033 66.8986 8.33766 67.0776H7.36222C7.20772 67.2718 7.07725 67.4363 6.9534 67.592C7.04743 67.691 7.09092 67.737 7.13441 67.7825C7.18743 67.7295 7.23672 67.6351 7.2947 67.6293C8.32275 67.529 9.35163 67.4321 10.3817 67.3584C10.499 67.3497 10.6257 67.4818 10.7251 67.5365C10.9082 67.442 11.0954 67.346 11.2888 67.2465C10.5876 66.7723 9.85115 66.7793 9.06417 67.073C9.06417 66.8858 9.06417 66.7085 9.06417 66.5312C9.09027 66.5047 9.11678 66.455 9.1437 66.4546C10.0458 66.448 11.0068 66.252 11.8343 66.4997C12.6342 66.7396 13.6154 66.7064 14.2462 67.4884" fill="black"/>
<path fill-rule="evenodd" clip-rule="evenodd" d="M19.6121 100.617C19.4567 100.527 19.1515 100.455 19.0603 100.276C18.765 99.6898 18.519 99.0735 18.3173 98.4493C18.2506 98.2443 18.3769 97.9767 18.4295 97.647C18.4477 97.6677 18.3781 97.5894 18.2821 97.4809C18.5496 97.3078 18.8155 97.1359 19.0777 96.9661H27.0271C27.1397 97.0874 27.2354 97.1893 27.3767 97.3409C27.1149 97.3803 26.9078 97.4113 26.5955 97.4581C26.9794 97.6168 27.276 97.7398 27.7938 97.9535C27.3328 98.0463 27.1108 98.091 26.8883 98.1362C26.8875 98.1706 26.8867 98.2049 26.8863 98.2389C27.0859 98.2704 27.2855 98.3019 27.4868 98.3337C27.6848 98.6958 27.5423 98.9613 27.2429 99.1841C25.2883 99.1617 23.349 99.5888 21.3857 99.4306C21.3111 99.4243 21.2357 99.4297 21.1608 99.4297C20.6757 99.8017 20.1907 100.174 19.6121 100.617" fill="black"/>
<path fill-rule="evenodd" clip-rule="evenodd" d="M84.7512 30.645C85.3224 30.5606 85.8091 30.4429 86.2983 30.4292C86.7498 30.416 87.1735 30.2433 87.6796 30.481C88.1038 30.6798 88.6948 30.5216 89.2242 30.4127C88.8518 30.2743 88.4795 30.136 88.0528 29.9774C88.5056 29.7425 88.8328 29.8862 89.213 30.0465C89.5137 30.1733 89.9544 29.9633 90.1247 30.4761C89.9114 30.5067 89.7043 30.5365 89.4462 30.5734C89.5464 30.691 89.5961 30.7892 89.6757 30.8356C89.9171 30.976 90.1702 31.0961 90.4208 31.2253C90.5211 31.1433 90.6047 31.075 90.6925 31.0033C90.9444 31.0849 91.0251 31.3335 91.0164 32.0231C90.0708 32.1138 89.6185 32.0007 88.578 31.4001C88.4496 31.4755 88.3001 31.5637 88.1303 31.6636C87.9882 31.5857 87.8358 31.5024 87.6374 31.3939C87.5376 31.4689 87.4257 31.5534 87.3122 31.6387C87.0177 31.5737 86.7112 31.5058 86.4051 31.4382C86.2009 31.8885 85.7838 31.0961 85.508 31.6068C85.4061 31.7957 84.931 31.7837 84.6116 31.8669C84.545 31.8052 84.4638 31.729 84.3652 31.6375C84.3263 31.741 84.2894 31.8384 84.2124 32.0409C83.9518 32.1382 83.6076 32.2671 83.1487 32.4381V31.4631C82.8927 31.4353 82.7146 31.4159 82.4951 31.3923C82.6823 31.2713 82.8496 31.1632 82.9669 31.087C82.8078 30.7577 82.7378 30.6123 82.6256 30.3795C83.3326 30.2168 83.9949 30.0643 84.6767 29.9069C84.7496 29.984 84.8461 30.0871 84.9886 30.2391C84.7293 30.2785 84.5222 30.31 84.1767 30.363C84.453 30.4984 84.6166 30.5792 84.7512 30.645" fill="black"/>
<path fill-rule="evenodd" clip-rule="evenodd" d="M101.926 61.855C101.74 61.9429 101.602 62.0083 101.289 62.1558C101.796 62.1843 102.136 62.2038 102.54 62.2266C102.449 62.0037 102.38 61.8331 102.299 61.6368C102.7 61.544 103.059 61.4607 103.506 61.3572C103.445 61.539 103.394 61.6902 103.318 61.9172C103.369 61.9371 103.471 61.9764 103.611 62.0303C103.683 62.1698 103.778 62.3558 103.872 62.5397C103.348 62.77 102.788 63.0148 102.362 63.2016C101.483 63.4253 100.733 63.6162 99.9545 63.8138C99.9072 63.6721 99.8637 63.5425 99.8203 63.4133C99.5361 63.2849 99.2524 63.1565 98.8837 62.9891C99.3294 62.8243 99.7063 62.6847 100.228 62.4913C99.8053 62.4561 99.5249 62.4324 99.2441 62.4088C99.2114 62.3695 99.1782 62.3301 99.1455 62.2912C99.2888 62.2634 99.4321 62.2361 99.575 62.2088C100.259 62.135 101.016 61.5253 101.926 61.855" fill="black"/>
</svg>
