<svg width="127" height="114" viewBox="0 0 127 114" fill="none" xmlns="http://www.w3.org/2000/svg">
<path fill-rule="evenodd" clip-rule="evenodd" d="M125.559 59.3227C125.514 59.4484 125.401 59.764 125.258 60.161C125.384 60.2222 125.521 60.2873 125.711 60.3787C125.808 60.7295 126.342 61.1007 126.017 61.5753C125.725 62.0022 126.497 62.4534 125.907 62.7998C126.007 63.6952 125.377 64.3412 124.961 64.9669C124.584 65.5344 124.492 66.243 123.922 66.736C123.427 67.1648 123.148 67.8451 122.773 68.4166C122.446 68.4315 122.142 68.4444 121.721 68.4633C121.797 68.7058 121.854 68.8877 121.944 69.1744C121.83 69.3016 121.645 69.5118 121.443 69.7394C121.568 70.1221 121.684 70.4819 121.822 70.9043C121.626 71.1274 121.432 71.349 121.22 71.591C121.387 71.6507 121.543 71.7063 121.81 71.8012C121.505 72.0174 121.254 72.1953 120.991 72.3821C121.042 72.4423 121.122 72.5352 121.247 72.6808C120.35 73.0147 119.55 72.2107 118.561 72.5993C117.95 73.0401 117.496 73.9395 116.588 74.272C116.238 74.4007 116.538 75.0427 115.937 74.9672C115.724 74.9404 115.882 75.6281 115.381 75.4944C115.194 76.1176 114.638 76.3681 114.199 76.7606C113.835 77.0856 113.502 77.5095 113.209 77.9334C112.965 78.2862 112.704 78.6281 112.445 78.971C112.211 79.2816 111.936 79.5673 111.743 79.9013C111.579 80.186 111.593 80.6725 111.371 80.8012C111.073 80.9741 110.87 81.161 110.806 81.563C110.513 81.3881 110.334 81.2817 110.154 81.1744C109.594 81.4482 109.033 81.7086 108.475 81.0238V79.6011C107.403 78.9973 106.283 78.4701 105.781 77.105C105.82 76.6548 105.602 76.0167 106.035 75.49C105.406 74.2337 105.952 73.1703 106.558 72.1227C107.287 70.862 108.243 69.7857 109.365 68.7943C108.705 67.8049 108.016 66.8831 107.454 65.8897C107.067 65.2064 106.64 64.461 106.619 63.6793C106.597 62.8693 106.342 62.024 106.825 61.2026C107.041 60.8349 106.833 60.3022 107.075 59.8177C107.221 59.5265 107.31 59.2029 107.534 58.9237C107.655 58.7731 107.649 58.5212 107.749 58.1216C107.972 57.9144 108.531 57.6351 108.648 57.2296C108.817 56.6403 109.572 56.8649 109.561 56.1756C109.755 56.3232 109.842 56.3888 109.977 56.4907C110.289 56.3983 110.641 56.2939 111.01 56.1856C111.144 56.44 111.257 56.6532 111.393 56.9126C111.123 57.4011 110.829 57.9348 110.49 58.548C111.16 58.4819 111.677 58.4302 112.119 58.3865C112.299 58.5669 112.395 58.6623 112.501 58.7686C112.321 59.1234 112.138 59.4822 111.898 59.9558C112.323 59.9995 112.653 60.0333 113.062 60.0751C112.961 60.5541 112.86 61.0346 112.761 61.5072C112.588 61.6613 112.402 61.8283 112.209 62.0002C112.331 62.1219 112.381 62.187 112.392 62.1806C112.569 62.0827 112.741 61.9758 112.952 61.8486C113.023 62.0385 113.067 62.1552 113.124 62.3063C112.74 62.5006 112.376 62.6855 111.96 62.8957C112.153 62.9603 112.306 63.0115 112.589 63.1059C112.266 63.4294 111.979 63.7166 111.605 64.0918C112.082 64.468 112.504 64.8019 112.957 65.1597C113.624 65.2864 114.16 65.0052 114.684 64.5519C115.897 63.5049 117.23 62.591 118.425 61.5385C119.649 60.4607 120.95 59.4047 121.821 57.9606C122.025 57.6227 122.383 57.3782 122.691 57.0711H124.117C124.195 57.17 124.329 57.3404 124.468 57.5154C124.312 57.9601 124.152 58.4183 123.943 59.0136C124.376 58.8948 124.727 58.7984 125.183 58.6727C125.255 58.797 125.367 58.9903 125.559 59.3227" fill="black"/>
<path fill-rule="evenodd" clip-rule="evenodd" d="M39.555 87.8644C39.1152 88.0005 38.7539 88.1128 38.2868 88.2574C38.4006 88.0134 38.4756 87.8524 38.5705 87.6482C38.2595 87.1796 37.9076 86.7602 37.2641 86.8531C37.2144 86.6633 37.1826 86.541 37.1379 86.3711H36.0183C35.9065 86.2593 35.8096 86.2061 35.7842 86.1296C35.6128 85.6127 35.5765 84.9985 35.2654 84.593C34.8649 84.0718 35.0642 83.5604 35.0458 83.0555C35.0304 82.6456 35.1959 82.2256 35.2967 81.8142C35.6585 80.3433 36.2181 78.9444 36.9307 77.6141C37.3694 76.7961 37.8609 75.9996 38.3996 75.2437C38.9258 74.5053 39.5425 73.8309 40.1374 73.1059C39.9759 73.0025 39.799 72.8823 39.6151 72.7735C37.8376 71.7219 36.2807 70.3981 34.8371 68.9302C34.1558 68.2374 34.1518 67.3077 33.953 66.452C33.873 66.1096 33.9401 65.7324 33.9401 65.3711C34.3044 64.6764 35.0383 64.6178 35.7504 64.3345C35.9905 64.7569 36.2369 65.1912 36.5152 65.6797C36.5639 65.6439 36.6484 65.5818 36.8 65.47C36.8929 65.5624 37.0564 65.6514 37.1021 65.7821C37.3853 66.5876 38.0433 66.9976 38.7425 67.3464C40.1652 68.0576 41.6008 68.7408 43.1284 69.4828C43.4857 69.1051 43.843 68.5257 44.3618 68.236C44.8399 67.9686 44.8647 67.2038 45.6101 67.2774C45.5038 67.1467 45.4297 67.0557 45.3194 66.9206C45.548 66.7606 45.7796 66.5986 46.1021 66.3729C46.2039 66.1483 46.3595 65.8059 46.5115 65.4705C46.7421 65.4571 46.9563 65.4447 47.2649 65.4268C47.1337 65.2578 47.0651 65.1699 46.9588 65.0327C47.5342 64.9487 47.5725 64.3529 47.9348 64.0329C48.3174 63.6945 48.5882 63.2298 48.951 62.7647C49.0315 62.8238 49.1155 62.8855 49.2755 63.0032C49.3461 62.8373 49.4121 62.6807 49.4951 62.4844C49.593 62.5634 49.6835 62.636 49.8465 62.7682C50.0239 61.8166 50.5635 61.0533 51.137 60.367C51.7279 59.6594 52.2591 58.8469 53.2261 58.3733C53.3474 58.4732 53.5099 58.6069 53.6937 58.7579C53.3116 59.4919 52.9414 60.2194 52.1582 60.6025V61.6864C52.3436 61.6411 52.5319 61.6496 52.5712 61.577C52.7282 61.2843 52.839 60.9668 52.9011 60.8172C53.5452 60.2865 54.0714 59.8532 54.7353 59.3065C54.7731 59.8129 54.7969 60.1434 54.8208 60.4604C54.6185 60.5434 54.4645 60.6065 54.3025 60.6731C54.3442 60.7313 54.3964 60.8436 54.4242 60.8376C54.7532 60.77 55.0787 60.6845 55.4787 60.5856C55.592 60.7854 55.7302 61.0284 55.8693 61.2729C55.7948 61.3559 55.7058 61.4543 55.6099 61.5606C55.6666 61.9532 56.1387 62.2996 55.7734 62.7493C55.6671 62.6534 55.5726 62.5679 55.4762 62.48C55.4315 62.5639 55.3445 62.6529 55.3624 62.7091C55.4121 62.8681 55.5051 63.0137 55.6094 63.2194C55.5349 63.9077 54.9848 64.3648 54.4744 64.8295C53.9914 65.2693 53.4602 65.6554 52.839 66.1538C53.0944 66.3004 53.3166 66.4286 53.5665 66.5727C53.4105 66.8724 53.3161 67.0532 53.2167 67.2431C53.2743 67.3072 53.3608 67.4016 53.495 67.5497C53.2003 67.5969 52.9518 67.6371 52.5955 67.6953C52.6924 67.9423 52.7754 68.1525 52.8713 68.3965H51.9689C51.8014 68.7398 51.6553 69.0395 51.5162 69.3247C51.6454 69.4639 51.7358 69.5613 51.866 69.7014C51.5892 69.7526 51.3412 69.7988 50.9805 69.8664C51.0679 70.097 51.1479 70.3047 51.2419 70.5517C51.0103 70.586 50.7608 70.6227 50.4358 70.6704C50.5312 70.9278 50.6088 71.1366 50.737 71.4824C50.3842 71.3453 50.1272 71.2454 49.8172 71.1251C49.6711 71.4034 49.522 71.6877 49.3769 71.964C49.4285 72.0623 49.4489 72.1702 49.51 72.2035C49.6179 72.2621 49.7635 72.2512 49.8703 72.3108C50.2853 72.5424 50.3822 73.0791 50.7901 73.3092C51.2299 73.5576 51.4213 73.984 51.7015 74.3636C51.954 74.7055 52.1413 74.9938 52.113 75.4266C52.103 75.5747 52.2352 75.7317 52.3172 75.9171C52.2457 76.0388 52.1433 76.2122 52.0037 76.4498C51.6374 76.492 51.3711 76.9825 50.7027 76.7236C49.5354 76.2709 48.3204 75.8654 47.0527 75.7128C46.9821 75.7044 46.924 75.5921 46.8087 75.4768C46.438 75.8947 46.0698 76.3096 45.6076 76.8309C45.6017 76.8801 45.5768 77.0933 45.5495 77.3234C45.2901 77.3641 45.0416 77.4034 44.6555 77.464C44.9104 77.8218 45.1007 78.0892 45.3845 78.4877C45.064 78.3938 44.8503 78.3317 44.579 78.2522C44.5228 78.3187 44.409 78.4534 44.2853 78.5995C44.4423 79.0333 44.3161 79.2987 43.8077 79.5874C43.6557 80.134 43.5096 80.6593 43.3878 81.0976C43.1582 81.1821 43.03 81.2293 42.8645 81.2904L43.1612 81.5871C42.7562 81.8972 42.2916 82.1481 41.9775 82.5248C41.6938 82.8642 41.5755 83.3413 41.3549 83.8223C41.3762 83.8551 41.4652 83.9883 41.6063 84.1995C41.3076 84.5071 41.0145 84.8092 40.7322 85.0994C40.842 85.2366 40.923 85.3374 41.0632 85.5124C40.8639 85.74 40.6681 85.9636 40.4499 86.2125V87.0027C40.1299 87.3108 39.8054 87.6233 39.555 87.8644" fill="black"/>
<path fill-rule="evenodd" clip-rule="evenodd" d="M72.883 93.2651C73.5092 94.0224 73.5097 94.0239 74.2695 93.604C74.2908 93.8465 74.2834 94.0577 74.3356 94.2525C74.3728 94.3906 74.4901 94.5074 74.5656 94.6247C74.4692 94.7216 74.4051 94.7852 74.3236 94.8667C74.513 94.9551 74.6939 95.0401 74.99 95.1788C74.6819 95.6176 74.3912 96.031 74.101 96.445C74.4752 97.1178 73.6836 97.2371 73.5698 97.5973C73.3944 98.1539 72.7175 98.2737 72.6982 98.8685C72.6758 99.5622 71.9642 99.6477 71.6551 100.052C71.3868 100.403 70.9097 100.633 70.8481 101.081C70.9549 101.264 71.0394 101.408 71.178 101.646C70.777 101.873 70.4277 102.071 70.0773 102.27L69.232 102.669C68.9751 102.972 68.7182 103.275 68.3748 103.68V103.946C67.5097 104.581 66.7017 105.176 65.7634 105.866C66.0318 106.002 66.1943 106.085 66.4636 106.223C66.0909 106.744 65.7138 107.272 65.3083 107.839C66.3493 108.194 67.3288 108.528 68.3391 108.873C68.2392 109.074 68.1547 109.243 68.0404 109.473C68.4906 109.634 68.9115 109.784 69.3921 109.955V110.544C69.6942 110.822 69.9591 111.065 70.2334 111.318C70.2503 111.636 70.2657 111.94 70.2811 112.231L70.7725 112.722L69.5257 113.76C69.232 114.087 68.9259 114.026 68.597 113.808C68.4971 113.742 68.3569 113.704 68.2357 113.706C66.8363 113.737 65.5716 113.205 64.2985 112.739C63.3593 112.396 62.4554 111.957 61.4814 111.538C61.2155 111.803 60.8016 112.003 60.7484 112.55C60.1859 112.683 59.6089 112.82 59.0692 112.948C58.791 112.666 58.5688 112.442 58.3462 112.216C58.4307 112.123 58.5181 112.026 58.6473 111.884C58.5132 111.604 58.3686 111.304 58.2821 111.125C57.8632 111.189 57.4925 111.247 57.1307 111.303C56.9304 110.907 56.7506 110.55 56.5662 110.185C56.4762 110.275 56.4126 110.338 56.3893 110.362C56.0896 110.057 55.7875 109.75 55.3701 109.327C55.4998 108.387 54.898 107.307 55.0595 106.14C55.0938 105.895 54.9064 105.541 54.7091 105.356C53.9096 104.606 53.8753 103.522 53.4996 102.599C53.356 102.247 53.2029 101.799 53.1905 101.374C53.1696 100.697 53.0906 100.003 53.2064 99.3456C53.3893 98.3065 53.5861 97.1983 54.7961 96.7893C55.1961 96.6542 55.6364 96.6393 56.1637 96.5518V98.6653C56.6223 98.3701 56.9294 98.1723 57.3876 97.8771C57.4512 98.064 57.5278 98.2866 57.6033 98.5092C57.6714 98.4575 57.7394 98.4059 57.8075 98.3542V99.601C58.0406 99.4827 58.2091 99.3972 58.3681 99.3162C58.943 99.8191 58.9281 100.463 58.8486 101.126C59.0409 101.194 59.1975 101.249 59.4484 101.338C59.3416 101.628 59.2347 101.916 59.1055 102.265C59.2621 102.236 59.3406 102.245 59.3843 102.209C59.4897 102.126 59.5622 101.977 59.6775 101.933C60.8349 101.493 61.4173 100.263 62.5791 99.835C62.8127 98.9937 63.6997 98.8143 64.218 98.2473C64.7572 97.658 65.518 97.2743 66.1684 96.7829C66.7981 96.3068 67.1529 95.5048 67.9743 95.2528C68.514 94.2704 69.2907 93.526 70.2572 92.9704C70.2234 92.305 71.1388 92.2225 71.1174 91.5208H72.3394C72.4268 91.6078 72.5545 91.7355 72.6823 91.8632C72.0974 92.1544 71.8837 92.7194 71.5095 93.3168C72.319 93.4842 72.7851 92.4988 73.5479 92.9535C73.3273 93.0569 73.1469 93.1413 72.883 93.2651" fill="black"/>
<path fill-rule="evenodd" clip-rule="evenodd" d="M69.7401 78.9411C69.677 78.3075 70.5685 78.2379 70.1461 77.6476C70.0383 77.744 69.9424 77.829 69.8465 77.9139C69.8147 77.8816 69.7595 77.8533 69.7541 77.8175C69.6537 77.1536 69.6939 76.524 70.165 75.9828C70.6833 75.3885 71.1972 74.7892 71.6941 74.177C71.8511 73.9837 71.948 73.7417 72.1026 73.4694C71.8571 72.8298 71.5207 72.1669 71.2285 71.508C70.9149 70.8003 70.9219 70.0331 70.581 69.3329C70.3996 68.9612 70.8727 68.3087 70.7618 67.8535C70.6371 67.3441 70.3365 66.9108 70.7758 66.4308C70.7847 65.0881 71.6976 64.2512 72.4961 63.319H74.7537C74.8859 63.4442 75.0166 63.5684 75.2283 63.7687C74.8849 64.2065 74.541 64.6443 74.1609 65.1288C74.2031 65.2193 74.305 65.4354 74.4411 65.7251C74.5684 65.7251 74.8119 65.7982 74.8988 65.7122C75.276 65.342 75.7118 65.4916 76.1089 65.4478C76.2554 65.7654 76.3777 66.0307 76.5139 66.3254C76.3101 66.5799 76.0999 66.8427 75.7809 67.2408C76.2634 67.3024 76.5869 67.3436 77.0123 67.3978V68.6968C77.9276 68.7266 78.028 67.618 78.7988 67.6224C79.1486 67.0897 79.659 66.719 80.1186 66.2941C80.6488 65.8046 81.1532 65.2858 81.6531 64.7646C82.1133 64.284 82.5804 63.8055 82.9939 63.2867C83.4193 62.752 83.785 62.1696 84.031 61.8167C84.591 61.616 84.9066 61.5027 85.2982 61.3625C85.4264 61.5449 85.6366 61.7303 85.6902 61.9534C85.7315 62.1248 85.5948 62.3529 85.5029 62.5383C85.398 62.749 85.2544 62.9398 85.2559 63.3105C85.651 63.1441 86.046 62.9771 86.4809 62.7937C86.7129 63.2459 86.9614 63.7299 87.3381 64.4639C87.3381 64.4485 87.3162 64.7154 87.3455 64.9763C87.3684 65.179 87.4544 65.3748 87.5304 65.6347C87.4767 65.7281 87.3783 65.901 87.2874 66.0611C87.424 66.2086 87.515 66.3065 87.596 66.3935C86.8108 67.6508 86.1042 68.9522 85.243 70.1692C84.52 71.1909 84.6213 71.2625 84.0916 71.5517C84.1761 71.6456 84.2616 71.74 84.3301 71.8161C83.2577 73.0176 82.1943 74.2098 81.115 75.4198V75.8695C81.9627 76.4097 82.7832 76.932 83.6409 77.4781C83.5167 77.7216 83.4406 77.8707 83.3233 78.1018C83.6478 78.3806 83.866 78.9167 84.4941 78.719C84.6318 78.9923 84.7441 79.2154 84.8544 79.435C84.7754 79.5454 84.677 79.682 84.5423 79.8694C84.8822 80.2098 85.1873 80.5154 85.5173 80.8458C85.3916 81.1694 85.2847 81.4451 85.166 81.7508C85.2529 81.8998 85.3573 82.0797 85.4537 82.2452C85.406 82.3481 85.3911 82.4544 85.332 82.4937C85.1988 82.5806 85.003 82.5975 84.9056 82.7079C84.3227 83.3658 84.2183 83.4026 83.4853 83.1521C82.5362 82.8276 81.5155 82.6368 80.6483 82.1632C79.4865 81.5291 78.4425 80.6794 77.2424 79.849C76.7385 80.2217 76.173 80.733 75.6283 81.315C75.1016 81.878 74.4074 82.3242 73.4423 82.6115C73.6123 82.3307 73.6818 82.2159 73.8324 81.9654C73.2276 82.0782 72.7203 82.1727 72.2134 82.2671L72.1264 82.0927C72.4315 81.8546 72.7362 81.6171 73.0413 81.3796L72.5697 80.908H71.6444C71.5212 80.5984 71.384 80.2515 71.222 79.844H70.0989C69.9444 79.4549 69.8057 79.1061 69.7401 78.9411" fill="black"/>
<path fill-rule="evenodd" clip-rule="evenodd" d="M75.6184 52.349C75.1532 52.4604 74.7433 52.5587 74.1648 52.6974C73.571 52.2586 72.8609 51.712 72.1279 51.1991C71.2538 50.5874 70.4945 49.8082 69.4966 49.3774C69.2656 49.2775 69.0231 49.2054 68.702 49.0901C68.3129 48.5072 68.2677 47.4249 67.1263 47.5442C66.61 47.0721 66.5468 46.2522 65.792 46.1726C65.545 45.7517 65.389 45.2702 65.0645 44.9696C63.5831 43.5955 62.5112 41.9452 61.5894 39.954C61.5094 39.3393 61.5089 38.5199 61.3762 37.6979C61.1675 36.4034 61.8573 35.2918 62.9784 34.5742C63.2879 34.3764 63.4475 33.9416 63.9618 33.9878C64.3196 34.0201 64.6973 33.8298 65.1723 33.713C65.313 33.8382 65.4993 34.0037 65.7344 34.2124C65.3522 34.854 64.6297 35.259 64.575 36.1207C65.4253 36.4044 65.8064 35.4597 66.6621 35.3509C66.7665 35.4443 66.9518 35.6093 67.1258 35.7654C66.8226 36.22 66.6184 36.5262 66.2422 37.0902C66.8271 36.9053 67.243 36.9023 67.3966 36.7001C67.7847 36.1882 68.4123 35.983 68.7766 35.4135C69.116 34.8833 69.6726 34.4882 70.2415 34.1185C71.0461 33.5962 71.6981 32.8454 72.4524 32.2381C73.5611 31.3456 74.6002 30.3677 75.835 29.6257C76.3235 29.333 76.6848 28.8232 77.0903 28.3983C77.459 28.0117 78.0449 27.8427 78.1607 27.2663H79.9834V28.442C79.9328 28.4927 79.7578 28.6676 79.5471 28.8788C79.7886 28.8356 80.0297 28.8013 80.2662 28.7476C80.5067 28.693 80.7433 28.6194 81.108 28.5196C81.0524 29.3947 81.0946 30.1694 81.7267 30.7339C81.5935 30.9133 81.5175 31.0157 81.3644 31.2229C81.5572 31.3292 81.7809 31.4515 82.1968 31.6796C81.7684 31.7968 81.6228 31.8366 81.4241 31.8913C81.4996 32.0642 81.601 32.2257 81.6377 32.4011C81.675 32.574 81.6462 32.7604 81.6462 32.9378C81.1438 33.6275 80.6409 34.3173 80.0888 35.0746C79.9874 35.086 79.7737 35.1094 79.4597 35.1437C79.5551 35.2749 79.6137 35.3569 79.6908 35.4632C79.6098 35.657 79.5198 35.8722 79.4189 36.1117C78.2263 36.0541 78.2178 37.283 77.4804 37.7615C77.6364 37.9668 77.7139 38.0686 77.7492 38.1154C77.2588 38.6063 76.7638 39.1013 76.2639 39.6007C76.3041 39.6375 76.24 39.5793 76.2679 39.6042C76.0452 39.8263 75.8157 40.0559 75.5861 40.286C75.5115 40.2278 75.4375 40.1702 75.363 40.112V40.8256C75.2054 40.6959 75.114 40.6204 74.9088 40.4519C74.954 40.7561 74.9843 40.9583 75.0265 41.2426C74.6881 41.6809 74.2811 42.2081 73.8403 42.7796C73.6421 42.6345 73.5069 42.5346 73.3866 42.4461C72.8987 43.0166 72.3982 43.6015 71.8934 44.1919C72.0877 44.2888 72.2671 44.3777 72.5284 44.5074C72.2849 44.816 72.0757 45.0814 71.8794 45.3303C71.9112 45.4402 71.9112 45.5415 71.9614 45.5982C72.7868 46.5235 73.7658 47.3509 74.4093 48.3875C75.1344 49.5548 76.0403 50.7598 75.6184 52.349" fill="black"/>
<path fill-rule="evenodd" clip-rule="evenodd" d="M94.4223 32.7558C94.5058 32.6723 94.5699 32.6082 94.636 32.5421C94.5873 32.4795 94.546 32.4074 94.4879 32.3542C94.1365 32.0337 93.6928 31.7589 93.4085 31.4449C93.1297 31.1377 92.8177 30.9037 92.5354 30.6224C92.1602 30.2482 91.7418 29.7125 91.7219 29.231C91.6867 28.3693 91.6345 27.5052 91.8392 26.6022C92.1925 25.0433 93.009 23.8631 94.0903 22.7863C95.4629 21.4192 96.8309 20.0477 98.271 18.6075C97.7244 18.137 97.6966 17.2484 96.8309 17.0755C96.4672 16.3684 96.1049 15.6612 95.7411 14.9541C95.4057 14.3016 95.4658 13.5975 95.4693 12.9003C95.4723 12.4038 95.4703 11.9074 95.4703 11.4109C95.927 10.828 96.3837 10.2451 96.8329 9.67267H99.0905C98.7287 10.2904 98.4191 10.8186 98.1155 11.3374C98.9503 11.9437 99.2569 10.6303 99.9904 11.0308C100.448 11.6574 99.5964 11.9526 99.3265 12.5589C99.8473 12.4341 100.15 12.3611 100.52 12.2721C100.74 12.9162 100.63 13.4797 100.284 14.0849C100.468 14.157 100.614 14.2137 100.834 14.2986C100.99 14.4666 100.665 14.4909 100.61 14.7384C100.828 15.0714 101.093 15.4769 101.42 15.9783C103.656 13.6317 106.508 12.0589 108.251 9.37898H109.611C109.506 9.82622 109.415 10.2168 109.29 10.751C109.667 10.6178 109.958 10.5155 110.356 10.3748V11.4264C110.574 11.4835 110.696 11.5153 110.819 11.5476C110.853 11.6236 110.907 11.6977 110.916 11.7767C110.932 11.9099 110.898 12.051 110.924 12.1817C111.2 13.589 110.499 14.7056 109.764 15.7601C108.969 16.9011 108.045 17.9531 107.112 19.1263C107.778 19.9259 108.843 20.3145 109.78 21.0609C109.797 21.1842 109.826 21.3919 109.859 21.6309C110.108 21.9415 110.509 22.2421 110.623 22.6277C110.872 23.473 111.489 24.2602 111.07 25.3514C110.968 25.3982 110.742 25.509 110.511 25.6074C110.28 25.7053 110.045 25.7897 109.784 25.8916C109.425 25.5269 108.614 25.6426 108.723 24.9325C107.896 24.6935 107.168 24.4828 106.462 24.2786C106.3 23.9978 106.154 23.7434 105.988 23.4556H104.492C104.454 23.2941 104.425 23.1719 104.389 23.0208C103.835 22.5949 103.37 23.0964 103.047 23.1828C102.604 23.6957 102.266 24.0882 101.892 24.5211C101.784 24.4396 101.698 24.374 101.549 24.2612C101.389 24.4873 101.217 24.7308 101.007 25.0274C100.979 24.9912 101.047 25.0791 101.148 25.2093C100.52 25.3668 100.465 25.998 100.189 26.5173C99.9715 26.3836 99.8289 26.2956 99.6103 26.1609C99.573 26.3945 99.5367 26.6231 99.493 26.8934C99.3996 26.9188 99.2778 26.9516 99.0602 27.0107C99.002 27.5598 98.924 28.2287 98.11 28.0463C97.8367 28.4006 97.3785 28.7301 97.4098 29.0044C97.5033 29.8288 96.813 30.2229 96.6247 30.8674C96.5357 31.6819 96.5482 31.6814 96.8011 32.2255C96.2112 32.6956 95.5453 33.0122 94.7806 33.2075C94.6807 33.0813 94.5689 32.9411 94.4223 32.7558" fill="black"/>
<path fill-rule="evenodd" clip-rule="evenodd" d="M15.1657 17.444C14.8283 17.4857 14.625 17.5111 14.3686 17.5429C14.5246 17.7158 14.6136 17.8137 14.7557 17.9713C14.4193 18.5969 13.7817 18.9721 13.3494 19.5192L13.5611 19.7309C13.2167 20.0012 12.8718 20.2716 12.5786 20.5016C12.4166 20.9285 12.7625 21.41 12.1925 21.6744C12.6974 22.0128 13.1591 22.315 13.6128 22.628C15.0355 23.611 16.5571 24.4543 17.7299 25.7781C18.4017 26.5359 19.0343 27.2684 19.0462 28.3567C19.0482 28.54 19.2346 28.7209 19.3832 28.9898C18.9742 29.2487 18.5911 29.4907 18.111 29.7943C15.4062 28.2096 12.61 26.7973 10.0453 24.7276C9.86141 24.8324 9.45989 24.9209 9.38585 25.1271C9.09216 25.9441 8.51671 26.5175 7.93082 27.1024C7.85926 27.174 7.8861 27.3434 7.86672 27.4687C7.61577 27.4965 7.40258 27.5193 7.07709 27.5551C7.1397 27.7693 7.19288 27.9512 7.2858 28.2697C6.76402 28.7065 6.37443 29.3565 6.16919 30.1635C6.04993 30.6321 5.6007 31.0163 5.19818 31.5823V34.5271C4.94176 34.5435 4.72808 34.5569 4.48608 34.5723C4.4339 34.7189 4.37824 34.876 4.31165 35.0643H3.37741C3.23132 34.6409 3.08174 34.2066 2.90881 33.7062C2.64891 33.8205 2.38951 33.9343 2.08042 34.0699C2.01681 33.8731 1.96662 33.7191 1.91643 33.565C1.8399 33.5332 1.75542 33.4627 1.68635 33.4756C1.11289 33.5844 0.720308 33.0994 0.649743 32.7908C0.362018 31.5346 -0.450966 30.2922 0.329718 28.9436C0.344129 27.6078 1.17351 26.5886 1.64361 25.4268C1.79716 25.0476 2.45709 25.1142 2.2782 24.4592C2.20465 24.1899 2.69363 23.763 2.93415 23.4127C3.1523 23.0951 3.35754 22.7657 3.60849 22.476C3.90317 22.1356 4.26196 21.8503 4.55416 21.5084C4.79716 21.2232 4.9845 20.8907 5.22253 20.5409C3.57569 19.304 2.56841 17.5469 1.41403 15.9085C1.04381 14.3233 0.404258 12.7838 0.653719 10.9277C1.03487 10.4899 1.52236 9.92936 2.04663 9.32758C2.62704 9.44684 3.27952 9.08706 3.80975 9.69183C3.46239 10.1599 3.11752 10.6246 2.76917 11.0942C2.86508 11.1956 2.95403 11.291 3.04198 11.3844C3.77745 11.5365 4.04679 10.4661 4.81505 10.714C4.92934 10.9357 5.04314 11.1578 5.1624 11.3884C4.92586 11.5399 4.65503 11.7139 4.37079 11.8957C4.54422 12.0697 4.67193 12.1974 4.79964 12.3251C5.18327 11.928 5.55597 11.9231 6.00669 12.4662C5.96594 12.7688 6.2005 13.2061 5.74779 13.5585C5.93563 13.6489 6.1195 13.7374 6.38238 13.8631C6.16621 14.1538 5.97439 14.4112 5.7781 14.6751C5.96098 14.7402 6.11801 14.7953 6.44648 14.9121C6.14434 14.9936 6.00123 15.0319 5.75077 15.0995C5.77711 15.3196 5.72444 15.6208 5.84966 15.7892C6.36846 16.4869 6.94093 17.1444 7.55464 17.8903C7.89256 17.5871 8.15196 17.3615 8.40291 17.1275C9.88576 15.745 11.1266 14.0872 12.9658 13.1083C12.9558 12.5989 13.489 12.6347 13.7186 12.3619C13.9785 12.0533 14.2672 11.769 14.4536 11.5697H15.3645C14.9515 12.1775 14.2479 12.5209 14.4774 13.3965C15.0658 13.0456 15.6418 12.7023 16.3434 12.2843C16.2808 12.6854 16.2321 12.9945 16.1774 13.3458C16.4229 13.4695 16.7877 13.6549 17.1793 13.8527C17.0784 14.0619 16.9939 14.2363 16.8955 14.4405C17.0371 14.4703 17.1604 14.4957 17.2891 14.5225C17.3025 14.5752 17.3542 14.6651 17.3293 14.6984C16.9994 15.1437 16.5576 15.5373 16.3474 16.0307C16.084 16.6499 15.5031 16.9287 15.1657 17.444" fill="black"/>
<path fill-rule="evenodd" clip-rule="evenodd" d="M39.9041 31.2771C40.9839 29.9522 41.8958 28.851 42.7888 27.7344C43.6345 26.6769 44.3576 25.535 45.015 24.3647C44.931 24.2609 44.8495 24.1605 44.7099 23.9885C44.9395 23.7281 45.1666 23.4697 45.4076 23.1959H46.3006C46.6345 23.5299 46.9034 24.0064 47.2855 24.1282C47.7521 24.2763 47.8182 24.6495 48.0066 24.9282C48.6595 25.8938 49.1137 26.8737 48.6118 28.132C48.3032 28.9057 47.9907 29.6799 47.6697 30.4502C47.5732 30.6822 47.5027 30.9252 47.3799 31.2786L46.6957 31.9633V32.8161C46.16 33.7866 45.7142 34.5956 45.2262 35.4801C45.9006 35.9383 46.5217 36.3801 47.1618 36.7925C48.43 37.61 49.479 38.6252 50.1056 40.0201C50.2403 40.3203 50.3019 40.6537 50.442 41.1223C50.3938 41.2292 50.2761 41.492 50.1459 41.7803C49.8666 41.9105 49.565 42.0511 49.3294 42.1604C48.6923 41.9403 48.1288 41.7758 47.5901 41.5517C47.051 41.3281 46.5366 41.0448 46.0114 40.7879C45.9219 40.0032 45.0275 40.3203 44.6592 39.7866C44.3571 39.3483 43.6852 39.1659 43.0959 38.8225C41.3298 40.6244 39.7744 42.5928 38.3472 44.666C38.2373 44.825 38.2726 45.0839 38.2408 45.2961C37.6187 45.7751 37.0035 45.7021 36.3863 45.2668V44.8359C35.5842 44.3554 34.8323 43.9052 34.0099 43.4122C33.6164 42.951 33.8166 42.2265 33.5602 41.666C33.2745 41.0418 33.516 40.4376 33.4076 39.9784C34.3041 37.9802 35.3651 36.23 36.8842 34.7198V33.7975C36.0061 33.1858 35.4605 32.2322 34.9079 31.2969C34.7225 30.9834 34.6937 30.5739 34.6087 30.2052C34.4363 29.4548 34.1784 28.7288 34.2012 27.9317C34.2455 26.4071 35.1111 25.3193 36.5666 24.7722C37.4845 24.4273 38.376 24.6008 39.3629 24.5039C38.8317 25.6036 37.559 25.5097 36.8151 26.4315C38.0982 26.3748 38.8799 25.1663 40.1883 25.3968C40.1376 25.7049 40.0869 26.0135 40.0333 26.3385C40.2733 26.423 40.6256 26.5477 40.9645 26.668V28.3889C40.6157 28.9976 40.2325 29.6049 39.92 30.2469C39.8191 30.4532 39.9041 30.7503 39.9041 31.2771" fill="black"/>
<path fill-rule="evenodd" clip-rule="evenodd" d="M62.8056 14.4071C62.2982 15.0432 61.8351 15.6246 61.3227 16.2666V18.0054C60.8462 18.1967 60.3825 18.3836 59.8588 18.5938C59.2396 17.9925 58.9886 17.1949 58.7904 16.4411C58.525 16.54 58.2904 16.6269 57.9421 16.7561C57.6688 16.363 57.3363 16.0157 57.1569 15.6022C56.6202 14.3634 56.663 13.0405 56.7216 11.7957C56.9467 11.2829 57.1475 10.8247 57.3979 10.2527C57.0233 10.1966 56.6913 10.2488 56.5537 10.1096C55.6781 9.22459 54.8139 8.32414 54.0113 7.37351C53.579 6.86067 53.1228 6.28075 52.9504 5.65611C52.6989 4.74175 52.693 3.7598 52.5742 2.7386C52.9867 2.15868 53.3221 1.47937 53.8459 1.01126C54.3274 0.580916 55.0122 0.378167 55.7546 0C55.9275 0.187344 56.096 0.368725 56.2664 0.553088C56.167 0.648499 54.8437 1.92314 54.8437 1.92314C54.9391 2.01904 55.035 2.11495 55.1762 2.25558C55.7819 1.81381 56.3852 1.23588 57.3701 1.61702C57.1256 1.95196 56.9353 2.21235 56.6009 2.67003C57.0531 2.49362 57.3055 2.39572 57.6554 2.25956C57.8203 2.50803 57.9972 2.77488 58.2119 3.09888C57.8382 3.47307 57.5445 3.76676 57.1902 4.12157C57.4188 4.16828 57.5421 4.19412 57.7468 4.23636C57.4397 4.75417 57.6131 5.47025 56.8215 5.73462C57.6072 6.70116 58.4818 7.23387 59.3693 7.82323C62.3569 5.34602 65.2793 2.92247 68.241 0.466621H69.5485C69.3194 0.925788 69.1375 1.29203 68.9532 1.66274C69.3457 1.96239 69.6563 1.62597 70.0042 1.4749C71.009 2.41262 71.2455 3.58339 71.0388 4.88934C70.6214 5.42503 70.1925 5.97514 69.7547 6.53667C69.783 6.56251 69.8481 6.62314 70.027 6.78862C69.786 6.81943 69.5539 6.84924 69.3214 6.87906C69.4123 6.97646 69.5033 7.07436 69.5942 7.17225H69.0898C68.161 8.91997 66.5912 10.1091 65.4418 11.7013C67.0171 12.5789 68.7797 13.2319 70.4464 14.2252C70.4971 14.4757 70.5543 14.7599 70.6214 15.0959C70.8261 14.8792 70.9797 14.7167 71.1277 14.5602C71.7986 14.6506 71.7847 15.4219 72.3477 15.7041C72.8407 15.9516 73.1284 16.6085 73.512 17.0906V18.6996C73.3818 18.8298 73.2541 18.9575 73.0752 19.1364C71.6798 18.9874 70.526 18.1923 69.2553 17.5492C69.2295 17.5726 69.135 17.6581 69.0938 17.6953C68.2048 17.4757 67.6745 16.5216 66.6489 16.6642C66.1708 16.0495 65.3847 16.0018 64.7715 15.6395C64.1518 15.2738 63.5515 14.8767 62.8056 14.4071" fill="black"/>
<path fill-rule="evenodd" clip-rule="evenodd" d="M102.272 36.0592C102.552 36.2172 102.772 36.3415 103.095 36.5238C103.021 36.9651 102.947 37.4099 102.856 37.9575C103.083 38.3521 103.273 38.9529 103.963 39.1954C104.271 38.765 104.461 38.2726 105.054 38.032C105.471 37.8626 105.716 37.2687 106.036 36.8628C106.387 36.416 106.875 36.1109 107.152 35.5667C107.384 35.1091 107.884 34.796 108.2 34.3696C108.525 33.9289 108.772 33.4294 109.053 32.9564H110.58C110.661 33.3847 110.793 33.8081 110.289 34.2504C110.724 34.2702 111.061 34.2856 111.369 34.2996C111.507 34.9317 111.631 35.5041 111.753 36.0637C111.533 36.1496 111.378 36.2103 111.194 36.2818C111.214 36.4061 111.211 36.5358 111.255 36.6461C111.633 37.5788 111.571 37.8989 110.845 38.6189C110.542 38.9191 110.415 39.3862 110.539 39.6779C110.732 40.1361 110.15 39.9596 110.425 40.3825C110.134 40.1425 110.043 40.067 109.885 39.9368V40.6916C109.598 40.7468 109.351 40.794 109.057 40.8502V41.5911C108.71 41.9524 108.465 42.2078 108.262 42.4205C108.734 42.8831 109.17 43.3095 109.532 43.6648V44.6855C109.824 44.9777 110.13 45.2833 110.443 45.5974C110.346 45.7703 110.284 45.8791 110.175 46.0704C110.317 46.3587 110.491 46.7135 110.716 47.1712C110.455 47.7168 110.166 48.3196 109.892 48.892H108.762C107.447 48.1392 106.171 47.4082 104.899 46.6797C104.673 47.028 104.494 47.3053 104.342 47.5404C104.107 47.4261 103.926 47.3376 103.615 47.1861V48.4473C103.203 48.2937 102.915 48.1864 102.375 47.9856C102.598 48.2898 102.659 48.3727 102.776 48.5328C102.527 48.7663 102.265 49.0133 101.849 49.4039C101.765 48.8995 101.713 48.5834 101.656 48.2356C101.846 48.17 102 48.1168 102.196 48.0487C102.215 47.9469 102.239 47.8236 102.267 47.6731C102.096 47.6134 101.938 47.5598 101.78 47.5051C101.838 47.2656 101.897 47.0241 101.998 46.6146C101.747 46.8447 101.65 46.9336 101.592 46.9863C101.015 46.878 100.47 46.7761 99.8947 46.6688C99.8063 46.4988 99.6915 46.2772 99.5558 46.0178C99.6582 45.6212 99.7744 45.171 99.8922 44.7118C100.157 44.7556 100.494 44.8117 100.83 44.8674C100.844 44.8177 100.857 44.768 100.872 44.7178C100.52 44.5414 100.17 44.365 99.8599 44.2094C100.041 43.8347 100.222 43.4615 100.41 43.0729C99.518 41.5588 98.5465 40.1296 97.9974 38.4847C97.6679 37.3517 98.058 36.2321 98.221 35.117C98.3478 34.2499 99.0648 33.6367 99.8495 33.1979C99.9613 33.1352 100.067 33.0632 100.246 32.9519H101.594C101.806 33.1646 101.998 33.3564 102.132 33.4911C101.867 33.7564 101.597 34.0258 101.437 34.1853V35.0191C101.736 34.9416 102.023 34.8676 102.351 34.7826C102.522 34.9431 102.68 35.0907 102.899 35.2949C102.669 35.5752 102.48 35.8063 102.272 36.0592" fill="black"/>
<path fill-rule="evenodd" clip-rule="evenodd" d="M20.7683 49.9784C20.9214 50.1315 21.0491 50.2592 21.23 50.4401C20.3996 51.1502 19.5737 51.8559 18.7483 52.562C18.7667 52.6097 18.7856 52.6574 18.8045 52.7046C18.9799 52.6534 19.1941 52.649 19.3218 52.5416C19.5603 52.3419 19.7481 52.083 20.0756 52.0184C20.6545 51.6919 21.2335 51.3649 21.7965 51.0469C22.2875 51.4439 21.9292 51.7575 21.718 52.239C22.0395 52.1172 22.2477 52.0382 22.4718 51.9528C22.5697 52.0507 22.6974 52.1784 22.8257 52.3066C22.8262 52.8477 22.8262 53.3894 22.8262 53.9375C22.6681 54.0916 22.5071 54.2496 22.3367 54.4156C22.3615 54.4782 22.368 54.5646 22.4142 54.5984C22.7223 54.8295 23.0299 55.0636 23.3549 55.2693C23.7042 55.4899 24.1932 55.5535 24.2066 56.1186C24.2081 56.1837 24.3184 56.2572 24.391 56.3084C24.6698 56.5047 24.9963 56.6533 25.2234 56.8963C25.45 57.1383 25.5787 57.4717 25.8078 57.8633C25.8078 58.0924 25.8078 58.4537 25.8073 58.8144C25.5831 59.0381 25.36 59.2617 25.1732 59.4485C23.4642 58.8378 21.7751 58.2345 20.0866 57.6312C19.7114 57.8315 19.3074 58.0467 18.9029 58.2618C18.886 58.2345 18.8691 58.2072 18.8522 58.1798C18.5008 58.5307 18.1495 58.882 17.7008 59.3307C17.6943 59.4376 17.6814 59.6473 17.665 59.9146C16.9534 60.5989 16.2085 61.316 15.6077 61.8944C15.306 62.8302 15.4591 63.7912 14.2123 63.9885C13.9544 63.5761 13.0281 63.51 13.2393 62.5484C12.9829 62.4744 12.6678 62.3824 12.3244 62.283C12.2469 62.3352 12.1073 62.4286 11.9985 62.5012C11.6496 62.1325 11.345 61.8095 10.9022 61.3408C10.8033 60.4956 10.6766 59.4137 10.5434 58.2753C11.669 57.0583 12.7781 55.8592 13.9549 54.5865C13.4947 54.2983 13.0201 54.0573 12.6137 53.7318C12.1932 53.3949 11.8389 52.9755 11.4449 52.5814C11.5537 52.2301 11.6645 51.8718 11.7838 51.4846C11.5631 51.4091 11.4056 51.3549 11.2098 51.2874V50.372C11.2854 50.296 11.3813 50.2006 11.4921 50.0893C11.8797 50.0122 12.2867 49.9312 12.7896 49.8309C14.1283 50.5822 15.5923 51.4036 17.0165 52.2022C18.4447 51.6591 19.3705 50.4063 20.7683 49.9784" fill="black"/>
</svg>
