<svg width="1440" height="239" viewBox="0 0 1440 239" fill="none" xmlns="http://www.w3.org/2000/svg">
<rect width="1440" height="239" fill="#F5F6F8"/>
<path d="M106.272 156.75V151.189H100.217C98.5701 151.189 97.0448 152.054 96.2014 153.465L94.2383 156.75H106.272Z" fill="#63D2F9"/>
<path d="M87 135.389V140.949H102.949L106.272 135.389H87Z" fill="#4E5EE4"/>
<path d="M94.633 144.079L87.0176 156.75H93.5058L102.613 141.591H99.0297C97.2276 141.591 95.558 142.536 94.633 144.079Z" fill="#63B0F9"/>
<path d="M120.076 151.413C116.814 151.413 114.413 149.042 114.413 145.859C114.413 142.707 116.829 140.305 120.092 140.305C123.354 140.305 125.77 142.738 125.77 145.859C125.77 149.011 123.339 151.413 120.076 151.413ZM120.092 149.47C122.154 149.47 123.631 147.94 123.631 145.859C123.631 143.809 122.154 142.248 120.092 142.248C118.014 142.248 116.537 143.809 116.537 145.859C116.537 147.94 118.014 149.47 120.092 149.47ZM127.955 154.733V143.166H129.925V144.192H130.033C130.248 143.855 130.987 142.968 132.464 142.968C134.726 142.968 136.281 144.651 136.281 147.16C136.281 149.669 134.742 151.413 132.526 151.413C131.095 151.413 130.325 150.617 130.064 150.174H129.956V154.733H127.955ZM132.08 149.608C133.372 149.608 134.249 148.613 134.249 147.19C134.249 145.722 133.372 144.773 132.064 144.773C130.741 144.773 129.91 145.829 129.91 147.19C129.91 148.69 130.833 149.608 132.08 149.608ZM142.005 151.413C139.62 151.413 137.927 149.638 137.927 147.236C137.927 144.696 139.635 142.968 142.005 142.968C144.606 142.968 146.022 144.88 146.022 147.144V147.772H139.866C139.928 148.996 140.774 149.822 142.067 149.822C143.052 149.822 143.806 149.363 144.083 148.705H145.945C145.545 150.342 144.098 151.413 142.005 151.413ZM139.897 146.364H144.113C144.021 145.278 143.175 144.559 142.005 144.559C140.882 144.559 140.02 145.354 139.897 146.364ZM148.176 151.214V143.166H150.084V144.146H150.192C150.515 143.549 151.315 142.968 152.469 142.968C154.285 142.968 155.393 144.237 155.393 145.951V151.214H153.393V146.471C153.393 145.492 152.762 144.834 151.838 144.834C150.869 144.834 150.176 145.599 150.176 146.609V151.214H148.176ZM157.378 151.214V149.393L162.98 142.371V142.264H157.578V140.504H165.534V142.31L159.933 149.332V149.455H165.565V151.214H157.378ZM170.982 151.413C168.596 151.413 166.903 149.638 166.903 147.236C166.903 144.696 168.612 142.968 170.982 142.968C173.582 142.968 174.998 144.88 174.998 147.144V147.772H168.842C168.904 148.996 169.75 149.822 171.043 149.822C172.028 149.822 172.782 149.363 173.059 148.705H174.921C174.521 150.342 173.075 151.413 170.982 151.413ZM168.873 146.364H173.09C172.998 145.278 172.151 144.559 170.982 144.559C169.858 144.559 168.996 145.354 168.873 146.364ZM177.152 154.733V143.166H179.122V144.192H179.23C179.445 143.855 180.184 142.968 181.661 142.968C183.923 142.968 185.478 144.651 185.478 147.16C185.478 149.669 183.939 151.413 181.723 151.413C180.292 151.413 179.522 150.617 179.261 150.174H179.153V154.733H177.152ZM181.277 149.608C182.569 149.608 183.446 148.613 183.446 147.19C183.446 145.722 182.569 144.773 181.261 144.773C179.938 144.773 179.107 145.829 179.107 147.19C179.107 148.69 180.03 149.608 181.277 149.608ZM187.632 154.733V143.166H189.602V144.192H189.709C189.925 143.855 190.663 142.968 192.141 142.968C194.403 142.968 195.957 144.651 195.957 147.16C195.957 149.669 194.418 151.413 192.202 151.413C190.771 151.413 190.002 150.617 189.74 150.174H189.632V154.733H187.632ZM191.756 149.608C193.049 149.608 193.926 148.613 193.926 147.19C193.926 145.722 193.049 144.773 191.741 144.773C190.417 144.773 189.586 145.829 189.586 147.19C189.586 148.69 190.51 149.608 191.756 149.608ZM201.682 151.413C199.296 151.413 197.604 149.638 197.604 147.236C197.604 144.696 199.312 142.968 201.682 142.968C204.282 142.968 205.698 144.88 205.698 147.144V147.772H199.543C199.604 148.996 200.451 149.822 201.743 149.822C202.728 149.822 203.482 149.363 203.759 148.705H205.621C205.221 150.342 203.775 151.413 201.682 151.413ZM199.573 146.364H203.79C203.698 145.278 202.851 144.559 201.682 144.559C200.558 144.559 199.696 145.354 199.573 146.364ZM209.822 151.214C208.406 151.214 207.606 150.373 207.606 148.95V139.739H209.607V148.766C209.607 149.225 209.837 149.47 210.253 149.47H210.576V151.214H209.822ZM213.5 142.095C212.776 142.095 212.268 141.652 212.268 140.933C212.268 140.244 212.776 139.785 213.5 139.785C214.223 139.785 214.731 140.244 214.731 140.933C214.731 141.652 214.223 142.095 213.5 142.095ZM212.499 151.214V143.166H214.5V151.214H212.499ZM216.931 151.214V143.166H218.839V144.146H218.947C219.27 143.549 220.07 142.968 221.224 142.968C223.04 142.968 224.148 144.237 224.148 145.951V151.214H222.148V146.471C222.148 145.492 221.517 144.834 220.594 144.834C219.624 144.834 218.931 145.599 218.931 146.609V151.214H216.931Z" fill="#282846"/>
<path d="M332.912 148.754H341.974L337.182 141.045L328.388 154.984H324.385L335.082 138.24C335.547 137.564 336.323 137.155 337.182 137.155C338.014 137.155 338.789 137.549 339.24 138.212L349.98 154.984H345.977L344.088 151.869H334.913L332.912 148.754ZM374.489 151.869V137.324H371.093V153.293C371.093 153.729 371.262 154.152 371.586 154.476C371.91 154.801 372.347 154.984 372.826 154.984H388.316L390.317 151.869H374.489ZM318.296 149.262C321.594 149.262 324.272 146.598 324.272 143.3C324.272 140.002 321.594 137.324 318.296 137.324H303.437V154.984H306.832V140.439H318.071C319.649 140.439 320.918 141.721 320.918 143.3C320.918 144.878 319.649 146.161 318.071 146.161L308.495 146.147L318.634 154.984H323.567L316.746 149.262H318.296ZM282.535 154.984C277.66 154.984 273.704 151.037 273.704 146.161C273.704 141.284 277.66 137.324 282.535 137.324H292.8C297.677 137.324 301.63 141.284 301.63 146.161C301.63 151.037 297.677 154.984 292.8 154.984H282.535ZM292.572 151.869C295.73 151.869 298.288 149.318 298.288 146.161C298.288 143.004 295.73 140.439 292.572 140.439H282.762C279.605 140.439 277.046 143.004 277.046 146.161C277.046 149.318 279.605 151.869 282.762 151.869H292.572ZM357.069 154.984C352.192 154.984 348.232 151.037 348.232 146.161C348.232 141.284 352.192 137.324 357.069 137.324H369.26L367.273 140.439H357.295C354.137 140.439 351.572 143.004 351.572 146.161C351.572 149.318 354.137 151.869 357.295 151.869H369.542L367.541 154.984H357.069ZM398.604 151.869C395.997 151.869 393.784 150.121 393.108 147.711H407.625L409.626 144.596H393.108C393.784 142.2 395.997 140.439 398.604 140.439H408.569L410.584 137.324H398.379C393.502 137.324 389.542 141.284 389.542 146.161C389.542 151.037 393.502 154.984 398.379 154.984H408.851L410.852 151.869H398.604Z" fill="#EA1B22"/>
<path d="M596.385 141.754C597.46 142.624 596.322 144 595.373 143.304C594.202 142.56 591.545 142.213 591.213 143.857C590.786 146.451 597.666 144.965 597.555 149.172C597.445 153.189 591.624 153.284 589.441 151.481C588.92 151.054 588.935 150.358 589.22 149.931C589.631 149.52 590.09 149.377 590.628 149.82C591.925 150.706 595.262 151.37 595.499 149.124C595.294 146.783 588.714 148.191 589.204 143.699C589.568 140.631 594.202 140.077 596.385 141.754ZM586.009 142.371V148.096C586.009 154.011 576.471 154.011 576.471 148.096V142.371C576.471 140.947 578.543 140.884 578.543 142.371V148.096C578.543 151.212 583.937 151.402 583.937 148.096V142.371C583.937 140.963 586.009 140.852 586.009 142.371ZM520.701 140.931C523.469 141.074 526.363 142.987 526.363 146.736C526.363 150.484 523.469 152.43 520.701 152.43C517.775 152.556 514.738 150.611 514.738 146.736C514.738 142.845 517.775 140.931 520.701 140.931ZM534.636 141.327C538.653 141.327 539.475 146.704 536.122 148.049L538.226 150.611C539.048 151.829 537.404 152.999 536.455 151.797L534.066 148.381H531.583V151.244C531.583 152.62 529.48 152.667 529.48 151.275V142.292C529.48 141.738 529.907 141.327 530.429 141.327H534.636ZM501.863 141.184C502.322 141.184 502.591 141.453 502.86 141.754L506.339 146.451L509.946 141.58C510.467 140.931 511.749 141.184 511.749 142.276V151.18C511.749 151.876 511.306 152.272 510.8 152.272C510.23 152.272 509.787 151.876 509.787 151.18V145.328L507.162 148.65C506.592 149.346 505.881 149.346 505.359 148.65L503.002 145.328V151.18C503.002 151.876 502.433 152.272 501.863 152.272C501.357 152.272 500.914 151.876 500.914 151.18V142.276C500.914 141.453 501.61 141.184 501.863 141.184ZM546.103 141.184C548.159 141.184 550.01 142.56 550.01 145.202C550.01 147.701 548.159 149.093 546.103 149.093H543.462V151.18C543.462 151.876 543.019 152.272 542.449 152.272C541.927 152.272 541.374 151.876 541.374 151.18V142.276C541.374 141.754 541.785 141.184 542.449 141.184H546.103ZM561.208 141.327C561.762 141.327 562.189 141.738 562.189 142.307V151.291C562.189 151.845 561.762 152.272 561.208 152.272C560.639 152.272 560.133 151.845 560.133 151.291V147.827H554.976V151.291C554.976 151.845 554.565 152.272 554.012 152.272C553.3 152.272 552.889 151.845 552.889 151.291V142.307C552.889 141.738 553.3 141.327 554.012 141.327C554.565 141.327 554.976 141.738 554.976 142.307V145.755H560.133V142.307C560.133 141.738 560.639 141.327 561.208 141.327ZM572.217 141.327C573.672 141.327 573.64 143.383 572.217 143.383H567.662V145.755H571.647C573.055 145.755 573.055 147.827 571.647 147.827H567.662V150.2H572.486C573.925 150.2 574.035 152.272 572.486 152.272H566.539C565.985 152.272 565.558 151.845 565.558 151.291V142.307C565.558 141.738 565.985 141.327 566.539 141.327H572.217ZM520.527 142.987C518.756 142.987 516.826 144.237 516.826 146.736C516.826 149.219 518.756 150.484 520.527 150.484C522.346 150.484 524.291 149.219 524.291 146.736C524.291 144.237 522.346 142.987 520.527 142.987ZM546.103 143.177H543.462V147.116H546.103C547.163 147.116 548.001 146.182 548.001 145.202C548.001 144.095 547.163 143.177 546.103 143.177ZM534.636 143.24H531.583V146.562H534.636C536.692 146.562 536.818 143.24 534.636 143.24Z" fill="#3DB5E6"/>
<path d="M488.368 149.63C486.826 155.825 481.184 160.233 474.539 160.233C467.864 160.233 462.271 155.564 460.792 149.344C462.57 149.344 464.233 149.352 465.005 149.352C465.369 149.352 465.439 149.358 465.46 149.356C466.041 149.328 466.769 149.136 467.254 147.958L469.099 143.13L473.199 153C473.567 153.787 474.183 153.731 474.55 153.731H474.584C475.301 153.731 475.612 153.48 475.884 152.961L480.515 143.204L482.094 147.601L482.191 147.814C482.525 148.547 482.765 149.27 483.591 149.365C483.762 149.384 485.74 149.35 488.407 149.35C488.407 149.35 488.407 149.367 488.368 149.63Z" fill="#3DB5E6"/>
<path d="M488.821 145.981C488.821 146.055 488.821 146.24 488.819 146.24H488.816H484.559L482.075 139.302C481.854 138.786 481.521 138.012 480.553 138.012C479.96 138.012 479.424 138.502 479.12 139.31L474.618 149.739L470.284 139.373C469.86 138.452 469.566 138.019 468.718 138.019C468.142 138.019 467.719 138.232 467.258 139.322L464.686 146.343L460.412 146.339C460.409 146.232 460.408 146.125 460.408 146.018C460.408 138.214 466.735 131.906 474.54 131.906C482.344 131.906 488.821 138.177 488.821 145.981Z" fill="#D8292F"/>
<path d="M777.325 144.792V147.652H779.334V150.489C779.34 150.706 779.33 150.938 779.3 151.138L779.283 151.235C779.28 151.256 779.276 151.278 779.271 151.301L779.255 151.371C779.252 151.383 779.248 151.395 779.245 151.407L779.222 151.48C779.041 152.003 778.497 152.665 777.274 152.665C775.972 152.665 775.449 151.905 775.306 151.371L775.289 151.301L775.277 151.235C775.241 151.016 775.226 150.742 775.226 150.489V141.528C775.226 141.246 775.242 140.941 775.293 140.692L775.328 140.541C775.33 140.53 775.333 140.52 775.336 140.509L775.355 140.442C775.358 140.431 775.362 140.42 775.366 140.408L775.391 140.337C775.577 139.842 776.068 139.182 777.264 139.182C778.186 139.182 778.683 139.558 778.949 139.947L778.996 140.02C779.011 140.044 779.025 140.068 779.038 140.092L779.075 140.164L779.108 140.235L779.136 140.304L779.16 140.37L779.181 140.434L779.198 140.494L779.212 140.55L779.223 140.602C779.229 140.627 779.233 140.655 779.238 140.683L779.249 140.771C779.251 140.786 779.253 140.801 779.254 140.816L779.266 140.954L779.274 141.086L779.281 141.266L779.283 141.358V142.446H784.221L784.222 141.769L784.225 141.526L784.224 141.339L784.22 141.12L784.216 141.002L784.207 140.819L784.194 140.631L784.183 140.505C783.849 137.195 781.361 135.921 778.334 135.7L778.131 135.687L777.927 135.676C777.825 135.672 777.722 135.669 777.619 135.667L777.411 135.664C777.377 135.664 777.342 135.664 777.307 135.664L777.099 135.665C777.064 135.666 777.03 135.666 776.995 135.667L776.789 135.673L776.584 135.681L776.381 135.693L776.18 135.708C776.113 135.713 776.046 135.72 775.98 135.726L775.782 135.747C775.749 135.751 775.716 135.755 775.684 135.759L775.489 135.785C775.037 135.851 774.601 135.943 774.189 136.068L774.014 136.123C772.1 136.75 770.71 138.085 770.425 140.505L770.395 140.774L770.375 140.982L770.356 141.2L770.34 141.417C770.331 141.559 770.326 141.692 770.326 141.803L770.326 150.152L770.328 150.255L770.332 150.413L770.337 150.523L770.344 150.641L770.352 150.769L770.364 150.911L770.386 151.153L770.404 151.339C770.681 154.415 773.013 155.783 775.865 156.106L776.065 156.127C776.4 156.159 776.741 156.177 777.086 156.182L777.293 156.183L777.502 156.182C777.849 156.177 778.192 156.159 778.527 156.127L778.728 156.106C781.59 155.783 783.906 154.415 784.188 151.339L784.211 151.068L784.228 150.838L784.243 150.581L784.252 150.359L784.26 150.046V144.792H777.325ZM743.278 136.191H738.319V150.696C738.327 150.948 738.319 151.232 738.276 151.441L738.261 151.504L738.243 151.571C738.237 151.594 738.229 151.617 738.221 151.642L738.195 151.715C738.008 152.214 737.532 152.865 736.392 152.865C735.323 152.865 734.835 152.277 734.63 151.791L734.6 151.715C734.596 151.703 734.591 151.69 734.587 151.678L734.563 151.606L734.544 151.537C734.541 151.526 734.538 151.515 734.536 151.504L734.522 151.441C734.473 151.232 734.466 150.948 734.473 150.696V136.191H729.515V150.245L729.515 150.358L729.516 150.556L729.523 150.847L729.537 151.2L729.546 151.378L729.553 151.472L729.559 151.542C729.802 154.142 731.327 155.496 733.482 156.062L733.665 156.108C734.066 156.204 734.487 156.273 734.925 156.32L735.128 156.34L735.334 156.356L735.541 156.37C735.646 156.376 735.751 156.38 735.857 156.384L736.069 156.39L736.284 156.393C736.32 156.393 736.356 156.393 736.392 156.393L736.608 156.392C736.643 156.391 736.679 156.391 736.715 156.39L736.928 156.384C737.034 156.38 737.139 156.376 737.244 156.37L737.452 156.356L737.657 156.34L737.861 156.32C740.761 156.012 742.936 154.691 743.236 151.542L743.24 151.51L743.248 151.428L743.26 151.263L743.271 151.064L743.277 150.92L743.283 150.699L743.285 150.556L743.284 150.421L743.281 150.3C743.28 150.281 743.279 150.263 743.278 150.245V136.191ZM697.717 136.191L695.244 151.517L692.772 136.191H684.773L684.349 155.798H689.249L689.382 137.647L692.753 155.798H697.725L701.1 137.647L701.233 155.798H706.145L705.707 136.191H697.717ZM668.103 136.191L664.471 155.798H669.767L672.504 137.647L675.175 155.798H680.435L676.818 136.191H668.103ZM760.608 151.977L755.99 136.191H748.715V155.593H753.528L753.248 139.303L758.207 155.593H765.185V136.191H760.34L760.608 151.977ZM716.087 141.294C716 140.906 716.025 140.495 716.07 140.28C716.083 140.223 716.098 140.166 716.116 140.108L716.145 140.022C716.34 139.479 716.798 138.968 717.847 138.968C718.98 138.968 719.644 139.674 719.644 140.733V141.932H724.477V140.566C724.477 137.482 722.459 136.295 720.302 135.88L720.125 135.847L719.947 135.818L719.769 135.792L719.591 135.769L719.413 135.749L719.236 135.732C719.177 135.727 719.118 135.722 719.059 135.717L718.884 135.705L718.71 135.696L718.537 135.688L718.366 135.683L718.197 135.679L717.948 135.677L717.838 135.678L717.619 135.681C717.583 135.682 717.546 135.683 717.51 135.684L717.295 135.692C717.223 135.695 717.152 135.698 717.081 135.703L716.869 135.717C713.92 135.943 711.619 137.154 711.158 139.995C711.022 140.86 710.989 141.628 711.205 142.607C711.547 144.218 712.888 145.363 714.428 146.324L714.666 146.471C714.706 146.495 714.746 146.519 714.786 146.543L715.028 146.685L715.271 146.826L715.515 146.964L715.882 147.167L716.845 147.695L717.079 147.825L717.309 147.954L717.534 148.083L717.754 148.212C718.803 148.837 719.644 149.47 719.947 150.227C720.114 150.677 720.077 151.244 719.997 151.606L719.983 151.664C719.963 151.751 719.937 151.838 719.906 151.924L719.872 152.009C719.649 152.529 719.163 152.973 718.093 152.973C716.873 152.973 716.139 152.271 716.139 151.214L716.137 149.332H710.934V150.828C710.934 154.339 713.161 155.864 715.951 156.316L716.159 156.348C716.298 156.368 716.438 156.385 716.579 156.4L716.792 156.42C717.042 156.442 717.294 156.456 717.548 156.463L717.766 156.468C717.803 156.469 717.839 156.469 717.876 156.469L717.985 156.47C718.058 156.47 718.131 156.469 718.203 156.468L718.42 156.463C718.456 156.462 718.491 156.461 718.527 156.46L718.741 156.45C718.812 156.447 718.882 156.442 718.952 156.437L719.162 156.421C719.301 156.409 719.439 156.395 719.575 156.379L719.778 156.352L719.979 156.323C720.045 156.312 720.111 156.301 720.177 156.289L720.372 156.252C722.733 155.779 724.49 154.496 724.843 152.029C724.892 151.662 724.922 151.322 724.938 151.011L724.946 150.809C724.948 150.775 724.948 150.743 724.949 150.71L724.953 150.521V150.34L724.95 150.168L724.944 150.005L724.936 149.851C724.935 149.826 724.933 149.802 724.931 149.778L724.921 149.637L724.908 149.506L724.895 149.384L724.873 149.219L724.851 149.075L724.822 148.916L724.809 148.851C724.468 147.143 722.973 145.937 721.313 144.945L721.075 144.804L720.835 144.667L720.594 144.532L720.232 144.333L719.752 144.076L718.934 143.641L718.598 143.458C718.561 143.438 718.524 143.418 718.488 143.398L718.273 143.278L718.063 143.158C717.033 142.561 716.254 141.974 716.087 141.294ZM652.323 141.246C652.234 140.875 652.248 140.485 652.294 140.259L652.313 140.174L652.334 140.09C652.498 139.501 652.944 138.894 654.098 138.894C655.245 138.894 655.92 139.607 655.92 140.675V141.889H660.811V140.511C660.811 137.568 658.98 136.332 656.934 135.849L656.756 135.809C656.607 135.777 656.457 135.749 656.306 135.724L656.126 135.696L655.946 135.671L655.766 135.649L655.586 135.631C655.526 135.625 655.466 135.619 655.407 135.614L655.229 135.601L655.052 135.59L654.876 135.581L654.703 135.574L654.531 135.57L654.277 135.566H654.193C654.12 135.566 654.047 135.567 653.974 135.568L653.757 135.573C653.612 135.577 653.469 135.583 653.328 135.592L653.116 135.606C653.081 135.609 653.046 135.611 653.012 135.614L652.803 135.634C652.734 135.641 652.666 135.648 652.598 135.656L652.394 135.683C652.226 135.706 652.06 135.733 651.897 135.763L651.703 135.802L651.511 135.844L651.323 135.89C651.261 135.906 651.199 135.923 651.137 135.94L650.955 135.994C649.057 136.577 647.689 137.801 647.344 139.924C647.202 140.803 647.177 141.576 647.383 142.567C647.746 144.279 649.224 145.471 650.879 146.473L651.122 146.618C651.163 146.642 651.204 146.666 651.244 146.69L651.49 146.831L651.86 147.04L652.353 147.312L653.08 147.71L653.433 147.906L653.776 148.102L653.998 148.233C654.035 148.255 654.071 148.276 654.107 148.298L654.32 148.429C655.228 148.998 655.94 149.584 656.214 150.271C656.394 150.718 656.352 151.285 656.267 151.658L656.252 151.719C656.231 151.804 656.206 151.891 656.174 151.975L656.14 152.059C655.911 152.589 655.421 153.043 654.338 153.043C653.113 153.043 652.38 152.33 652.38 151.258L652.373 149.371H647.112V150.87C647.112 155.079 650.285 156.462 653.799 156.566L654.019 156.571L654.24 156.572L654.458 156.571C654.567 156.569 654.675 156.566 654.782 156.562L654.996 156.553C655.102 156.547 655.208 156.541 655.313 156.533L655.522 156.515L655.728 156.494C655.797 156.487 655.865 156.478 655.933 156.47L656.135 156.442C656.202 156.432 656.268 156.422 656.334 156.411L656.531 156.376C658.976 155.918 660.799 154.621 661.166 152.084C661.216 151.721 661.248 151.386 661.266 151.079L661.275 150.878L661.281 150.686C661.283 150.623 661.283 150.562 661.284 150.502L661.283 150.327L661.28 150.16L661.274 150.001L661.266 149.852L661.256 149.711L661.244 149.579L661.225 149.397L661.205 149.236L661.177 149.052L661.145 148.874C660.806 147.187 659.356 145.987 657.724 145L657.484 144.857C657.444 144.833 657.404 144.81 657.363 144.786L657.121 144.648L656.877 144.511L656.633 144.378L656.39 144.246L655.315 143.675L654.971 143.491L654.748 143.369L654.53 143.248L654.319 143.128C654.284 143.108 654.25 143.088 654.215 143.068L654.014 142.947C653.126 142.406 652.474 141.865 652.323 141.246Z" fill="#1428A0"/>
<path d="M836.659 153.318C835.63 153.32 834.68 152.769 834.172 151.875C833.67 150.986 833.7 149.893 834.25 149.033L839.372 140.989C839.906 140.109 840.872 139.584 841.901 139.615C842.929 139.64 843.864 140.216 844.348 141.124C844.826 142.027 844.766 143.113 844.194 143.961L839.075 152.005C838.547 152.827 837.636 153.322 836.659 153.318Z" fill="#F62B54"/>
<path d="M845.446 153.318C844.413 153.318 843.462 152.765 842.963 151.878C842.463 150.991 842.493 149.901 843.041 149.044L848.154 141.018C848.68 140.125 849.649 139.588 850.685 139.615C851.727 139.637 852.671 140.22 853.148 141.132C853.623 142.044 853.553 143.136 852.964 143.982L847.852 152.008C847.326 152.826 846.419 153.32 845.446 153.318Z" fill="#FFCC00"/>
<path d="M854.036 153.386C855.493 153.386 856.673 152.23 856.673 150.804C856.673 149.378 855.493 148.222 854.036 148.222C852.579 148.222 851.399 149.378 851.399 150.804C851.399 152.23 852.579 153.386 854.036 153.386Z" fill="#00CA72"/>
<path d="M968.607 148.371C969.404 148.371 969.88 148.937 969.88 149.865V153.045H970.962V149.792C970.962 148.214 970.219 147.299 968.821 147.299C968.274 147.299 967.405 147.449 966.888 148.455C966.643 147.851 966.085 147.43 965.437 147.359C965.236 147.322 965.032 147.31 964.829 147.323C964.384 147.359 963.592 147.636 963.295 148.263V147.42H962.212V153.045H963.295V150.009C963.295 148.829 964.068 148.371 964.842 148.371C965.567 148.371 966.043 148.925 966.043 149.853V153.045H967.12V150.009C967.12 149.07 967.684 148.36 968.607 148.371ZM958.237 152.105C958.732 152.116 959.209 151.919 959.555 151.56C959.903 151.202 960.087 150.715 960.069 150.215C960.069 149.082 959.235 148.371 958.237 148.371C957.237 148.371 956.405 149.082 956.405 150.215C956.385 150.714 956.57 151.2 956.915 151.557C957.26 151.915 957.735 152.114 958.228 152.105H958.237ZM958.237 153.16C956.654 153.16 955.334 151.991 955.334 150.208C955.334 148.425 956.654 147.293 958.237 147.293C959.819 147.293 961.151 148.425 961.151 150.208C961.151 151.991 959.812 153.166 958.229 153.166L958.237 153.16ZM949.761 150.208L949.75 150.215C949.75 148.431 951.105 147.299 952.699 147.293C953.508 147.277 954.286 147.605 954.84 148.196L954.019 148.895C953.667 148.549 953.192 148.359 952.699 148.365C951.7 148.365 950.832 149.076 950.832 150.208C950.832 150.973 951.287 151.662 951.984 151.955C952.682 152.248 953.485 152.086 954.019 151.545L954.852 152.244C954.296 152.841 953.514 153.174 952.699 153.16C951.117 153.16 949.761 151.991 949.761 150.208ZM946.295 151.965C946.293 151.767 946.37 151.575 946.508 151.433C946.647 151.291 946.837 151.21 947.035 151.208C947.234 151.21 947.424 151.291 947.562 151.433C947.701 151.575 947.778 151.767 947.776 151.965C947.756 152.361 947.431 152.672 947.035 152.676C946.64 152.672 946.315 152.361 946.295 151.965Z" fill="#333333"/>
<path d="M949.256 140.269H945.402L942.701 147.234L940.014 140.269H936.16L940.845 151.274L937.931 158.55H941.757L949.256 140.269ZM925.818 146.391C925.818 148.149 927.355 149.306 928.864 149.306C930.348 149.306 931.806 148.229 931.806 146.389C931.806 144.55 930.348 143.472 928.864 143.472C927.355 143.472 925.818 144.63 925.818 146.389V146.391ZM931.806 152.536V151.143C931.024 152.326 929.201 152.773 928.265 152.773C925.168 152.773 922.069 150.331 922.069 146.389C922.069 142.449 925.167 140.007 928.265 140.007C929.046 140.007 930.869 140.267 931.806 141.635V140.274H935.398V152.538L931.806 152.537V152.536ZM921.047 152.536H917.455V151.012C916.854 152.141 915.399 152.798 913.888 152.798C910.764 152.798 908.004 150.303 908.004 146.439C908.004 142.503 910.764 140.005 913.888 140.005C915.397 140.005 916.857 140.634 917.455 141.764V133.588H921.047V152.536ZM917.376 146.362C917.376 144.524 916.049 143.446 914.566 143.446C913.029 143.446 911.752 144.602 911.752 146.362C911.752 148.179 913.029 149.33 914.564 149.33C916.076 149.332 917.376 148.123 917.376 146.362ZM899.122 146.045C899.122 144.181 900.085 143.55 901.361 143.55C902.584 143.55 903.469 144.364 903.469 145.992V152.533H907.088V145.205C907.088 141.713 905.369 140.005 902.635 140.005C901.203 140.005 899.772 140.819 899.121 142.054V140.269H895.504V152.533H899.122V146.045ZM888.157 152.744C884.721 152.744 881.854 150.223 881.854 146.361C881.854 142.498 884.717 140.001 888.157 140.001C891.596 140.001 894.484 142.498 894.484 146.361C894.484 150.225 891.593 152.745 888.157 152.745V152.744ZM888.157 149.173C889.665 149.173 890.917 148.068 890.917 146.362C890.917 144.707 889.666 143.577 888.157 143.577C887.422 143.566 886.715 143.857 886.201 144.382C885.684 144.909 885.403 145.624 885.423 146.362C885.424 148.071 886.673 149.173 888.157 149.173ZM875.368 143.551C876.434 143.551 877.372 144.393 877.372 145.993V152.536H880.964V145.57C880.964 141.867 879.164 140.002 876.278 140.002C875.421 140.002 873.806 140.263 872.634 142.182C871.956 140.763 870.655 140.027 868.732 140.027C867.368 140.02 866.126 140.812 865.556 142.05V140.271H861.936V152.534H865.553V146.045C865.553 144.181 866.569 143.55 867.662 143.55C868.704 143.55 869.639 144.364 869.666 145.914V152.534H873.285V146.045C873.285 144.262 874.223 143.552 875.368 143.552V143.551Z" fill="#333333"/>
<path d="M1045.26 147.07L1045.28 147.071L1047.18 147.269C1047.31 147.284 1047.43 147.349 1047.52 147.45L1047.53 147.467L1047.52 147.476C1047.6 147.588 1047.64 147.731 1047.62 147.873C1047.21 151.165 1045.65 154.207 1043.22 156.464C1040.69 158.806 1037.37 160.107 1033.93 160.107C1032.26 160.109 1030.6 159.801 1029.04 159.199L1028.96 159.165C1028.83 159.118 1028.73 159.021 1028.67 158.897L1028.66 158.877C1028.61 158.754 1028.61 158.615 1028.65 158.49L1029.4 156.664C1029.5 156.406 1029.79 156.276 1030.05 156.367L1030.07 156.374C1033.89 157.851 1038.22 157.019 1041.23 154.231C1043.14 152.473 1044.38 150.098 1044.72 147.521C1044.75 147.255 1044.98 147.062 1045.25 147.069L1045.26 147.07ZM1090.03 139.322C1091.65 139.322 1092.92 139.815 1093.72 140.762L1093.75 140.795V139.993C1093.76 139.769 1093.93 139.588 1094.15 139.567L1094.17 139.565H1096.33C1096.55 139.581 1096.73 139.755 1096.75 139.975L1096.75 139.993V151.966C1096.82 153.654 1096.3 155.314 1095.28 156.662C1094.12 158.076 1092.35 158.792 1090.03 158.792C1086.81 158.792 1084.27 156.752 1083.85 153.839C1083.83 153.628 1083.96 153.433 1084.15 153.367L1084.17 153.361L1086.28 152.866C1086.29 152.864 1086.3 152.862 1086.31 152.86C1086.54 152.826 1086.76 152.986 1086.79 153.217C1086.99 154.852 1088.39 156.071 1090.03 156.032C1092.53 156.032 1093.7 154.765 1093.72 152.118L1093.72 152.038V150.989C1092.79 152.036 1091.44 152.615 1090.03 152.569C1086.45 152.569 1083.85 149.786 1083.85 145.959C1083.82 144.237 1084.43 142.564 1085.55 141.263C1086.7 140.004 1088.33 139.297 1090.03 139.322ZM1025.12 153.884L1025.15 153.884L1025.18 153.884C1026.04 153.894 1026.73 154.589 1026.74 155.446L1026.74 155.473C1026.74 155.482 1026.74 155.491 1026.74 155.5C1026.73 156.378 1026 157.077 1025.12 157.062C1024.25 157.047 1023.55 156.324 1023.56 155.446C1023.58 154.586 1024.27 153.898 1025.12 153.884ZM1127.37 139.156L1127.48 139.156C1131.33 139.21 1133.72 141.892 1133.72 146.184C1133.72 146.411 1133.71 146.638 1133.68 146.864C1133.66 147.072 1133.49 147.232 1133.29 147.242L1133.27 147.242H1124.11C1124.17 149.166 1125.76 150.688 1127.68 150.66C1129.17 150.754 1130.53 149.805 1130.96 148.373C1131.04 148.167 1131.26 148.056 1131.47 148.115L1131.49 148.12L1133.31 148.764C1133.42 148.797 1133.5 148.868 1133.54 148.963L1133.55 148.98C1133.6 149.08 1133.61 149.195 1133.58 149.3C1132.73 151.814 1130.33 153.478 1127.68 153.398C1125.94 153.415 1124.27 152.735 1123.04 151.511C1121.69 150.093 1120.97 148.193 1121.04 146.238C1121.04 141.847 1124.2 139.209 1127.28 139.156L1127.37 139.156ZM1075.55 139.156H1075.55C1079.47 139.156 1081.91 141.848 1081.91 146.184C1081.91 146.411 1081.9 146.638 1081.87 146.864C1081.85 147.073 1081.68 147.234 1081.47 147.242L1081.46 147.242H1072.3C1072.36 149.171 1073.95 150.695 1075.88 150.66C1077.38 150.755 1078.74 149.806 1079.16 148.373C1079.24 148.165 1079.46 148.054 1079.67 148.115L1079.69 148.12L1081.52 148.764C1081.62 148.799 1081.71 148.877 1081.75 148.98C1081.8 149.083 1081.8 149.198 1081.75 149.3C1080.91 151.812 1078.52 153.476 1075.86 153.398C1074.12 153.417 1072.45 152.738 1071.21 151.511C1069.86 150.092 1069.14 148.192 1069.21 146.238C1069.21 141.803 1072.43 139.156 1075.55 139.156ZM1061.68 139.151C1063.44 139.151 1064.86 139.579 1065.91 140.421C1066.63 140.989 1067.15 141.755 1067.43 142.623L1067.43 142.626C1067.47 142.776 1067.38 142.926 1067.23 142.97L1067.22 142.974L1065.04 143.694C1064.94 143.733 1064.83 143.733 1064.73 143.694C1064.65 143.656 1064.59 143.583 1064.56 143.496L1064.55 143.453C1064.35 142.742 1063.7 141.6 1061.68 141.6C1060.24 141.6 1059.37 142.429 1059.37 143.23L1059.37 143.262C1059.38 143.783 1059.67 144.438 1060.91 144.686L1060.95 144.694L1063.35 145.144C1066.01 145.679 1067.54 147.123 1067.57 149.135L1067.57 149.197L1067.56 149.161L1067.56 149.222C1067.52 151.239 1065.57 153.361 1061.98 153.361C1057.77 153.361 1056.12 150.98 1055.81 149.575C1055.79 149.428 1055.88 149.289 1056.02 149.246L1056.03 149.242L1058.29 148.539C1058.33 148.533 1058.37 148.533 1058.41 148.539C1058.47 148.538 1058.52 148.55 1058.57 148.574L1058.59 148.584C1058.68 148.624 1058.74 148.698 1058.76 148.787C1059.04 150.138 1060.26 150.944 1062.02 150.944C1063.65 150.944 1064.4 150.088 1064.4 149.314C1064.4 148.548 1063.75 147.98 1062.63 147.745L1062.6 147.738L1060.07 147.247C1057.71 146.801 1056.25 145.338 1056.25 143.433C1056.25 141.114 1058.74 139.151 1061.68 139.151ZM1152.49 135.4H1154.46C1154.69 135.414 1154.87 135.603 1154.88 135.833L1154.88 135.851V139.547H1157.25C1157.48 139.563 1157.66 139.751 1157.67 139.98L1157.67 139.997V141.961L1157.67 141.978C1157.66 142.198 1157.48 142.377 1157.26 142.388L1157.25 142.388H1154.88V148.958C1154.88 150.047 1155.31 150.498 1156.42 150.498C1156.65 150.494 1156.87 150.477 1157.1 150.447L1157.18 150.435C1157.3 150.414 1157.43 150.449 1157.52 150.529C1157.61 150.608 1157.66 150.717 1157.66 150.832L1157.67 150.854V152.704C1157.67 152.893 1157.54 153.06 1157.36 153.114C1156.85 153.259 1156.31 153.332 1155.77 153.331L1155.7 153.33C1153.35 153.33 1151.88 151.834 1151.85 149.414L1151.85 149.341V142.415H1149.8C1149.58 142.402 1149.4 142.227 1149.38 142.006L1149.38 141.988V140.015C1149.38 139.783 1149.56 139.589 1149.79 139.567L1149.8 139.565L1150.35 139.565L1150.41 139.564C1151.06 139.546 1152.04 139.285 1152.06 137.85L1152.06 137.805V135.851C1152.06 135.618 1152.24 135.424 1152.47 135.402L1152.49 135.4ZM1114.24 139.154L1114.3 139.156H1114.29C1116.61 139.156 1118.95 140.771 1119 144.298L1119 144.406V152.745C1118.99 152.968 1118.81 153.149 1118.59 153.171L1118.57 153.172H1116.42C1116.19 153.159 1116.01 152.984 1115.99 152.763L1115.99 152.745V144.676L1115.99 144.614C1115.98 143.586 1115.63 141.934 1113.51 141.934C1111.95 141.934 1110.83 143.152 1110.81 144.924L1110.81 144.977V152.745C1110.8 152.968 1110.63 153.149 1110.4 153.171L1110.39 153.172H1108.2C1107.98 153.159 1107.8 152.984 1107.78 152.763L1107.78 152.745V144.676L1107.78 144.614C1107.77 143.586 1107.42 141.934 1105.3 141.934C1103.67 141.934 1102.57 143.143 1102.55 144.95L1102.55 145.005V152.745C1102.54 152.968 1102.36 153.149 1102.14 153.171L1102.12 153.172H1099.97C1099.75 153.157 1099.57 152.982 1099.55 152.763L1099.55 152.745V139.966C1099.56 139.744 1099.73 139.564 1099.95 139.54L1099.97 139.538H1102.04C1102.27 139.551 1102.45 139.727 1102.47 139.948L1102.47 139.966V140.736C1103.4 139.712 1104.73 139.137 1106.11 139.156C1107.72 139.109 1109.22 139.957 1110 141.357C1110.93 139.931 1112.54 139.096 1114.24 139.154ZM1146.54 140.745C1147.37 141.834 1147.79 143.172 1147.75 144.537L1147.75 144.595V152.745C1147.73 152.967 1147.56 153.147 1147.34 153.171L1147.33 153.172H1145.14C1144.92 153.159 1144.74 152.984 1144.72 152.763L1144.72 152.745V145.032C1144.72 143.014 1143.77 141.988 1141.97 141.988C1141.17 141.962 1140.41 142.316 1139.92 142.942C1139.44 143.629 1139.2 144.449 1139.22 145.284L1139.22 145.333V152.745C1139.21 152.968 1139.03 153.149 1138.81 153.171L1138.79 153.172H1136.62C1136.39 153.159 1136.21 152.984 1136.19 152.763L1136.19 152.745V139.957C1136.2 139.733 1136.38 139.553 1136.6 139.531L1136.62 139.529H1138.75C1138.97 139.545 1139.14 139.719 1139.16 139.939L1139.16 139.957V140.858C1140.08 139.751 1141.45 139.123 1142.88 139.156C1144.28 139.096 1145.63 139.682 1146.54 140.745ZM1021.04 147.616H1036.54C1036.83 147.619 1037.06 147.847 1037.06 148.129L1037.07 148.147V150.088C1037.07 150.373 1036.84 150.607 1036.56 150.619L1036.54 150.619H1021.04C1020.75 150.617 1020.52 150.389 1020.52 150.106V150.088V148.147V148.129C1020.52 147.853 1020.75 147.628 1021.02 147.617L1021.04 147.616ZM1090.41 142.015C1088.28 142.015 1086.93 143.528 1086.93 145.959C1086.93 148.391 1088.27 149.899 1090.41 149.899C1092.45 149.899 1093.83 148.314 1093.83 145.959C1093.83 143.6 1092.45 142.015 1090.41 142.015ZM1072.39 144.645L1072.39 144.694H1078.8C1078.64 142.982 1077.43 141.915 1075.63 141.893L1075.57 141.893C1073.98 141.867 1072.62 143.032 1072.4 144.598L1072.39 144.645ZM1124.22 144.645L1124.22 144.694H1130.63C1130.47 142.982 1129.26 141.915 1127.46 141.893L1127.4 141.893C1125.81 141.867 1124.45 143.032 1124.23 144.598L1124.22 144.645ZM1038.48 132.807C1038.62 132.855 1038.73 132.956 1038.78 133.086C1038.84 133.217 1038.84 133.364 1038.78 133.496L1038.11 135.297C1038.02 135.564 1037.72 135.705 1037.46 135.612C1033.92 134.377 1029.99 135.079 1027.1 137.462C1025.3 138.971 1024.02 141.01 1023.44 143.289C1023.38 143.519 1023.18 143.68 1022.94 143.681H1022.82L1020.97 143.235C1020.83 143.202 1020.71 143.114 1020.64 142.992H1020.63C1020.55 142.869 1020.53 142.721 1020.57 142.582C1021.31 139.665 1022.96 137.059 1025.28 135.144C1028.97 132.106 1033.98 131.22 1038.48 132.807ZM1031.62 140.587H1047.12C1047.4 140.59 1047.62 140.807 1047.64 141.082L1047.64 141.101V143.041C1047.64 143.326 1047.42 143.56 1047.14 143.572L1047.12 143.573H1031.62C1031.33 143.568 1031.11 143.341 1031.1 143.06L1031.1 143.041V141.119C1031.1 140.836 1031.32 140.602 1031.6 140.588L1031.62 140.587ZM1042.38 134.666L1042.41 134.666L1042.43 134.666C1043.29 134.676 1043.99 135.372 1043.99 136.229L1043.99 136.256C1043.99 136.265 1043.99 136.274 1043.99 136.283C1043.98 137.16 1043.26 137.86 1042.38 137.845C1041.5 137.83 1040.8 137.106 1040.82 136.229C1040.83 135.369 1041.53 134.68 1042.38 134.666Z" fill="#4FB58B"/>
<path d="M1207.52 154.327C1207.36 154.232 1207.22 154 1207.22 153.81V138.327C1207.22 138.138 1207.36 137.906 1207.52 137.81L1221.1 130.071C1221.27 129.976 1221.54 129.976 1221.7 130.071L1235.28 137.811C1235.44 137.906 1235.58 138.139 1235.58 138.328V153.811C1235.58 154 1235.44 154.233 1235.28 154.328L1221.7 162.067C1221.54 162.162 1221.27 162.162 1221.1 162.067L1207.52 154.327ZM1248.34 139.868V146.148H1251.02C1252.97 146.148 1253.84 145.354 1253.84 144.055V141.962C1253.84 140.663 1252.97 139.868 1251.02 139.868H1248.34ZM1248.34 148.145V153.752C1248.34 154.088 1248.25 154.233 1247.95 154.233H1246.62C1246.34 154.233 1246.23 154.088 1246.23 153.752V138.353C1246.23 138.016 1246.34 137.871 1246.62 137.871H1251.02C1254.75 137.871 1255.94 139.604 1255.94 141.577V144.44C1255.94 146.413 1254.75 148.145 1251.02 148.145H1248.34ZM1260.82 139.868V145.763H1263.51C1265.46 145.763 1266.32 144.993 1266.32 143.67V141.962C1266.32 140.663 1265.46 139.868 1263.51 139.868H1260.82ZM1260.82 147.76V153.752C1260.82 154.088 1260.74 154.233 1260.43 154.233H1259.11C1258.83 154.233 1258.72 154.088 1258.72 153.752V138.353C1258.72 138.016 1258.83 137.871 1259.11 137.871H1263.51C1267.23 137.871 1268.42 139.604 1268.42 141.577V144.079C1268.42 145.547 1267.75 146.87 1265.89 147.448L1268.49 153.752C1268.6 154.04 1268.4 154.233 1268.1 154.233H1266.8C1266.5 154.233 1266.45 154.04 1266.32 153.752L1263.88 147.76H1260.82ZM1279.81 141.769C1279.81 140.47 1278.9 139.676 1276.84 139.676C1274.8 139.676 1273.89 140.47 1273.89 141.769V150.335C1273.89 151.634 1274.8 152.428 1276.84 152.428C1278.9 152.428 1279.81 151.634 1279.81 150.335V141.769ZM1271.65 141.384C1271.65 139.411 1272.93 137.679 1276.84 137.679C1280.77 137.679 1282.05 139.411 1282.05 141.384V150.72C1282.05 152.693 1280.77 154.425 1276.84 154.425C1272.93 154.425 1271.65 152.693 1271.65 150.72V141.384ZM1294.12 137.871C1294.42 137.871 1294.55 137.992 1294.55 138.329V139.411C1294.55 139.748 1294.42 139.868 1294.12 139.868H1290.46V153.752C1290.46 154.088 1290.35 154.233 1290.05 154.233H1288.63C1288.34 154.233 1288.22 154.088 1288.22 153.752V139.868H1284.56C1284.24 139.868 1284.13 139.748 1284.13 139.411V138.329C1284.13 137.992 1284.24 137.871 1284.56 137.871H1294.12ZM1304.77 141.769C1304.77 140.47 1303.86 139.676 1301.8 139.676C1299.76 139.676 1298.85 140.47 1298.85 141.769V150.335C1298.85 151.634 1299.76 152.428 1301.8 152.428C1303.86 152.428 1304.77 151.634 1304.77 150.335V141.769ZM1296.61 141.384C1296.61 139.411 1297.89 137.679 1301.8 137.679C1305.73 137.679 1307.01 139.411 1307.01 141.384V150.72C1307.01 152.693 1305.73 154.425 1301.8 154.425C1297.89 154.425 1296.61 152.693 1296.61 150.72V141.384ZM1320.24 153.776C1320.24 154.088 1320.15 154.233 1319.85 154.233H1318.66C1318.44 154.233 1318.36 154.161 1318.27 154.016L1313.18 144.103C1312.7 143.213 1312.44 142.467 1312.4 142.371V153.776C1312.4 154.088 1312.29 154.233 1312.01 154.233H1310.8C1310.52 154.233 1310.41 154.088 1310.41 153.776V138.329C1310.41 138.016 1310.52 137.871 1310.8 137.871H1312.01C1312.18 137.871 1312.29 137.944 1312.36 138.064L1317.58 148.194C1317.88 148.771 1318.25 149.733 1318.25 149.733V138.329C1318.25 138.016 1318.38 137.871 1318.66 137.871H1319.85C1320.15 137.871 1320.24 138.016 1320.24 138.329V153.776ZM1323.97 154.233C1323.68 154.233 1323.58 154.088 1323.58 153.752V138.353C1323.58 138.016 1323.68 137.871 1323.97 137.871H1331.37C1331.65 137.871 1331.78 137.992 1331.78 138.329V139.411C1331.78 139.748 1331.65 139.868 1331.37 139.868H1325.68V144.729H1330.98C1331.28 144.729 1331.41 144.849 1331.41 145.186V146.221C1331.41 146.533 1331.28 146.678 1330.98 146.678H1325.68V152.236H1331.61C1331.89 152.236 1332.02 152.332 1332.02 152.669V153.776C1332.02 154.113 1331.89 154.233 1331.61 154.233H1323.97ZM1343.96 137.871C1344.24 137.871 1344.37 137.992 1344.37 138.329V139.411C1344.37 139.748 1344.24 139.868 1343.96 139.868H1340.49V153.752C1340.49 154.088 1340.38 154.233 1340.1 154.233H1338.76C1338.48 154.233 1338.37 154.088 1338.37 153.752V139.868H1334.91C1334.6 139.868 1334.49 139.748 1334.49 139.411V138.329C1334.49 137.992 1334.6 137.871 1334.91 137.871H1343.96Z" fill="#E15B29"/>
<path d="M445.501 87.33C443.925 87.33 442.586 86.9817 441.486 86.285C440.386 85.5883 439.547 84.6203 438.967 83.381C438.395 82.1417 438.109 80.708 438.109 79.08C438.109 77.452 438.395 76.0183 438.967 74.779C439.547 73.5397 440.386 72.5717 441.486 71.875C442.586 71.1783 443.925 70.83 445.501 70.83C447.085 70.83 448.427 71.1783 449.527 71.875C450.627 72.5717 451.463 73.5397 452.035 74.779C452.607 76.0183 452.893 77.452 452.893 79.08C452.893 80.708 452.607 82.1417 452.035 83.381C451.463 84.6203 450.627 85.5883 449.527 86.285C448.427 86.9817 447.085 87.33 445.501 87.33ZM445.501 85.46C446.682 85.4673 447.665 85.2033 448.449 84.668C449.241 84.1253 449.832 83.3737 450.22 82.413C450.616 81.4523 450.814 80.3413 450.814 79.08C450.814 77.8113 450.616 76.7003 450.22 75.747C449.832 74.7937 449.241 74.0493 448.449 73.514C447.665 72.9787 446.682 72.7073 445.501 72.7C444.321 72.6927 443.338 72.9567 442.553 73.492C441.776 74.0273 441.189 74.7753 440.793 75.736C440.397 76.6967 440.196 77.8113 440.188 79.08C440.181 80.3413 440.375 81.4487 440.771 82.402C441.167 83.3553 441.758 84.1033 442.542 84.646C443.334 85.1813 444.321 85.4527 445.501 85.46ZM458.315 87L454.003 75.12H455.983L459.316 84.503L462.638 75.12H464.629L460.317 87H458.315ZM471.336 87.33C470.17 87.33 469.151 87.0733 468.278 86.56C467.413 86.0393 466.738 85.317 466.254 84.393C465.77 83.4617 465.528 82.3763 465.528 81.137C465.528 79.839 465.767 78.717 466.243 77.771C466.72 76.8177 467.384 76.0843 468.234 75.571C469.092 75.0503 470.097 74.79 471.248 74.79C472.444 74.79 473.459 75.065 474.295 75.615C475.139 76.165 475.769 76.9497 476.187 77.969C476.613 78.9883 476.796 80.202 476.737 81.61H474.757V80.906C474.735 79.4467 474.438 78.3577 473.866 77.639C473.294 76.913 472.444 76.55 471.314 76.55C470.104 76.55 469.184 76.9387 468.553 77.716C467.923 78.4933 467.607 79.608 467.607 81.06C467.607 82.4607 467.923 83.546 468.553 84.316C469.184 85.086 470.082 85.471 471.248 85.471C472.033 85.471 472.715 85.2913 473.294 84.932C473.874 84.5727 474.328 84.0557 474.658 83.381L476.539 84.03C476.077 85.0787 475.381 85.8927 474.449 86.472C473.525 87.044 472.488 87.33 471.336 87.33ZM466.947 81.61V80.037H475.725V81.61H466.947ZM479.186 87V75.12H480.935V77.991L480.649 77.617C480.789 77.2503 480.968 76.913 481.188 76.605C481.416 76.297 481.669 76.044 481.947 75.846C482.255 75.5967 482.604 75.406 482.992 75.274C483.381 75.142 483.777 75.065 484.18 75.043C484.584 75.0137 484.961 75.0393 485.313 75.12V76.957C484.903 76.847 484.452 76.8177 483.96 76.869C483.469 76.9203 483.014 77.1 482.596 77.408C482.215 77.6793 481.918 78.0093 481.705 78.398C481.5 78.7867 481.357 79.2083 481.276 79.663C481.196 80.1103 481.155 80.5687 481.155 81.038V87H479.186ZM496.143 87.308C495.358 87.308 494.628 87.165 493.954 86.879C493.279 86.5857 492.696 86.175 492.205 85.647C491.721 85.1117 491.365 84.4773 491.138 83.744L493.019 83.205C493.261 83.9383 493.664 84.4957 494.229 84.877C494.793 85.2583 495.428 85.4453 496.132 85.438C496.777 85.4233 497.334 85.2767 497.804 84.998C498.28 84.712 498.647 84.3233 498.904 83.832C499.168 83.3407 499.3 82.7723 499.3 82.127C499.3 81.1443 499.006 80.3487 498.42 79.74C497.833 79.124 497.063 78.816 496.11 78.816C495.846 78.816 495.567 78.8527 495.274 78.926C494.988 78.9993 494.72 79.102 494.471 79.234L493.525 77.683L499.399 72.37L499.652 73.03H491.765V71.16H501.104V73.041L496.099 77.837L496.077 77.144C497.125 77.0707 498.042 77.243 498.827 77.661C499.611 78.079 500.22 78.6767 500.653 79.454C501.093 80.2313 501.313 81.1223 501.313 82.127C501.313 83.139 501.085 84.0337 500.631 84.811C500.176 85.5883 499.56 86.2007 498.783 86.648C498.005 87.088 497.125 87.308 496.143 87.308ZM503.733 86.989L503.744 85.229L510.773 78.904C511.359 78.376 511.752 77.8773 511.95 77.408C512.155 76.9313 512.258 76.4437 512.258 75.945C512.258 75.3363 512.118 74.7863 511.84 74.295C511.561 73.8037 511.18 73.415 510.696 73.129C510.219 72.843 509.676 72.7 509.068 72.7C508.437 72.7 507.876 72.8503 507.385 73.151C506.893 73.4443 506.505 73.8367 506.219 74.328C505.94 74.8193 505.804 75.3547 505.812 75.934H503.81C503.81 74.9367 504.041 74.0567 504.503 73.294C504.965 72.524 505.592 71.9227 506.384 71.49C507.183 71.05 508.089 70.83 509.101 70.83C510.083 70.83 510.963 71.0573 511.741 71.512C512.518 71.9593 513.13 72.5717 513.578 73.349C514.032 74.119 514.26 74.9917 514.26 75.967C514.26 76.6563 514.172 77.254 513.996 77.76C513.827 78.266 513.563 78.7353 513.204 79.168C512.844 79.5933 512.393 80.048 511.851 80.532L506.01 85.779L505.757 85.119H514.26V86.989H503.733ZM516.881 87L516.892 71.16H518.872V80.84L523.855 75.12H526.396L521.149 81.06L527.012 87H524.273L518.872 81.28V87H516.881ZM532.088 84.085V79.883H527.886V78.266H532.088V74.075H533.705V78.266H537.896V79.883H533.705V84.085H532.088ZM549.653 87.319C548.238 87.319 547.075 87.011 546.166 86.395C545.264 85.7717 544.71 84.9027 544.505 83.788L546.507 83.469C546.668 84.1143 547.039 84.6277 547.618 85.009C548.197 85.383 548.916 85.57 549.774 85.57C550.588 85.57 551.226 85.4013 551.688 85.064C552.15 84.7267 552.381 84.2683 552.381 83.689C552.381 83.3517 552.304 83.0803 552.15 82.875C551.996 82.6623 551.677 82.4643 551.193 82.281C550.716 82.0977 549.994 81.8777 549.026 81.621C547.977 81.3423 547.152 81.0527 546.551 80.752C545.95 80.4513 545.521 80.103 545.264 79.707C545.007 79.311 544.879 78.8307 544.879 78.266C544.879 77.5693 545.07 76.9607 545.451 76.44C545.832 75.912 546.364 75.505 547.046 75.219C547.735 74.933 548.535 74.79 549.444 74.79C550.346 74.79 551.153 74.933 551.864 75.219C552.575 75.505 553.147 75.912 553.58 76.44C554.02 76.9607 554.28 77.5693 554.361 78.266L552.359 78.629C552.264 77.991 551.956 77.4887 551.435 77.122C550.922 76.7553 550.258 76.561 549.444 76.539C548.674 76.5097 548.047 76.6453 547.563 76.946C547.086 77.2467 546.848 77.6537 546.848 78.167C546.848 78.453 546.936 78.6987 547.112 78.904C547.295 79.1093 547.629 79.3037 548.113 79.487C548.604 79.6703 549.316 79.8793 550.247 80.114C551.296 80.378 552.121 80.6677 552.722 80.983C553.331 81.291 553.763 81.6577 554.02 82.083C554.277 82.501 554.405 83.018 554.405 83.634C554.405 84.778 553.983 85.68 553.14 86.34C552.297 86.9927 551.134 87.319 549.653 87.319ZM561.891 87.33C560.71 87.33 559.691 87.0623 558.833 86.527C557.982 85.9917 557.326 85.251 556.864 84.305C556.402 83.359 556.171 82.2737 556.171 81.049C556.171 79.8023 556.406 78.7097 556.875 77.771C557.344 76.8323 558.008 76.1027 558.866 75.582C559.724 75.054 560.732 74.79 561.891 74.79C563.079 74.79 564.102 75.0577 564.96 75.593C565.818 76.121 566.474 76.858 566.929 77.804C567.391 78.7427 567.622 79.8243 567.622 81.049C567.622 82.2883 567.391 83.381 566.929 84.327C566.467 85.2657 565.807 86.0027 564.949 86.538C564.091 87.066 563.072 87.33 561.891 87.33ZM561.891 85.471C563.123 85.471 564.04 85.0603 564.641 84.239C565.242 83.4177 565.543 82.3543 565.543 81.049C565.543 79.707 565.239 78.64 564.63 77.848C564.021 77.0487 563.108 76.649 561.891 76.649C561.062 76.649 560.38 76.836 559.845 77.21C559.31 77.584 558.91 78.101 558.646 78.761C558.382 79.421 558.25 80.1837 558.25 81.049C558.25 82.3837 558.558 83.4543 559.174 84.261C559.79 85.0677 560.696 85.471 561.891 85.471ZM571.177 87V74.471C571.177 74.163 571.192 73.8513 571.221 73.536C571.25 73.2133 571.316 72.9017 571.419 72.601C571.522 72.293 571.69 72.0107 571.925 71.754C572.196 71.4533 572.493 71.2407 572.816 71.116C573.139 70.984 573.465 70.9033 573.795 70.874C574.132 70.8447 574.451 70.83 574.752 70.83H576.259V72.458H574.862C574.283 72.458 573.85 72.601 573.564 72.887C573.278 73.1657 573.135 73.591 573.135 74.163V87H571.177ZM569.164 76.737V75.12H576.259V76.737H569.164ZM584.648 87C583.944 87.1393 583.247 87.1943 582.558 87.165C581.876 87.143 581.267 87.0073 580.732 86.758C580.196 86.5013 579.789 86.1053 579.511 85.57C579.276 85.1007 579.148 84.6277 579.126 84.151C579.111 83.667 579.104 83.1207 579.104 82.512V71.82H581.062V82.424C581.062 82.908 581.065 83.3223 581.073 83.667C581.087 84.0117 581.164 84.3087 581.304 84.558C581.568 85.0273 581.986 85.3023 582.558 85.383C583.137 85.4637 583.834 85.4417 584.648 85.317V87ZM576.695 76.737V75.12H584.648V76.737H576.695ZM589.59 87L585.96 75.109L587.907 75.12L590.558 83.81L593.231 75.12H594.958L597.62 83.81L600.282 75.12H602.218L598.588 87H596.96L594.089 77.969L591.218 87H589.59ZM606.915 87.33C606.028 87.33 605.283 87.1687 604.682 86.846C604.088 86.516 603.637 86.0833 603.329 85.548C603.028 85.0127 602.878 84.426 602.878 83.788C602.878 83.1647 602.995 82.6257 603.23 82.171C603.472 81.709 603.809 81.3277 604.242 81.027C604.675 80.719 605.192 80.477 605.793 80.301C606.358 80.147 606.988 80.015 607.685 79.905C608.389 79.7877 609.1 79.6813 609.819 79.586C610.538 79.4907 611.209 79.399 611.832 79.311L611.128 79.718C611.15 78.662 610.937 77.881 610.49 77.375C610.05 76.869 609.287 76.616 608.202 76.616C607.483 76.616 606.853 76.781 606.31 77.111C605.775 77.4337 605.397 77.9617 605.177 78.695L603.318 78.134C603.604 77.0927 604.158 76.275 604.979 75.681C605.8 75.087 606.882 74.79 608.224 74.79C609.302 74.79 610.226 74.9843 610.996 75.373C611.773 75.7543 612.331 76.3337 612.668 77.111C612.837 77.4777 612.943 77.8773 612.987 78.31C613.031 78.7353 613.053 79.1827 613.053 79.652V87H611.315V84.151L611.722 84.415C611.275 85.3757 610.648 86.1017 609.841 86.593C609.042 87.0843 608.066 87.33 606.915 87.33ZM607.212 85.691C607.916 85.691 608.525 85.5663 609.038 85.317C609.559 85.0603 609.977 84.7267 610.292 84.316C610.607 83.898 610.813 83.4433 610.908 82.952C611.018 82.5853 611.077 82.1783 611.084 81.731C611.099 81.2763 611.106 80.928 611.106 80.686L611.788 80.983C611.15 81.071 610.523 81.1553 609.907 81.236C609.291 81.3167 608.708 81.4047 608.158 81.5C607.608 81.588 607.113 81.6943 606.673 81.819C606.35 81.9217 606.046 82.0537 605.76 82.215C605.481 82.3763 605.254 82.5853 605.078 82.842C604.909 83.0913 604.825 83.403 604.825 83.777C604.825 84.0997 604.906 84.4077 605.067 84.701C605.236 84.9943 605.492 85.2327 605.837 85.416C606.189 85.5993 606.647 85.691 607.212 85.691ZM615.913 87V75.12H617.662V77.991L617.376 77.617C617.515 77.2503 617.695 76.913 617.915 76.605C618.142 76.297 618.395 76.044 618.674 75.846C618.982 75.5967 619.33 75.406 619.719 75.274C620.108 75.142 620.504 75.065 620.907 75.043C621.31 75.0137 621.688 75.0393 622.04 75.12V76.957C621.629 76.847 621.178 76.8177 620.687 76.869C620.196 76.9203 619.741 77.1 619.323 77.408C618.942 77.6793 618.645 78.0093 618.432 78.398C618.227 78.7867 618.084 79.2083 618.003 79.663C617.922 80.1103 617.882 80.5687 617.882 81.038V87H615.913ZM629.053 87.33C627.887 87.33 626.868 87.0733 625.995 86.56C625.13 86.0393 624.455 85.317 623.971 84.393C623.487 83.4617 623.245 82.3763 623.245 81.137C623.245 79.839 623.484 78.717 623.96 77.771C624.437 76.8177 625.101 76.0843 625.951 75.571C626.809 75.0503 627.814 74.79 628.965 74.79C630.161 74.79 631.176 75.065 632.012 75.615C632.856 76.165 633.486 76.9497 633.904 77.969C634.33 78.9883 634.513 80.202 634.454 81.61H632.474V80.906C632.452 79.4467 632.155 78.3577 631.583 77.639C631.011 76.913 630.161 76.55 629.031 76.55C627.821 76.55 626.901 76.9387 626.27 77.716C625.64 78.4933 625.324 79.608 625.324 81.06C625.324 82.4607 625.64 83.546 626.27 84.316C626.901 85.086 627.799 85.471 628.965 85.471C629.75 85.471 630.432 85.2913 631.011 84.932C631.591 84.5727 632.045 84.0557 632.375 83.381L634.256 84.03C633.794 85.0787 633.098 85.8927 632.166 86.472C631.242 87.044 630.205 87.33 629.053 87.33ZM624.664 81.61V80.037H633.442V81.61H624.664ZM651.168 87.33C650.053 87.33 649.115 87.055 648.352 86.505C647.589 85.9477 647.01 85.196 646.614 84.25C646.225 83.2967 646.031 82.2297 646.031 81.049C646.031 79.8537 646.225 78.783 646.614 77.837C647.01 76.891 647.589 76.1467 648.352 75.604C649.122 75.0613 650.064 74.79 651.179 74.79C652.279 74.79 653.225 75.065 654.017 75.615C654.816 76.1577 655.429 76.902 655.854 77.848C656.279 78.794 656.492 79.861 656.492 81.049C656.492 82.237 656.279 83.304 655.854 84.25C655.429 85.196 654.816 85.9477 654.017 86.505C653.225 87.055 652.275 87.33 651.168 87.33ZM645.701 87V71.16H647.67V78.255H647.45V87H645.701ZM650.926 85.537C651.711 85.537 652.36 85.339 652.873 84.943C653.386 84.547 653.771 84.0117 654.028 83.337C654.285 82.655 654.413 81.8923 654.413 81.049C654.413 80.213 654.285 79.4577 654.028 78.783C653.779 78.1083 653.39 77.573 652.862 77.177C652.341 76.781 651.678 76.583 650.871 76.583C650.101 76.583 649.463 76.7737 648.957 77.155C648.451 77.529 648.073 78.0533 647.824 78.728C647.575 79.3953 647.45 80.169 647.45 81.049C647.45 81.9143 647.571 82.688 647.813 83.37C648.062 84.0447 648.444 84.5763 648.957 84.965C649.47 85.3463 650.127 85.537 650.926 85.537ZM663.413 87.308C662.651 87.308 661.994 87.187 661.444 86.945C660.902 86.703 660.451 86.3803 660.091 85.977C659.732 85.5737 659.45 85.1263 659.244 84.635C659.039 84.1437 658.892 83.6413 658.804 83.128C658.724 82.6147 658.683 82.1343 658.683 81.687V75.12H660.663V81.071C660.663 81.6283 660.715 82.1673 660.817 82.688C660.92 83.2087 661.092 83.678 661.334 84.096C661.584 84.514 661.914 84.844 662.324 85.086C662.742 85.328 663.263 85.449 663.886 85.449C664.378 85.449 664.825 85.3647 665.228 85.196C665.632 85.0273 665.976 84.778 666.262 84.448C666.548 84.1107 666.768 83.6853 666.922 83.172C667.076 82.6587 667.153 82.061 667.153 81.379L668.44 81.775C668.44 82.919 668.231 83.9053 667.813 84.734C667.403 85.5627 666.82 86.2007 666.064 86.648C665.316 87.088 664.433 87.308 663.413 87.308ZM667.373 87V83.821H667.153V75.12H669.122V87H667.373ZM676.69 87.319C675.275 87.319 674.112 87.011 673.203 86.395C672.301 85.7717 671.747 84.9027 671.542 83.788L673.544 83.469C673.705 84.1143 674.076 84.6277 674.655 85.009C675.234 85.383 675.953 85.57 676.811 85.57C677.625 85.57 678.263 85.4013 678.725 85.064C679.187 84.7267 679.418 84.2683 679.418 83.689C679.418 83.3517 679.341 83.0803 679.187 82.875C679.033 82.6623 678.714 82.4643 678.23 82.281C677.753 82.0977 677.031 81.8777 676.063 81.621C675.014 81.3423 674.189 81.0527 673.588 80.752C672.987 80.4513 672.558 80.103 672.301 79.707C672.044 79.311 671.916 78.8307 671.916 78.266C671.916 77.5693 672.107 76.9607 672.488 76.44C672.869 75.912 673.401 75.505 674.083 75.219C674.772 74.933 675.572 74.79 676.481 74.79C677.383 74.79 678.19 74.933 678.901 75.219C679.612 75.505 680.184 75.912 680.617 76.44C681.057 76.9607 681.317 77.5693 681.398 78.266L679.396 78.629C679.301 77.991 678.993 77.4887 678.472 77.122C677.959 76.7553 677.295 76.561 676.481 76.539C675.711 76.5097 675.084 76.6453 674.6 76.946C674.123 77.2467 673.885 77.6537 673.885 78.167C673.885 78.453 673.973 78.6987 674.149 78.904C674.332 79.1093 674.666 79.3037 675.15 79.487C675.641 79.6703 676.353 79.8793 677.284 80.114C678.333 80.378 679.158 80.6677 679.759 80.983C680.368 81.291 680.8 81.6577 681.057 82.083C681.314 82.501 681.442 83.018 681.442 83.634C681.442 84.778 681.02 85.68 680.177 86.34C679.334 86.9927 678.171 87.319 676.69 87.319ZM684.088 73.019V70.995H686.046V73.019H684.088ZM684.088 87V75.12H686.046V87H684.088ZM697.806 87V81.049C697.806 80.4843 697.754 79.9417 697.652 79.421C697.556 78.9003 697.384 78.4347 697.135 78.024C696.893 77.606 696.563 77.276 696.145 77.034C695.734 76.792 695.213 76.671 694.583 76.671C694.091 76.671 693.644 76.7553 693.241 76.924C692.845 77.0853 692.504 77.3347 692.218 77.672C691.932 78.0093 691.708 78.4347 691.547 78.948C691.393 79.454 691.316 80.0517 691.316 80.741L690.029 80.345C690.029 79.1937 690.234 78.2073 690.645 77.386C691.063 76.5573 691.646 75.923 692.394 75.483C693.149 75.0357 694.036 74.812 695.056 74.812C695.826 74.812 696.482 74.933 697.025 75.175C697.567 75.417 698.018 75.7397 698.378 76.143C698.737 76.539 699.019 76.9863 699.225 77.485C699.43 77.9763 699.573 78.4787 699.654 78.992C699.742 79.498 699.786 79.9783 699.786 80.433V87H697.806ZM689.336 87V75.12H691.096V78.299H691.316V87H689.336ZM707.686 87.33C706.52 87.33 705.501 87.0733 704.628 86.56C703.763 86.0393 703.088 85.317 702.604 84.393C702.12 83.4617 701.878 82.3763 701.878 81.137C701.878 79.839 702.116 78.717 702.593 77.771C703.07 76.8177 703.733 76.0843 704.584 75.571C705.442 75.0503 706.447 74.79 707.598 74.79C708.793 74.79 709.809 75.065 710.645 75.615C711.488 76.165 712.119 76.9497 712.537 77.969C712.962 78.9883 713.146 80.202 713.087 81.61H711.107V80.906C711.085 79.4467 710.788 78.3577 710.216 77.639C709.644 76.913 708.793 76.55 707.664 76.55C706.454 76.55 705.534 76.9387 704.903 77.716C704.272 78.4933 703.957 79.608 703.957 81.06C703.957 82.4607 704.272 83.546 704.903 84.316C705.534 85.086 706.432 85.471 707.598 85.471C708.383 85.471 709.065 85.2913 709.644 84.932C710.223 84.5727 710.678 84.0557 711.008 83.381L712.889 84.03C712.427 85.0787 711.73 85.8927 710.799 86.472C709.875 87.044 708.837 87.33 707.686 87.33ZM703.297 81.61V80.037H712.075V81.61H703.297ZM720.024 87.319C718.609 87.319 717.446 87.011 716.537 86.395C715.635 85.7717 715.081 84.9027 714.876 83.788L716.878 83.469C717.039 84.1143 717.41 84.6277 717.989 85.009C718.568 85.383 719.287 85.57 720.145 85.57C720.959 85.57 721.597 85.4013 722.059 85.064C722.521 84.7267 722.752 84.2683 722.752 83.689C722.752 83.3517 722.675 83.0803 722.521 82.875C722.367 82.6623 722.048 82.4643 721.564 82.281C721.087 82.0977 720.365 81.8777 719.397 81.621C718.348 81.3423 717.523 81.0527 716.922 80.752C716.321 80.4513 715.892 80.103 715.635 79.707C715.378 79.311 715.25 78.8307 715.25 78.266C715.25 77.5693 715.441 76.9607 715.822 76.44C716.203 75.912 716.735 75.505 717.417 75.219C718.106 74.933 718.906 74.79 719.815 74.79C720.717 74.79 721.524 74.933 722.235 75.219C722.946 75.505 723.518 75.912 723.951 76.44C724.391 76.9607 724.651 77.5693 724.732 78.266L722.73 78.629C722.635 77.991 722.327 77.4887 721.806 77.122C721.293 76.7553 720.629 76.561 719.815 76.539C719.045 76.5097 718.418 76.6453 717.934 76.946C717.457 77.2467 717.219 77.6537 717.219 78.167C717.219 78.453 717.307 78.6987 717.483 78.904C717.666 79.1093 718 79.3037 718.484 79.487C718.975 79.6703 719.687 79.8793 720.618 80.114C721.667 80.378 722.492 80.6677 723.093 80.983C723.702 81.291 724.134 81.6577 724.391 82.083C724.648 82.501 724.776 83.018 724.776 83.634C724.776 84.778 724.354 85.68 723.511 86.34C722.668 86.9927 721.505 87.319 720.024 87.319ZM731.69 87.319C730.275 87.319 729.112 87.011 728.203 86.395C727.301 85.7717 726.747 84.9027 726.542 83.788L728.544 83.469C728.705 84.1143 729.076 84.6277 729.655 85.009C730.234 85.383 730.953 85.57 731.811 85.57C732.625 85.57 733.263 85.4013 733.725 85.064C734.187 84.7267 734.418 84.2683 734.418 83.689C734.418 83.3517 734.341 83.0803 734.187 82.875C734.033 82.6623 733.714 82.4643 733.23 82.281C732.753 82.0977 732.031 81.8777 731.063 81.621C730.014 81.3423 729.189 81.0527 728.588 80.752C727.987 80.4513 727.558 80.103 727.301 79.707C727.044 79.311 726.916 78.8307 726.916 78.266C726.916 77.5693 727.107 76.9607 727.488 76.44C727.869 75.912 728.401 75.505 729.083 75.219C729.772 74.933 730.572 74.79 731.481 74.79C732.383 74.79 733.19 74.933 733.901 75.219C734.612 75.505 735.184 75.912 735.617 76.44C736.057 76.9607 736.317 77.5693 736.398 78.266L734.396 78.629C734.301 77.991 733.993 77.4887 733.472 77.122C732.959 76.7553 732.295 76.561 731.481 76.539C730.711 76.5097 730.084 76.6453 729.6 76.946C729.123 77.2467 728.885 77.6537 728.885 78.167C728.885 78.453 728.973 78.6987 729.149 78.904C729.332 79.1093 729.666 79.3037 730.15 79.487C730.641 79.6703 731.353 79.8793 732.284 80.114C733.333 80.378 734.158 80.6677 734.759 80.983C735.368 81.291 735.8 81.6577 736.057 82.083C736.314 82.501 736.442 83.018 736.442 83.634C736.442 84.778 736.02 85.68 735.177 86.34C734.334 86.9927 733.171 87.319 731.69 87.319ZM744.016 87.33C742.85 87.33 741.831 87.0733 740.958 86.56C740.093 86.0393 739.418 85.317 738.934 84.393C738.45 83.4617 738.208 82.3763 738.208 81.137C738.208 79.839 738.446 78.717 738.923 77.771C739.4 76.8177 740.063 76.0843 740.914 75.571C741.772 75.0503 742.777 74.79 743.928 74.79C745.123 74.79 746.139 75.065 746.975 75.615C747.818 76.165 748.449 76.9497 748.867 77.969C749.292 78.9883 749.476 80.202 749.417 81.61H747.437V80.906C747.415 79.4467 747.118 78.3577 746.546 77.639C745.974 76.913 745.123 76.55 743.994 76.55C742.784 76.55 741.864 76.9387 741.233 77.716C740.602 78.4933 740.287 79.608 740.287 81.06C740.287 82.4607 740.602 83.546 741.233 84.316C741.864 85.086 742.762 85.471 743.928 85.471C744.713 85.471 745.395 85.2913 745.974 84.932C746.553 84.5727 747.008 84.0557 747.338 83.381L749.219 84.03C748.757 85.0787 748.06 85.8927 747.129 86.472C746.205 87.044 745.167 87.33 744.016 87.33ZM739.627 81.61V80.037H748.405V81.61H739.627ZM756.354 87.319C754.939 87.319 753.777 87.011 752.867 86.395C751.965 85.7717 751.412 84.9027 751.206 83.788L753.208 83.469C753.37 84.1143 753.74 84.6277 754.319 85.009C754.899 85.383 755.617 85.57 756.475 85.57C757.289 85.57 757.927 85.4013 758.389 85.064C758.851 84.7267 759.082 84.2683 759.082 83.689C759.082 83.3517 759.005 83.0803 758.851 82.875C758.697 82.6623 758.378 82.4643 757.894 82.281C757.418 82.0977 756.695 81.8777 755.727 81.621C754.679 81.3423 753.854 81.0527 753.252 80.752C752.651 80.4513 752.222 80.103 751.965 79.707C751.709 79.311 751.58 78.8307 751.58 78.266C751.58 77.5693 751.771 76.9607 752.152 76.44C752.534 75.912 753.065 75.505 753.747 75.219C754.437 74.933 755.236 74.79 756.145 74.79C757.047 74.79 757.854 74.933 758.565 75.219C759.277 75.505 759.849 75.912 760.281 76.44C760.721 76.9607 760.982 77.5693 761.062 78.266L759.06 78.629C758.965 77.991 758.657 77.4887 758.136 77.122C757.623 76.7553 756.959 76.561 756.145 76.539C755.375 76.5097 754.748 76.6453 754.264 76.946C753.788 77.2467 753.549 77.6537 753.549 78.167C753.549 78.453 753.637 78.6987 753.813 78.904C753.997 79.1093 754.33 79.3037 754.814 79.487C755.306 79.6703 756.017 79.8793 756.948 80.114C757.997 80.378 758.822 80.6677 759.423 80.983C760.032 81.291 760.465 81.6577 760.721 82.083C760.978 82.501 761.106 83.018 761.106 83.634C761.106 84.778 760.685 85.68 759.841 86.34C758.998 86.9927 757.836 87.319 756.354 87.319ZM772.743 92.61C772.12 92.61 771.511 92.5147 770.917 92.324C770.323 92.1333 769.777 91.8437 769.278 91.455C768.787 91.0737 768.376 90.5897 768.046 90.003L769.839 89.057C770.133 89.6363 770.547 90.058 771.082 90.322C771.625 90.586 772.182 90.718 772.754 90.718C773.51 90.718 774.137 90.5787 774.635 90.3C775.134 90.0287 775.501 89.6217 775.735 89.079C775.977 88.5363 776.095 87.8617 776.087 87.055V83.81H776.318V75.12H778.056V87.077C778.056 87.3997 778.045 87.7113 778.023 88.012C778.009 88.3127 777.972 88.6097 777.913 88.903C777.759 89.7463 777.455 90.4393 777 90.982C776.546 91.532 775.959 91.939 775.24 92.203C774.522 92.4743 773.689 92.61 772.743 92.61ZM772.6 87.33C771.493 87.33 770.543 87.055 769.751 86.505C768.959 85.9477 768.347 85.196 767.914 84.25C767.489 83.304 767.276 82.237 767.276 81.049C767.276 79.861 767.489 78.794 767.914 77.848C768.347 76.902 768.959 76.1577 769.751 75.615C770.543 75.065 771.489 74.79 772.589 74.79C773.711 74.79 774.654 75.0613 775.416 75.604C776.179 76.1467 776.755 76.891 777.143 77.837C777.539 78.783 777.737 79.8537 777.737 81.049C777.737 82.2297 777.539 83.2967 777.143 84.25C776.755 85.196 776.179 85.9477 775.416 86.505C774.654 87.055 773.715 87.33 772.6 87.33ZM772.842 85.537C773.642 85.537 774.298 85.3463 774.811 84.965C775.325 84.5763 775.702 84.0447 775.944 83.37C776.194 82.688 776.318 81.9143 776.318 81.049C776.318 80.169 776.194 79.3953 775.944 78.728C775.702 78.0533 775.328 77.529 774.822 77.155C774.316 76.7737 773.675 76.583 772.897 76.583C772.091 76.583 771.423 76.781 770.895 77.177C770.375 77.573 769.986 78.1083 769.729 78.783C769.48 79.4577 769.355 80.213 769.355 81.049C769.355 81.8923 769.484 82.655 769.74 83.337C769.997 84.0117 770.382 84.547 770.895 84.943C771.416 85.339 772.065 85.537 772.842 85.537ZM781.128 87V75.12H782.877V77.991L782.591 77.617C782.73 77.2503 782.91 76.913 783.13 76.605C783.357 76.297 783.61 76.044 783.889 75.846C784.197 75.5967 784.545 75.406 784.934 75.274C785.323 75.142 785.719 75.065 786.122 75.043C786.525 75.0137 786.903 75.0393 787.255 75.12V76.957C786.844 76.847 786.393 76.8177 785.902 76.869C785.411 76.9203 784.956 77.1 784.538 77.408C784.157 77.6793 783.86 78.0093 783.647 78.398C783.442 78.7867 783.299 79.2083 783.218 79.663C783.137 80.1103 783.097 80.5687 783.097 81.038V87H781.128ZM794.18 87.33C792.999 87.33 791.98 87.0623 791.122 86.527C790.271 85.9917 789.615 85.251 789.153 84.305C788.691 83.359 788.46 82.2737 788.46 81.049C788.46 79.8023 788.695 78.7097 789.164 77.771C789.633 76.8323 790.297 76.1027 791.155 75.582C792.013 75.054 793.021 74.79 794.18 74.79C795.368 74.79 796.391 75.0577 797.249 75.593C798.107 76.121 798.763 76.858 799.218 77.804C799.68 78.7427 799.911 79.8243 799.911 81.049C799.911 82.2883 799.68 83.381 799.218 84.327C798.756 85.2657 798.096 86.0027 797.238 86.538C796.38 87.066 795.361 87.33 794.18 87.33ZM794.18 85.471C795.412 85.471 796.329 85.0603 796.93 84.239C797.531 83.4177 797.832 82.3543 797.832 81.049C797.832 79.707 797.528 78.64 796.919 77.848C796.31 77.0487 795.397 76.649 794.18 76.649C793.351 76.649 792.669 76.836 792.134 77.21C791.599 77.584 791.199 78.101 790.935 78.761C790.671 79.421 790.539 80.1837 790.539 81.049C790.539 82.3837 790.847 83.4543 791.463 84.261C792.079 85.0677 792.985 85.471 794.18 85.471ZM804.433 87L800.803 75.109L802.75 75.12L805.401 83.81L808.074 75.12H809.801L812.463 83.81L815.125 75.12H817.061L813.431 87H811.803L808.932 77.969L806.061 87H804.433ZM819.268 73.019V70.995H821.226V73.019H819.268ZM819.268 87V75.12H821.226V87H819.268ZM832.985 87V81.049C832.985 80.4843 832.934 79.9417 832.831 79.421C832.736 78.9003 832.564 78.4347 832.314 78.024C832.072 77.606 831.742 77.276 831.324 77.034C830.914 76.792 830.393 76.671 829.762 76.671C829.271 76.671 828.824 76.7553 828.42 76.924C828.024 77.0853 827.683 77.3347 827.397 77.672C827.111 78.0093 826.888 78.4347 826.726 78.948C826.572 79.454 826.495 80.0517 826.495 80.741L825.208 80.345C825.208 79.1937 825.414 78.2073 825.824 77.386C826.242 76.5573 826.825 75.923 827.573 75.483C828.329 75.0357 829.216 74.812 830.235 74.812C831.005 74.812 831.662 74.933 832.204 75.175C832.747 75.417 833.198 75.7397 833.557 76.143C833.917 76.539 834.199 76.9863 834.404 77.485C834.61 77.9763 834.753 78.4787 834.833 78.992C834.921 79.498 834.965 79.9783 834.965 80.433V87H832.985ZM824.515 87V75.12H826.275V78.299H826.495V87H824.515ZM842.632 92.61C842.009 92.61 841.4 92.5147 840.806 92.324C840.212 92.1333 839.666 91.8437 839.167 91.455C838.676 91.0737 838.265 90.5897 837.935 90.003L839.728 89.057C840.021 89.6363 840.436 90.058 840.971 90.322C841.514 90.586 842.071 90.718 842.643 90.718C843.398 90.718 844.025 90.5787 844.524 90.3C845.023 90.0287 845.389 89.6217 845.624 89.079C845.866 88.5363 845.983 87.8617 845.976 87.055V83.81H846.207V75.12H847.945V87.077C847.945 87.3997 847.934 87.7113 847.912 88.012C847.897 88.3127 847.861 88.6097 847.802 88.903C847.648 89.7463 847.344 90.4393 846.889 90.982C846.434 91.532 845.848 91.939 845.129 92.203C844.41 92.4743 843.578 92.61 842.632 92.61ZM842.489 87.33C841.382 87.33 840.432 87.055 839.64 86.505C838.848 85.9477 838.236 85.196 837.803 84.25C837.378 83.304 837.165 82.237 837.165 81.049C837.165 79.861 837.378 78.794 837.803 77.848C838.236 76.902 838.848 76.1577 839.64 75.615C840.432 75.065 841.378 74.79 842.478 74.79C843.6 74.79 844.542 75.0613 845.305 75.604C846.068 76.1467 846.643 76.891 847.032 77.837C847.428 78.783 847.626 79.8537 847.626 81.049C847.626 82.2297 847.428 83.2967 847.032 84.25C846.643 85.196 846.068 85.9477 845.305 86.505C844.542 87.055 843.604 87.33 842.489 87.33ZM842.731 85.537C843.53 85.537 844.187 85.3463 844.7 84.965C845.213 84.5763 845.591 84.0447 845.833 83.37C846.082 82.688 846.207 81.9143 846.207 81.049C846.207 80.169 846.082 79.3953 845.833 78.728C845.591 78.0533 845.217 77.529 844.711 77.155C844.205 76.7737 843.563 76.583 842.786 76.583C841.979 76.583 841.312 76.781 840.784 77.177C840.263 77.573 839.875 78.1083 839.618 78.783C839.369 79.4577 839.244 80.213 839.244 81.049C839.244 81.8923 839.372 82.655 839.629 83.337C839.886 84.0117 840.271 84.547 840.784 84.943C841.305 85.339 841.954 85.537 842.731 85.537ZM857.951 87L854.321 75.109L856.268 75.12L858.919 83.81L861.592 75.12H863.319L865.981 83.81L868.643 75.12H870.579L866.949 87H865.321L862.45 77.969L859.579 87H857.951ZM872.785 73.019V70.995H874.743V73.019H872.785ZM872.785 87V75.12H874.743V87H872.785ZM884.677 87C883.973 87.1393 883.276 87.1943 882.587 87.165C881.905 87.143 881.296 87.0073 880.761 86.758C880.226 86.5013 879.819 86.1053 879.54 85.57C879.305 85.1007 879.177 84.6277 879.155 84.151C879.14 83.667 879.133 83.1207 879.133 82.512V71.82H881.091V82.424C881.091 82.908 881.095 83.3223 881.102 83.667C881.117 84.0117 881.194 84.3087 881.333 84.558C881.597 85.0273 882.015 85.3023 882.587 85.383C883.166 85.4637 883.863 85.4417 884.677 85.317V87ZM876.724 76.737V75.12H884.677V76.737H876.724ZM895.548 87V81.049C895.548 80.4843 895.496 79.9417 895.394 79.421C895.298 78.9003 895.126 78.4347 894.877 78.024C894.635 77.606 894.305 77.276 893.887 77.034C893.476 76.792 892.955 76.671 892.325 76.671C891.833 76.671 891.386 76.7553 890.983 76.924C890.587 77.0853 890.246 77.3347 889.96 77.672C889.674 78.0093 889.45 78.4347 889.289 78.948C889.135 79.454 889.058 80.0517 889.058 80.741L887.771 80.345C887.771 79.1937 887.976 78.2073 888.387 77.386C888.805 76.5573 889.388 75.923 890.136 75.483C890.891 75.0357 891.778 74.812 892.798 74.812C893.568 74.812 894.224 74.933 894.767 75.175C895.309 75.417 895.76 75.7397 896.12 76.143C896.479 76.539 896.761 76.9863 896.967 77.485C897.172 77.9763 897.315 78.4787 897.396 78.992C897.484 79.498 897.528 79.9783 897.528 80.433V87H895.548ZM887.078 87V71.16H888.838V79.905H889.058V87H887.078ZM903.692 87L908.994 71.16H911.722L917.024 87H914.989L910.028 72.304H910.644L905.727 87H903.692ZM906.244 83.293V81.456H914.472V83.293H906.244ZM918.993 87V71.16H925.252C925.406 71.16 925.589 71.1673 925.802 71.182C926.015 71.1893 926.22 71.2113 926.418 71.248C927.276 71.38 927.995 71.6733 928.574 72.128C929.161 72.5827 929.601 73.1583 929.894 73.855C930.187 74.5443 930.334 75.3107 930.334 76.154C930.334 77.3787 930.015 78.442 929.377 79.344C928.739 80.2387 927.804 80.7997 926.572 81.027L925.824 81.148H920.951V87H918.993ZM928.42 87L925.296 80.554L927.232 79.96L930.664 87H928.42ZM920.951 79.289H925.186C925.325 79.289 925.483 79.2817 925.659 79.267C925.842 79.2523 926.015 79.2267 926.176 79.19C926.682 79.0727 927.093 78.86 927.408 78.552C927.731 78.2367 927.965 77.87 928.112 77.452C928.259 77.0267 928.332 76.594 928.332 76.154C928.332 75.714 928.259 75.285 928.112 74.867C927.965 74.4417 927.731 74.0713 927.408 73.756C927.093 73.4407 926.682 73.228 926.176 73.118C926.015 73.074 925.842 73.0483 925.659 73.041C925.483 73.0263 925.325 73.019 925.186 73.019H920.951V79.289ZM943.112 87.33C941.99 87.33 940.978 87.1393 940.076 86.758C939.182 86.3767 938.441 85.834 937.854 85.13C937.275 84.4187 936.897 83.579 936.721 82.611L938.745 82.292C939.002 83.2893 939.534 84.0703 940.34 84.635C941.154 85.1923 942.111 85.471 943.211 85.471C943.923 85.471 944.564 85.361 945.136 85.141C945.716 84.9137 946.174 84.591 946.511 84.173C946.849 83.755 947.017 83.26 947.017 82.688C947.017 82.336 946.955 82.0353 946.83 81.786C946.713 81.5293 946.548 81.313 946.335 81.137C946.13 80.9537 945.895 80.7997 945.631 80.675C945.367 80.5503 945.092 80.4477 944.806 80.367L940.769 79.168C940.329 79.036 939.904 78.871 939.493 78.673C939.083 78.4677 938.716 78.2147 938.393 77.914C938.071 77.606 937.814 77.2393 937.623 76.814C937.433 76.3813 937.337 75.8717 937.337 75.285C937.337 74.3463 937.579 73.547 938.063 72.887C938.555 72.2197 939.218 71.71 940.054 71.358C940.89 71.006 941.833 70.8337 942.881 70.841C943.945 70.8483 944.894 71.039 945.73 71.413C946.574 71.7797 947.27 72.3077 947.82 72.997C948.378 73.6863 948.752 74.5113 948.942 75.472L946.863 75.835C946.753 75.1897 946.508 74.636 946.126 74.174C945.752 73.7047 945.283 73.3453 944.718 73.096C944.154 72.8393 943.534 72.7073 942.859 72.7C942.214 72.6927 941.631 72.7953 941.11 73.008C940.59 73.2207 940.175 73.5177 939.867 73.899C939.559 74.273 939.405 74.7057 939.405 75.197C939.405 75.681 939.545 76.0733 939.823 76.374C940.102 76.6673 940.443 76.902 940.846 77.078C941.257 77.2467 941.657 77.386 942.045 77.496L945.059 78.365C945.404 78.4603 945.8 78.5923 946.247 78.761C946.702 78.9297 947.142 79.168 947.567 79.476C947.993 79.7767 948.345 80.18 948.623 80.686C948.902 81.1847 949.041 81.8153 949.041 82.578C949.041 83.3407 948.887 84.019 948.579 84.613C948.279 85.207 947.857 85.7057 947.314 86.109C946.772 86.505 946.141 86.8057 945.422 87.011C944.704 87.2237 943.934 87.33 943.112 87.33ZM959.808 87V81.049C959.808 80.4843 959.756 79.9417 959.654 79.421C959.558 78.9003 959.386 78.4347 959.137 78.024C958.895 77.606 958.565 77.276 958.147 77.034C957.736 76.792 957.215 76.671 956.585 76.671C956.093 76.671 955.646 76.7553 955.243 76.924C954.847 77.0853 954.506 77.3347 954.22 77.672C953.934 78.0093 953.71 78.4347 953.549 78.948C953.395 79.454 953.318 80.0517 953.318 80.741L952.031 80.345C952.031 79.1937 952.236 78.2073 952.647 77.386C953.065 76.5573 953.648 75.923 954.396 75.483C955.151 75.0357 956.038 74.812 957.058 74.812C957.828 74.812 958.484 74.933 959.027 75.175C959.569 75.417 960.02 75.7397 960.38 76.143C960.739 76.539 961.021 76.9863 961.227 77.485C961.432 77.9763 961.575 78.4787 961.656 78.992C961.744 79.498 961.788 79.9783 961.788 80.433V87H959.808ZM951.338 87V71.16H953.098V79.905H953.318V87H951.338ZM968.024 87.33C967.137 87.33 966.393 87.1687 965.791 86.846C965.197 86.516 964.746 86.0833 964.438 85.548C964.138 85.0127 963.987 84.426 963.987 83.788C963.987 83.1647 964.105 82.6257 964.339 82.171C964.581 81.709 964.919 81.3277 965.351 81.027C965.784 80.719 966.301 80.477 966.902 80.301C967.467 80.147 968.098 80.015 968.794 79.905C969.498 79.7877 970.21 79.6813 970.928 79.586C971.647 79.4907 972.318 79.399 972.941 79.311L972.237 79.718C972.259 78.662 972.047 77.881 971.599 77.375C971.159 76.869 970.397 76.616 969.311 76.616C968.593 76.616 967.962 76.781 967.419 77.111C966.884 77.4337 966.506 77.9617 966.286 78.695L964.427 78.134C964.713 77.0927 965.267 76.275 966.088 75.681C966.91 75.087 967.991 74.79 969.333 74.79C970.411 74.79 971.335 74.9843 972.105 75.373C972.883 75.7543 973.44 76.3337 973.777 77.111C973.946 77.4777 974.052 77.8773 974.096 78.31C974.14 78.7353 974.162 79.1827 974.162 79.652V87H972.424V84.151L972.831 84.415C972.384 85.3757 971.757 86.1017 970.95 86.593C970.151 87.0843 969.176 87.33 968.024 87.33ZM968.321 85.691C969.025 85.691 969.634 85.5663 970.147 85.317C970.668 85.0603 971.086 84.7267 971.401 84.316C971.717 83.898 971.922 83.4433 972.017 82.952C972.127 82.5853 972.186 82.1783 972.193 81.731C972.208 81.2763 972.215 80.928 972.215 80.686L972.897 80.983C972.259 81.071 971.632 81.1553 971.016 81.236C970.4 81.3167 969.817 81.4047 969.267 81.5C968.717 81.588 968.222 81.6943 967.782 81.819C967.46 81.9217 967.155 82.0537 966.869 82.215C966.591 82.3763 966.363 82.5853 966.187 82.842C966.019 83.0913 965.934 83.403 965.934 83.777C965.934 84.0997 966.015 84.4077 966.176 84.701C966.345 84.9943 966.602 85.2327 966.946 85.416C967.298 85.5993 967.757 85.691 968.321 85.691ZM977.011 87L977.022 71.16H979.002V80.84L983.985 75.12H986.526L981.279 81.06L987.142 87H984.403L979.002 81.28V87H977.011ZM988.457 73.019V70.995H990.415V73.019H988.457ZM988.457 87V75.12H990.415V87H988.457ZM993.716 87V75.12H995.465V77.991L995.179 77.617C995.318 77.2503 995.498 76.913 995.718 76.605C995.945 76.297 996.198 76.044 996.477 75.846C996.785 75.5967 997.133 75.406 997.522 75.274C997.91 75.142 998.306 75.065 998.71 75.043C999.113 75.0137 999.491 75.0393 999.843 75.12V76.957C999.432 76.847 998.981 76.8177 998.49 76.869C997.998 76.9203 997.544 77.1 997.126 77.408C996.744 77.6793 996.447 78.0093 996.235 78.398C996.029 78.7867 995.886 79.2083 995.806 79.663C995.725 80.1103 995.685 80.5687 995.685 81.038V87H993.716ZM1000.51 87V84.844H1002.67V87H1000.51Z" fill="black"/>
</svg>
