<svg width="189" height="118" viewBox="0 0 189 118" fill="none" xmlns="http://www.w3.org/2000/svg">
<path fill-rule="evenodd" clip-rule="evenodd" d="M37.8669 39.2967L53.3999 35.1344C47.4625 34.5699 42.399 36.0189 37.8669 39.2967M146.354 74.9108C139.3 74.3825 132.245 73.8535 125.189 73.3246C132.137 75.5812 139.195 76.092 146.354 74.9108M184.154 57.3035C186.497 61.06 187.439 64.5646 183.703 67.7386C182.072 69.124 178.393 69.4081 176.361 68.2784C177.278 70.1788 177.132 71.396 174.924 72.2963C173.104 73.0376 171.717 74.7994 169.921 75.6534C162.678 79.1007 155.274 82.2481 147.051 82.0599C144.943 82.011 142.818 80.0138 140.881 82.4636C135.186 82.5611 129.482 82.6825 123.929 81.1058C122.602 80.7284 121.353 80.0746 120.075 79.5297C114.676 77.2246 109.273 74.9267 103.896 72.5689C103.535 72.41 103.429 71.7365 103.122 71.3715C102.855 71.0526 102.472 70.8303 102.14 70.564C100.551 72.6475 99.3026 70.4899 98.5097 69.8876C96.1224 68.0717 94.0749 65.8085 91.899 63.7153C91.6455 63.4726 91.4551 63.0402 91.169 62.973C88.0363 62.2315 85.7244 60.6738 84.3313 57.5572C83.839 56.4581 82.0785 55.9267 81.2457 54.6849C80.5759 54.6542 79.7577 54.8652 79.2598 54.5565C74.0605 51.3375 68.9125 48.0354 63.6725 44.7072C61.3879 45.5543 55.737 43.8488 54.3218 41.5849C54.1155 42.2293 53.9657 42.6939 53.9613 42.7085C52.498 42.73 51.1247 42.4768 49.9146 42.8135C43.7426 44.5263 37.6811 46.3347 32.3807 50.3421C26.9492 54.4478 20.9324 57.7713 15.3667 61.7121C13.3948 63.108 11.9207 65.2526 10.3646 67.1728C9.44734 68.3048 8.76224 68.7617 7.53538 67.583C4.2624 64.4401 3.65305 61.6559 6.83741 58.2476C11.14 53.6421 15.659 48.9941 20.8617 45.5336C27.2832 41.2631 34.3716 37.9051 41.414 34.6846C48.9747 31.2269 56.5403 33.0458 63.8402 36.0601C71.8262 39.3555 78.9443 44.0056 85.3738 49.8104C93.1528 56.8344 102.151 61.9468 111.728 66.1575C121.761 70.5679 132.188 72.9162 143.13 72.4981C151.489 72.1796 159.637 70.7397 167.062 66.4746C172.452 63.378 177.924 60.4241 183.368 57.422C183.583 57.3031 183.885 57.3402 184.154 57.3035" fill="#F9896B"/>
<path fill-rule="evenodd" clip-rule="evenodd" d="M143.707 49.8325C140.625 46.6446 140.438 45.6149 142.484 42.0001C144.669 38.139 147.04 34.3844 149.317 30.5754C149.688 29.9542 149.917 29.2365 150.344 28.6634C151.094 27.656 151.945 26.726 152.754 25.7627C153.353 27.1076 154.391 28.4393 154.436 29.803C154.491 31.4387 154.044 33.308 153.21 34.7199C150.238 39.7496 147.009 44.6275 143.707 49.8325" fill="#F9896B"/>
<path fill-rule="evenodd" clip-rule="evenodd" d="M109.341 28.3005C109.307 24.9087 109.172 21.3959 109.314 17.8937C109.345 17.1441 110.383 16.4344 110.956 15.7063C111.641 16.2815 112.471 16.7539 112.972 17.4603C113.476 18.1669 113.816 19.083 113.944 19.9495C114.523 23.8929 115.014 27.8506 115.505 31.8074C115.594 32.5227 115.635 33.275 115.504 33.9736C115.415 34.452 115.03 35.1959 114.707 35.2348C114.191 35.2985 113.369 35.0331 113.106 34.6286C111.831 32.6709 110.699 30.6189 109.341 28.3005" fill="#F9896B"/>
<path fill-rule="evenodd" clip-rule="evenodd" d="M38.1745 82.619C35.5095 81.3547 34.9607 79.809 35.8396 77.8498C37.0205 75.2175 38.1955 72.5629 39.656 70.0855C40.1247 69.2922 41.4898 69.0279 42.4443 68.5216C42.9752 69.9467 44.3319 71.7449 43.8863 72.7287C42.343 76.1414 40.173 79.2707 38.1745 82.619" fill="#F9896B"/>
<path fill-rule="evenodd" clip-rule="evenodd" d="M56.8644 89.88C53.0562 85.1029 56.0083 80.2981 56.3893 75.5963C56.425 75.1653 57.7059 74.3666 57.9027 74.4982C58.8786 75.1498 60.5186 76.1856 60.415 76.8501C59.7553 81.0685 58.7036 85.2264 57.7463 89.3963C57.7085 89.5607 57.3133 89.6428 56.8644 89.88" fill="#F9896B"/>
<path fill-rule="evenodd" clip-rule="evenodd" d="M132.434 35.88C131.913 34.6117 130.906 33.3182 130.965 32.0777C131.129 28.6722 131.668 25.2761 132.234 21.9058C132.354 21.1882 133.216 20.5949 133.737 19.9447C134.359 20.6179 135.491 21.2773 135.51 21.9668C135.586 24.7313 135.468 27.5251 135.122 30.2702C134.884 32.1571 134.151 33.9809 133.639 35.8335C133.238 35.849 132.836 35.8645 132.434 35.88" fill="#F9896B"/>
<path fill-rule="evenodd" clip-rule="evenodd" d="M82.5304 81.9545C81.4883 81.7937 80.9758 81.8669 80.6859 81.6464C77.6585 79.3352 74.5788 77.0795 71.7237 74.5689C70.9137 73.8562 70.7874 72.3651 70.7591 71.0382C75.3034 73.9265 80.0791 76.3334 82.5304 81.9545" fill="#F9896B"/>
</svg>
