<svg width="20" height="20" viewBox="0 0 20 20" fill="none" xmlns="http://www.w3.org/2000/svg">
<g clip-path="url(#clip0_25_54)">
<path d="M19.995 19.9999V19.9991H20V12.6641C20 9.07577 19.2275 6.3116 15.0325 6.3116C13.0158 6.3116 11.6625 7.41827 11.11 8.46744H11.0517V6.6466H7.07418V19.9991H11.2158V13.3874C11.2158 11.6466 11.5458 9.96327 13.7017 9.96327C15.8258 9.96327 15.8575 11.9499 15.8575 13.4991V19.9999H19.995Z" fill="#3734A9"/>
<path d="M0.330162 6.64774H4.47683V20.0002H0.330162V6.64774Z" fill="#3734A9"/>
<path d="M2.40167 0C1.07583 0 0 1.07583 0 2.40167C0 3.7275 1.07583 4.82583 2.40167 4.82583C3.7275 4.82583 4.80333 3.7275 4.80333 2.40167C4.8025 1.07583 3.72667 0 2.40167 0V0Z" fill="#3734A9"/>
</g>
<defs>
<clipPath id="clip0_25_54">
<rect width="20" height="20" fill="white"/>
</clipPath>
</defs>
</svg>
