<svg width="128" height="20" viewBox="0 0 128 20" fill="none" xmlns="http://www.w3.org/2000/svg">
<g clip-path="url(#clip0_16_78)">
<path d="M35.9869 9.25917C35.9869 12.1725 37.4403 14.7717 39.7128 16.4692V20L43.1178 18.1317C44.0261 18.3825 44.9886 18.5192 45.9861 18.5192C51.5086 18.5192 55.9861 14.3742 55.9861 9.26C55.9869 4.14583 51.5094 0 45.9869 0C40.4644 0 35.9869 4.145 35.9869 9.25917V9.25917ZM44.9319 6.66583L47.5403 9.38167L52.4461 6.66583L46.9794 12.4675L44.4336 9.7525L39.4644 12.4683L44.9319 6.66583Z" fill="#3734A9"/>
</g>
<g clip-path="url(#clip1_16_78)">
<path d="M19.995 19.9999V19.9991H20V12.6641C20 9.07577 19.2275 6.3116 15.0325 6.3116C13.0158 6.3116 11.6625 7.41827 11.11 8.46744H11.0517V6.6466H7.07418V19.9991H11.2158V13.3874C11.2158 11.6466 11.5458 9.96327 13.7017 9.96327C15.8258 9.96327 15.8575 11.9499 15.8575 13.4991V19.9999H19.995Z" fill="#3734A9"/>
<path d="M0.330162 6.64774H4.47683V20.0002H0.330162V6.64774Z" fill="#3734A9"/>
<path d="M2.40167 0C1.07583 0 0 1.07583 0 2.40167C0 3.7275 1.07583 4.82583 2.40167 4.82583C3.7275 4.82583 4.80333 3.7275 4.80333 2.40167C4.8025 1.07583 3.72667 0 2.40167 0V0Z" fill="#3734A9"/>
</g>
<g clip-path="url(#clip2_16_78)">
<path d="M89.9189 5.92748C90.7322 5.34998 91.4164 4.62915 91.9739 3.79915V3.79832C91.2297 4.12415 90.4381 4.34082 89.6114 4.44582C90.4614 3.93832 91.1106 3.14082 91.4156 2.17998C90.6231 2.65248 89.7481 2.98582 88.8156 3.17248C88.0631 2.37082 86.9906 1.87498 85.8206 1.87498C83.5506 1.87498 81.7231 3.71748 81.7231 5.97582C81.7231 6.30082 81.7506 6.61332 81.8181 6.91082C78.4097 6.74415 75.3931 5.11082 73.3664 2.62165C73.0131 3.23582 72.8047 3.93832 72.8047 4.69415C72.8047 6.11415 73.5356 7.37248 74.6264 8.10165C73.9672 8.08915 73.3214 7.89748 72.7739 7.59665V7.64165C72.7739 9.63415 74.1947 11.2892 76.0589 11.6708C75.7247 11.7625 75.3614 11.8058 74.9839 11.8058C74.7214 11.8058 74.4564 11.7908 74.2081 11.7358C74.7389 13.3592 76.2472 14.5533 78.0389 14.5925C76.6439 15.6833 74.8722 16.3408 72.9547 16.3408C72.6189 16.3408 72.2964 16.3258 71.9739 16.285C73.7906 17.4558 75.9422 18.125 78.2639 18.125C85.4997 18.125 90.2156 12.0883 89.9189 5.92748V5.92748Z" fill="#3734A9"/>
</g>
<g clip-path="url(#clip3_16_78)">
<path d="M116.392 14.0991C116.445 14.0541 116.499 14.0075 116.549 13.9583C113.765 16.69 109.225 15.415 108.161 11.5625V11.5566C106.733 6.31495 112.752 2.33329 116.547 5.99995C116.627 6.08412 121.869 11.675 121.536 11.3191H121.551C122.333 12.1258 123.465 12.0375 124.138 11.3325C124.862 10.5758 124.888 9.34079 124.177 8.57162C123.055 7.27912 120.851 8.24495 121.062 10.1608L119.8 8.87579L118.337 7.47662C118.638 6.87745 119.034 6.35329 119.53 5.89995C119.477 5.94579 119.422 5.99329 119.372 6.04079C122.167 3.29912 126.704 4.60412 127.761 8.43995V8.44495C129.192 13.6858 123.166 17.6675 119.374 14.0008C119.297 13.9175 114.057 8.29162 114.389 8.64829L114.386 8.63579C114.372 8.63579 114.372 8.62329 114.372 8.62329C113.551 7.77579 112.437 7.90329 111.785 8.59746C111.06 9.35412 111.035 10.5891 111.747 11.3466C112.821 12.6091 115.072 11.6733 114.861 9.71912C114.942 9.80329 117.768 12.7041 117.588 12.52C117.131 13.4325 116.619 13.8516 116.392 14.0991V14.0991Z" fill="#3734A9"/>
</g>
<defs>
<clipPath id="clip0_16_78">
<rect width="20" height="20" fill="white" transform="translate(35.9869)"/>
</clipPath>
<clipPath id="clip1_16_78">
<rect width="20" height="20" fill="white"/>
</clipPath>
<clipPath id="clip2_16_78">
<rect width="20" height="20" fill="white" transform="translate(71.9739)"/>
</clipPath>
<clipPath id="clip3_16_78">
<rect width="20" height="20" fill="white" transform="translate(107.961)"/>
</clipPath>
</defs>
</svg>
