<svg width="402" height="197" viewBox="0 0 402 197" fill="none" xmlns="http://www.w3.org/2000/svg">
<rect opacity="0.3" y="20" width="402" height="177" rx="20" fill="#C4C4C4"/>
<circle cx="52" cy="22" r="22" fill="black"/>
<path d="M59.1702 14.2559L58.8533 16.7119C58.0787 16.6591 57.4801 16.7999 57.0575 17.1344C56.635 17.4689 56.3533 17.9355 56.2125 18.534C56.0716 19.1326 56.0452 19.8104 56.1332 20.5675H59.1702V26.9319H53.334V20.0393C53.334 17.9619 53.8269 16.395 54.8128 15.3386C55.8163 14.2647 57.2688 13.9038 59.1702 14.2559ZM51.0364 14.2559L50.7195 16.7119C49.9449 16.6591 49.3463 16.7999 48.9238 17.1344C48.5012 17.4689 48.2195 17.9355 48.0787 18.534C47.9379 19.1326 47.9114 19.8104 47.9995 20.5675H51.0364V26.9319H45.2002V20.0393C45.2002 17.9619 45.6932 16.395 46.6791 15.3386C47.6826 14.2647 49.135 13.9038 51.0364 14.2559Z" fill="white"/>
</svg>
