<svg width="21" height="20" viewBox="0 0 21 20" fill="none" xmlns="http://www.w3.org/2000/svg">
<g clip-path="url(#clip0_27_9)">
<path d="M18.9189 5.92748C19.7322 5.34998 20.4164 4.62915 20.9739 3.79915V3.79832C20.2297 4.12415 19.4381 4.34082 18.6114 4.44582C19.4614 3.93832 20.1106 3.14082 20.4156 2.17998C19.6231 2.65248 18.7481 2.98582 17.8156 3.17248C17.0631 2.37082 15.9906 1.87498 14.8206 1.87498C12.5506 1.87498 10.7231 3.71748 10.7231 5.97582C10.7231 6.30082 10.7506 6.61332 10.8181 6.91082C7.40973 6.74415 4.39306 5.11082 2.36639 2.62165C2.01306 3.23582 1.80473 3.93832 1.80473 4.69415C1.80473 6.11415 2.53556 7.37248 3.62639 8.10165C2.96723 8.08915 2.32139 7.89748 1.77389 7.59665V7.64165C1.77389 9.63415 3.19473 11.2892 5.05889 11.6708C4.72473 11.7625 4.36139 11.8058 3.98389 11.8058C3.72139 11.8058 3.45639 11.7908 3.20806 11.7358C3.73889 13.3592 5.24723 14.5533 7.03889 14.5925C5.64389 15.6833 3.87223 16.3408 1.95473 16.3408C1.61889 16.3408 1.29639 16.3258 0.973892 16.285C2.79056 17.4558 4.94223 18.125 7.26389 18.125C14.4997 18.125 19.2156 12.0883 18.9189 5.92748V5.92748Z" fill="#3734A9"/>
</g>
<defs>
<clipPath id="clip0_27_9">
<rect width="20" height="20" fill="white" transform="translate(0.973938)"/>
</clipPath>
</defs>
</svg>
